<svg xmlns="http://www.w3.org/2000/svg" viewBox="0 0 1600 1200" role="img"><title>Hemisférios cerebrais</title><rect width="1600" height="1200" fill="#F7F4EC"/><text x="72" y="92" font-family="Arial" font-size="24" font-weight="700" fill="#1D4E7A">HEXÁPODE · G017 NEUROLOGIA</text><text x="72" y="164" font-family="Georgia" font-size="60" fill="#2B2E34">Hemisférios cerebrais</text><text x="74" y="210" font-family="Arial" font-size="24" fill="#6A727A">Lobos e organização cortical</text><line x1="72" y1="238" x2="1528" y2="238" stroke="#DCD2BE" stroke-width="3"/><rect x="72" y="275" width="1456" height="800" rx="28" fill="#FFFDF8" stroke="#DCD2BE" stroke-width="3"/><g transform="translate(120 330)"><path d="M120 430 C80 210 270 75 510 120 C680 40 880 120 930 300 C980 480 860 655 650 670 C520 760 300 720 180 590 C135 545 115 490 120 430Z" fill="#E8E1D1" stroke="#2B2E34" stroke-width="7"/><path d="M120 430 C90 250 240 120 420 125 L430 500 C330 560 240 565 180 590 C135 545 115 490 120 430Z" fill="#DDEFEF" stroke="#1D4E7A" stroke-width="3"/><path d="M430 125 C600 70 760 105 850 220 L700 430 L430 500Z" fill="#DDE8F5" stroke="#1D4E7A" stroke-width="3"/><path d="M430 500 L700 430 L760 655 C610 720 470 700 360 620Z" fill="#F3DED6" stroke="#C45A3C" stroke-width="3"/><path d="M700 430 L850 220 C950 335 950 500 850 590 L760 655Z" fill="#F6E8C4" stroke="#D39A2E" stroke-width="3"/><g font-family="Arial" font-size="28" font-weight="700"><text x="210" y="330" fill="#1D4E7A">frontal</text><text x="565" y="270" fill="#1D4E7A">parietal</text><text x="505" y="585" fill="#C45A3C">temporal</text><text x="775" y="465" fill="#D39A2E">occipital</text></g></g><g transform="translate(1080 370)"><ellipse cx="160" cy="240" rx="190" ry="250" fill="#FFFDF8" stroke="#DCD2BE" stroke-width="4"/><path d="M20 250 C30 80 210 20 300 150 C365 250 290 410 130 450 C50 390 15 330 20 250Z" fill="#E8D9E8" stroke="#2B2E34" stroke-width="5"/><path d="M115 250 C165 175 235 170 300 230" fill="none" stroke="#B2473F" stroke-width="10"/><text x="40" y="535" font-family="Arial" font-size="25" fill="#2B2E34">vista medial</text></g><text x="72" y="1150" font-family="Arial" font-size="20" fill="#6A727A">HEX-G017-166 · Hexápode · Neurologia</text></svg>