<svg xmlns="http://www.w3.org/2000/svg" width="1200" height="1600" viewBox="0 0 1200 1600" role="img" aria-labelledby="t d"><title id="t">Setor, foco e profundidade</title><desc id="d">Geometria do setor e efeitos de profundidade, foco, ganho e largura na imagem.</desc><rect width="1200" height="1600" fill="#F7F4EC"/><rect width="1200" height="120" fill="#0F3B5D"/><text x="55" y="76" fill="white" font-family="Arial" font-size="38">HEXÁPODE · ULTRASSOM AVANÇADO</text><text x="55" y="195" fill="#0F3B5D" font-family="Arial" font-size="52" font-weight="700">Setor, foco e profundidade</text><path d="M600 340 L260 1050 A500 500 0 0 0 940 1050 Z" fill="#343A40" stroke="#0F3B5D" stroke-width="8"/><g fill="none" stroke="#D7DEE3" stroke-width="5"><path d="M500 560 Q600 520 700 560"/><path d="M430 700 Q600 640 770 700"/><path d="M360 850 Q600 760 840 850"/><path d="M300 1000 Q600 880 900 1000"/></g><line x1="600" y1="340" x2="600" y2="1050" stroke="#F0B14A" stroke-width="5" stroke-dasharray="16 12"/><circle cx="600" cy="720" r="22" fill="#E04B4B"/><text x="635" y="730" font-family="Arial" font-size="30" fill="white">Foco</text><text x="840" y="1040" font-family="Arial" font-size="30" fill="white">Profundidade</text><rect x="80" y="1180" width="1040" height="240" rx="20" fill="#EAF3F1" stroke="#2A8C82" stroke-width="3"/><text x="110" y="1250" font-family="Arial" font-size="34" font-weight="700" fill="#0F3B5D">Ponto-chave</text><text x="110" y="1310" font-family="Arial" font-size="26" fill="#2F4858">Reduzir profundidade e setor melhora taxa de quadros; foco deve ficar no nível do alvo.</text><text x="55" y="1540" font-family="Arial" font-size="25" fill="#0F3B5D">HEX-A039-390 · Revisão clínica pendente</text></svg>