<svg xmlns="http://www.w3.org/2000/svg" viewBox="0 0 1600 1200" role="img"><title>Tronco encefálico</title><rect width="1600" height="1200" fill="#F7F4EC"/><text x="72" y="92" font-family="Arial" font-size="24" font-weight="700" fill="#1D4E7A">HEXÁPODE · G017 NEUROLOGIA</text><text x="72" y="164" font-family="Georgia" font-size="60" fill="#2B2E34">Tronco encefálico</text><text x="74" y="210" font-family="Arial" font-size="24" fill="#6A727A">Mesencéfalo, ponte, bulbo e integração vital</text><line x1="72" y1="238" x2="1528" y2="238" stroke="#DCD2BE" stroke-width="3"/><rect x="72" y="275" width="1456" height="800" rx="28" fill="#FFFDF8" stroke="#DCD2BE" stroke-width="3"/><g transform="translate(300 320)"><ellipse cx="300" cy="220" rx="190" ry="150" fill="#E8D9E8" stroke="#2B2E34" stroke-width="6"/><path d="M300 325 C220 370 220 470 280 520 C235 590 250 690 320 760 C390 700 405 600 360 525 C420 450 405 370 300 325Z" fill="#F3DED6" stroke="#C45A3C" stroke-width="7"/><rect x="285" y="755" width="70" height="180" rx="30" fill="#DDEFEF" stroke="#1696A3" stroke-width="6"/><path d="M470 360 C620 340 710 430 720 540 C730 650 630 740 470 720 C560 650 560 430 470 360Z" fill="#E8E1D1" stroke="#1D4E7A" stroke-width="6"/><g font-family="Arial" font-size="30" fill="#2B2E34"><text x="40" y="370">mesencéfalo</text><text x="65" y="525">ponte</text><text x="65" y="690">bulbo</text><text x="520" y="545">cerebelo</text><text x="255" y="980">medula</text></g></g><rect x="1020" y="420" width="390" height="320" rx="24" fill="#E8E1D1"/><text x="1060" y="485" font-family="Arial" font-size="30" font-weight="700" fill="#1D4E7A">FUNÇÕES-CHAVE</text><g font-family="Arial" font-size="26" fill="#2B2E34"><text x="1060" y="550">• consciência</text><text x="1060" y="600">• respiração</text><text x="1060" y="650">• controle cardiovascular</text><text x="1060" y="700">• pares cranianos</text></g><text x="72" y="1150" font-family="Arial" font-size="20" fill="#6A727A">HEX-G017-164 · Hexápode · Neurologia</text></svg>