<svg xmlns="http://www.w3.org/2000/svg" viewBox="0 0 1600 1200" role="img"><title>Pericárdio</title><rect width="1600" height="1200" fill="#F7F4EC"/><text x="90" y="125" font-family="Georgia" font-size="62" fill="#2B2E34">Pericárdio</text><text x="90" y="175" font-family="Arial" font-size="24" fill="#6A727A">Camadas serosas, cavidade e contenção cardíaca</text><line x1="90" y1="210" x2="1510" y2="210" stroke="#DCD2BE" stroke-width="3"/><ellipse cx="650" cy="620" rx="420" ry="450" fill="#EAF4F5" stroke="#1696A3" stroke-width="15"/><ellipse cx="650" cy="620" rx="365" ry="395" fill="#FFFDF8" stroke="#1D4E7A" stroke-width="12"/><path d="M540 420 C420 350 340 470 390 620 C440 760 560 830 650 890 C750 810 870 670 890 540 C910 400 770 340 690 430" fill="#F2D2CC" stroke="#2B2E34" stroke-width="7"/><path d="M1040 430 H1320" stroke="#1696A3" stroke-width="10"/><text x="1040" y="405" font-family="Arial" font-size="26" fill="#1696A3">parietal</text><path d="M1040 540 H1320" stroke="#1D4E7A" stroke-width="10"/><text x="1040" y="515" font-family="Arial" font-size="26" fill="#1D4E7A">visceral</text><path d="M1040 650 H1320" stroke="#D39A2E" stroke-width="10"/><text x="1040" y="625" font-family="Arial" font-size="26" fill="#D39A2E">cavidade potencial</text><text x="90" y="1115" font-family="Arial" font-size="20" fill="#6A727A">HEX-G018-180 · Cardiologia</text></svg>