<svg xmlns="http://www.w3.org/2000/svg" viewBox="0 0 1600 1200" role="img"><title>Cânula nasal avançada</title><rect width="1600" height="1200" fill="#F7F4EC"/><text x="80" y="140" font-family="Arial" font-size="56">Cânula nasal: fluxo e FiO₂ variável</text><path d="M650 170 C430 210 330 390 360 650 C390 860 560 980 760 930 C940 880 1030 700 1000 460 C970 250 830 160 650 170Z" fill="#F1D6C8" stroke="#A96D58" stroke-width="6"/><path d="M570 500 Q680 450 790 500" fill="none" stroke="#A96D58" stroke-width="6"/><path d="M580 505 C530 430 510 380 470 330 M780 505 C830 430 850 380 890 330" fill="none" stroke="#1696A3" stroke-width="22" stroke-linecap="round"/><path d="M470 330 C340 300 230 330 140 410" fill="none" stroke="#1696A3" stroke-width="18"/><path d="M890 330 C1020 300 1130 330 1220 410" fill="none" stroke="#1696A3" stroke-width="18"/><path d="M180 250 C270 300 315 390 330 470" fill="none" stroke="#6BAED6" stroke-width="8" stroke-dasharray="14 10"/><text x="90" y="220" font-family="Arial" font-size="28">ar ambiente</text><rect x="250" y="820" width="850" height="110" rx="22" fill="#E7EEF5"/><text x="315" y="885" font-family="Arial" font-size="32">FiO₂ varia com fluxo, volume corrente, frequência respiratória e boca aberta</text><text x="80" y="1120" font-family="Arial" font-size="24">HEX-A026-257</text></svg>