<svg xmlns="http://www.w3.org/2000/svg" viewBox="0 0 1600 1200" role="img" aria-labelledby="t d"><title id="t">Paleta oficial aplicada</title><desc id="d">Aplicação semântica da paleta Hexápode em anatomia, fisiologia, alertas e interface.</desc><rect width="1600" height="1200" fill="#F7F4EC"/><text x="72" y="90" font-family="Arial" font-size="24" font-weight="700" fill="#1D4E7A">HEXÁPODE · CAMADA AVANÇADA</text><text x="72" y="162" font-family="Georgia" font-size="58" font-weight="700" fill="#2B2E34">Paleta oficial aplicada</text><text x="74" y="208" font-family="Arial" font-size="24" fill="#6A727A">Aplicação semântica da paleta Hexápode em anatomia, fisiologia, alertas e interface.</text><line x1="72" y1="238" x2="1528" y2="238" stroke="#DCD2BE" stroke-width="3"/><rect x="90" y="300" width="90" height="58" rx="12" fill="#1D4E7A"/><text x="205" y="338" font-family="Arial" font-size="24" fill="#2B2E34">Estrutura</text><rect x="90" y="395" width="90" height="58" rx="12" fill="#1696A3"/><text x="205" y="433" font-family="Arial" font-size="24" fill="#2B2E34">Fluxo</text><rect x="90" y="490" width="90" height="58" rx="12" fill="#2E7D69"/><text x="205" y="528" font-family="Arial" font-size="24" fill="#2B2E34">Resposta segura</text><rect x="90" y="585" width="90" height="58" rx="12" fill="#C45A3C"/><text x="205" y="623" font-family="Arial" font-size="24" fill="#2B2E34">Tecido</text><rect x="90" y="680" width="90" height="58" rx="12" fill="#B2473F"/><text x="205" y="718" font-family="Arial" font-size="24" fill="#2B2E34">Lesão</text><rect x="90" y="775" width="90" height="58" rx="12" fill="#D39A2E"/><text x="205" y="813" font-family="Arial" font-size="24" fill="#2B2E34">Alerta</text><rect x="90" y="870" width="90" height="58" rx="12" fill="#E8E1D1"/><text x="205" y="908" font-family="Arial" font-size="24" fill="#2B2E34">Neutro</text><rect x="450" y="300" width="310" height="650" rx="22" fill="#FFFDF8" stroke="#DCD2BE" stroke-width="3"/><text x="474" y="344" font-family="Arial" font-size="25" font-weight="700" fill="#1D4E7A">Anatomia</text><circle cx="605" cy="560" r="95" fill="#E8E1D1" stroke="#1D4E7A" stroke-width="8"/><path d="M520 760 H690" stroke="#1D4E7A" stroke-width="14"/><polygon points="690,760 655,740 655,780" fill="#1D4E7A"/><rect x="800" y="300" width="310" height="650" rx="22" fill="#FFFDF8" stroke="#DCD2BE" stroke-width="3"/><text x="824" y="344" font-family="Arial" font-size="25" font-weight="700" fill="#1696A3">Fisiologia</text><circle cx="955" cy="560" r="95" fill="#E8E1D1" stroke="#1696A3" stroke-width="8"/><path d="M870 760 H1040" stroke="#1696A3" stroke-width="14"/><polygon points="1040,760 1005,740 1005,780" fill="#1696A3"/><rect x="1150" y="300" width="310" height="650" rx="22" fill="#FFFDF8" stroke="#DCD2BE" stroke-width="3"/><text x="1174" y="344" font-family="Arial" font-size="25" font-weight="700" fill="#B2473F">Estados</text><circle cx="1305" cy="560" r="95" fill="#E8E1D1" stroke="#B2473F" stroke-width="8"/><path d="M1220 760 H1390" stroke="#B2473F" stroke-width="14"/><polygon points="1390,760 1355,740 1355,780" fill="#B2473F"/><text x="72" y="1150" font-family="Arial" font-size="20" fill="#6A727A">HEX-A021-201 · Hexápode · avançado</text></svg>