<svg xmlns="http://www.w3.org/2000/svg" viewBox="0 0 1600 1200" role="img"><title>HEX-G010-097 — Fibrose pulmonar</title><desc>Interstício espessado, redução de complacência e padrão reticular esquemático.</desc><rect width="1600" height="1200" fill="#F7F4EC"/><text x="90" y="120" font-family="serif" font-size="72" fill="#2B2E34">Fibrose pulmonar</text><text x="90" y="175" font-family="sans-serif" font-size="28" fill="#6A727A">interstício espessado • pulmão rígido • difusão reduzida</text><g transform="translate(250 250)" fill="#E8E1D1" stroke="#2B2E34" stroke-width="10"><path d="M400 80C180 90 40 280 70 630s190 430 430 330V180C470 110 445 80 400 80Z"/><path d="M590 180v780c240 100 400 20 430-330s-110-540-330-550c-45 0-70 30-100 100Z"/></g><g stroke="#B2473F" stroke-width="10" opacity=".7"><path d="M390 420l240 520M330 560l280 250M420 840l180-280M1010 390l260 550M930 620l290 210M1040 850l160-310"/><path d="M460 350l-120 520M1120 340l-120 560"/></g><text x="560" y="1080" font-family="sans-serif" font-size="28" fill="#B2473F">rede intersticial espessada → ↓ complacência</text></svg>