<svg xmlns="http://www.w3.org/2000/svg" viewBox="0 0 1600 1200" role="img" aria-labelledby="t d"><title id="t">Cicatrização</title><desc id="d">Fases vetoriais da cicatrização: hemostasia, inflamação, proliferação e remodelamento.</desc><rect width="1600" height="1200" fill="#F7F4EC"/><text x="80" y="110" font-family="Georgia" font-size="64" fill="#2B2E34">Cicatrização</text><text x="80" y="160" font-family="Arial" font-size="25" fill="#6A727A">Reparo tecidual em fases sobrepostas</text><line x1="80" y1="200" x2="1520" y2="200" stroke="#DCD2BE" stroke-width="3"/><g transform="translate(90 300)" font-family="Arial"><g><rect width="330" height="620" rx="28" fill="#FFFDF8" stroke="#DCD2BE" stroke-width="3"/><text x="165" y="55" text-anchor="middle" font-size="27" font-weight="700" fill="#B2473F">HEMOSTASIA</text><path d="M60 210 L145 320 L260 180" fill="none" stroke="#C45A3C" stroke-width="22"/><g fill="#B2473F"><circle cx="115" cy="280" r="20"/><circle cx="155" cy="300" r="20"/><circle cx="195" cy="275" r="20"/></g><path d="M80 400 C150 350 220 350 280 400" fill="none" stroke="#D39A2E" stroke-width="14"/></g><g transform="translate(370 0)"><rect width="330" height="620" rx="28" fill="#FFFDF8" stroke="#DCD2BE" stroke-width="3"/><text x="165" y="55" text-anchor="middle" font-size="27" font-weight="700" fill="#D39A2E">INFLAMAÇÃO</text><path d="M60 360 C130 290 210 290 275 360" fill="none" stroke="#C45A3C" stroke-width="16"/><g fill="#2E7D69"><circle cx="115" cy="240" r="28"/><circle cx="175" cy="200" r="30"/><circle cx="235" cy="245" r="28"/></g></g><g transform="translate(740 0)"><rect width="330" height="620" rx="28" fill="#FFFDF8" stroke="#DCD2BE" stroke-width="3"/><text x="165" y="55" text-anchor="middle" font-size="27" font-weight="700" fill="#1696A3">PROLIFERAÇÃO</text><g stroke="#1696A3" stroke-width="10" fill="none"><path d="M70 420 C120 300 170 260 250 180"/><path d="M100 410 C170 350 220 330 280 300"/></g><g fill="#C45A3C"><ellipse cx="120" cy="310" rx="38" ry="22"/><ellipse cx="190" cy="270" rx="38" ry="22"/><ellipse cx="245" cy="350" rx="38" ry="22"/></g></g><g transform="translate(1110 0)"><rect width="330" height="620" rx="28" fill="#FFFDF8" stroke="#DCD2BE" stroke-width="3"/><text x="165" y="55" text-anchor="middle" font-size="27" font-weight="700" fill="#2E7D69">REMODELAMENTO</text><g stroke="#2E7D69" stroke-width="12"><path d="M55 200 L275 420"/><path d="M55 260 L250 455"/><path d="M80 160 L285 365"/><path d="M70 430 L270 230"/></g></g></g><path d="M250 980 H1350" stroke="#1D4E7A" stroke-width="10"/><polygon points="1350,980 1300,950 1300,1010" fill="#1D4E7A"/><text x="80" y="1140" font-family="Arial" font-size="21" fill="#6A727A">HEX-G020-196 · Hexápode · Biblioteca Universal</text></svg>