<svg xmlns="http://www.w3.org/2000/svg" viewBox="0 0 1600 1200" role="img"><title>Templates Hexápode</title><rect width="1600" height="1200" fill="#F7F4EC"/><text x="70" y="100" font-size="58" fill="#2B2E34">Hexápode — Templates</text><g fill="none" stroke="#2B2E34" stroke-width="5"><rect x="80" y="220" width="440" height="300" rx="20"/><rect x="580" y="220" width="440" height="300" rx="20"/><rect x="1080" y="220" width="440" height="300" rx="20"/><rect x="80" y="610" width="440" height="300" rx="20"/><rect x="580" y="610" width="440" height="300" rx="20"/><rect x="1080" y="610" width="440" height="300" rx="20"/></g><g fill="#E8E1D1"><rect x="110" y="290" width="100" height="170"/><rect x="230" y="290" width="100" height="170"/><rect x="350" y="290" width="100" height="170"/><rect x="610" y="290" width="170" height="170"/><rect x="800" y="290" width="170" height="170"/><rect x="1110" y="290" width="80" height="170"/><rect x="1210" y="290" width="80" height="170"/><rect x="1310" y="290" width="80" height="170"/><rect x="1410" y="290" width="80" height="170"/></g><text x="70" y="1130" font-size="24" fill="#6A727A">HEX-G001-010</text></svg>