<svg xmlns="http://www.w3.org/2000/svg" viewBox="0 0 1600 1200" role="img" aria-labelledby="t d"><title id="t">Lobos pulmonares avançados</title><desc id="d">Pulmões em vistas anterior e posterior com lobos e fissuras codificados por cor.</desc><rect width="1600" height="1200" fill="#F7F4EC"/><rect width="1600" height="76" fill="#123A63"/><text x="70" y="50" font-family="Arial" font-size="28" font-weight="700" fill="white">HEXÁPODE · CAMADA AVANÇADA · A023</text><text x="70" y="155" font-family="Georgia" font-size="58" fill="#2B2E34">Lobos pulmonares avançados</text><text x="72" y="205" font-family="Arial" font-size="24" fill="#6A727A">Mapa dos cinco lobos, fissuras e relações mediastinais.</text><line x1="70" y1="235" x2="1530" y2="235" stroke="#DCD2BE" stroke-width="3"/><path d="M340 330 C230 380 210 630 350 790 C450 700 480 500 445 340 Z" fill="#AFC8B3" stroke="#2B2E34" stroke-width="5"/><path d="M455 340 C560 380 590 650 470 790 C420 650 420 490 455 340 Z" fill="#E9B4A5" stroke="#2B2E34" stroke-width="5"/><path d="M350 505 Q405 545 455 505" fill="none" stroke="#FFF" stroke-width="9"/><path d="M315 620 Q385 650 465 620" fill="none" stroke="#FFF" stroke-width="9"/><rect x="790" y="300" width="680" height="560" rx="28" fill="#FFFDF8" stroke="#DCD2BE" stroke-width="4"/><text x="840" y="370" font-family="Arial" font-size="29" font-weight="700" fill="#123A63">LEITURA AVANÇADA</text><text x="840" y="430" font-family="Arial" font-size="25" fill="#2B2E34">• anatomia funcional integrada</text><text x="840" y="485" font-family="Arial" font-size="25" fill="#2B2E34">• relações espaciais e clínicas</text><text x="840" y="540" font-family="Arial" font-size="25" fill="#2B2E34">• fissuras, lobos e interfaces</text><text x="70" y="1125" font-family="Arial" font-size="20" fill="#6A727A">HEX-A023-221 · Anatomia Respiratória II Avançada</text></svg>