<svg xmlns="http://www.w3.org/2000/svg" viewBox="0 0 1600 1200" role="img"><title>Valvas cardíacas</title><rect width="1600" height="1200" fill="#F7F4EC"/><text x="90" y="125" font-family="Georgia" font-size="62" fill="#2B2E34">Valvas cardíacas</text><text x="90" y="175" font-family="Arial" font-size="24" fill="#6A727A">Fluxo unidirecional entre câmaras e grandes vasos</text><line x1="90" y1="210" x2="1510" y2="210" stroke="#DCD2BE" stroke-width="3"/><g fill="#FFFDF8" stroke="#2B2E34" stroke-width="6"><circle cx="430" cy="480" r="150"/><circle cx="790" cy="480" r="150"/><circle cx="430" cy="800" r="150"/><circle cx="790" cy="800" r="150"/></g><g fill="none" stroke="#1D4E7A" stroke-width="16"><path d="M350 480 Q430 380 510 480 Q430 580 350 480"/><path d="M710 480 Q790 380 870 480 Q790 580 710 480"/><path d="M350 800 Q430 700 510 800 Q430 900 350 800"/><path d="M710 800 Q790 700 870 800 Q790 900 710 800"/></g><g font-family="Arial" font-size="25" fill="#2B2E34"><text x="355" y="280">tricúspide</text><text x="720" y="280">mitral</text><text x="350" y="1020">pulmonar</text><text x="735" y="1020">aórtica</text></g><text x="1080" y="500" font-family="Arial" font-size="28" fill="#1696A3">abrem por gradiente</text><text x="1080" y="560" font-family="Arial" font-size="24" fill="#2B2E34">fecham contra refluxo</text><text x="90" y="1115" font-family="Arial" font-size="20" fill="#6A727A">HEX-G018-176 · Cardiologia</text></svg>