<svg xmlns="http://www.w3.org/2000/svg" viewBox="0 0 1600 1200" role="img" aria-labelledby="t d"><title id="t">Sinapse</title><desc id="d">sinapse química com terminal pré-sináptico, vesículas, fenda, receptores e recaptação</desc><rect width="1600" height="1200" fill="#F7F4EC"/><text x="72" y="92" font-family="Arial" font-size="24" font-weight="700" fill="#1D4E7A">HEXÁPODE · G017 NEUROLOGIA</text><text x="72" y="164" font-family="Georgia" font-size="60" font-weight="700" fill="#2B2E34">Sinapse</text><text x="74" y="210" font-family="Arial" font-size="24" fill="#6A727A">Transmissão química entre neurônios</text><line x1="72" y1="238" x2="1528" y2="238" stroke="#DCD2BE" stroke-width="3"/><rect x="72" y="275" width="1456" height="800" rx="28" fill="#FFFDF8" stroke="#DCD2BE" stroke-width="3"/><g transform="translate(170 340)"><path d="M80 120 C260 90 350 160 420 300 C455 375 440 470 390 545 L90 545 C35 430 20 285 80 120Z" fill="#F3DED6" stroke="#C45A3C" stroke-width="7"/><path d="M910 120 C730 90 640 160 570 300 C535 375 550 470 600 545 L900 545 C955 430 970 285 910 120Z" fill="#DDEFEF" stroke="#1696A3" stroke-width="7"/><g fill="#D39A2E" stroke="#2B2E34" stroke-width="3"><circle cx="210" cy="260" r="28"/><circle cx="300" cy="210" r="28"/><circle cx="345" cy="330" r="28"/><circle cx="230" cy="390" r="28"/></g><g fill="#B2473F"><circle cx="430" cy="250" r="10"/><circle cx="470" cy="310" r="10"/><circle cx="510" cy="370" r="10"/><circle cx="455" cy="420" r="10"/></g><g stroke="#1D4E7A" stroke-width="8"><line x1="615" y1="250" x2="690" y2="250"/><line x1="615" y1="330" x2="690" y2="330"/><line x1="615" y1="410" x2="690" y2="410"/></g><text x="385" y="620" font-family="Arial" font-size="28" fill="#2B2E34">fenda sináptica</text><text x="100" y="70" font-family="Arial" font-size="28" fill="#C45A3C">terminal pré-sináptico</text><text x="690" y="70" font-family="Arial" font-size="28" fill="#1696A3">membrana pós-sináptica</text></g><text x="72" y="1150" font-family="Arial" font-size="20" fill="#6A727A">HEX-G017-162 · Hexápode · Neurologia</text></svg>