<svg xmlns="http://www.w3.org/2000/svg" width="1600" height="1200" viewBox="0 0 1600 1200" role="img" aria-labelledby="t d"><title id="t">Hexápode — Double Trigger</title><desc id="d">Dois ciclos ventilatórios consecutivos disparados por um único esforço inspiratório prolongado.</desc><rect width="1600" height="1200" fill="#F7F4EC"/><text x="85" y="120" font-family="Georgia" font-size="62" fill="#2B2E34">Hexápode — Double Trigger</text><text x="88" y="168" font-family="Arial" font-size="24" fill="#B2473F">ASSINCRONIA DE DISPARO · EMPILHAMENTO</text><line x1="85" y1="195" x2="1515" y2="195" stroke="#2B2E34" stroke-width="2"/><rect x="80" y="290" width="960" height="680" rx="18" fill="#FBF9F3" stroke="#DCD2BE"/><text x="120" y="350" font-family="Arial" font-size="24" font-weight="700" fill="#2B2E34">FLUXO E VOLUME</text><line x1="140" y1="600" x2="970" y2="600" stroke="#6A727A"/><path d="M140 600 L250 600 L250 480 L420 480 L420 600 L450 600 L450 480 L620 480 L620 600 L760 600" fill="none" stroke="#1696A3" stroke-width="8"/><path d="M140 800 C250 800 270 730 420 690 C450 680 470 620 620 580 C680 565 720 610 760 800" fill="none" stroke="#C45A3C" stroke-width="8"/><text x="270" y="900" font-family="Arial" font-size="22" fill="#B2473F">Dois ciclos · expiração mínima · volume somado</text><rect x="1090" y="290" width="430" height="680" rx="18" fill="#FBF9F3" stroke="#DCD2BE"/><text x="1130" y="360" font-family="Arial" font-size="24" font-weight="700" fill="#2B2E34">CADEIA CAUSAL</text><text x="1130" y="455" font-family="Arial" font-size="22" fill="#2B2E34">Esforço prolongado</text><text x="1280" y="510" font-family="Arial" font-size="34" fill="#1696A3">↓</text><text x="1130" y="575" font-family="Arial" font-size="22" fill="#2B2E34">Ciclagem precoce</text><text x="1280" y="630" font-family="Arial" font-size="34" fill="#1696A3">↓</text><text x="1130" y="695" font-family="Arial" font-size="22" fill="#B2473F">Novo disparo imediato</text><text x="90" y="1110" font-family="Arial" font-size="18" fill="#1D4E7A">HEX-G009-082 · ativo canônico · Ventila · Respira · Emergências</text></svg>