<svg xmlns="http://www.w3.org/2000/svg" viewBox="0 0 1600 1200" role="img" aria-labelledby="t d"><title id="t">Relação ventilação/perfusão</title><desc id="d">Unidades pulmonares com baixa, normal e alta relação V/Q.</desc><rect width="1600" height="1200" fill="#F7F4EC"/><text x="90" y="120" font-family="Georgia" font-size="62" fill="#2B2E34">Relação ventilação/perfusão</text><text x="90" y="170" font-family="Arial" font-size="24" fill="#6A727A">Equilíbrio regional entre ar e fluxo sanguíneo</text><line x1="90" y1="205" x2="1510" y2="205" stroke="#DCD2BE" stroke-width="3"/><g transform="translate(100 320)" font-family="Arial"><g transform="translate(0 0)"><rect width="420" height="520" rx="24" fill="#FFFDF8" stroke="#DCD2BE" stroke-width="4"/><text x="210" y="60" text-anchor="middle" font-size="30" fill="#B2473F">Baixa V/Q</text><circle cx="210" cy="240" r="115" fill="#E7B2A8" stroke="#B2473F" stroke-width="6"/><path d="M210 80 V150" stroke="#1696A3" stroke-width="12"/><path d="M110 370 H310" stroke="#1D4E7A" stroke-width="24"/></g><g transform="translate(490 0)"><rect width="420" height="520" rx="24" fill="#FFFDF8" stroke="#DCD2BE" stroke-width="4"/><text x="210" y="60" text-anchor="middle" font-size="30" fill="#2E7D69">Normal</text><circle cx="210" cy="240" r="115" fill="#D8EEF0" stroke="#1696A3" stroke-width="6"/><path d="M210 80 V150" stroke="#1696A3" stroke-width="20"/><path d="M110 370 H310" stroke="#1D4E7A" stroke-width="20"/></g><g transform="translate(980 0)"><rect width="420" height="520" rx="24" fill="#FFFDF8" stroke="#DCD2BE" stroke-width="4"/><text x="210" y="60" text-anchor="middle" font-size="30" fill="#D39A2E">Alta V/Q</text><circle cx="210" cy="240" r="115" fill="#E8E1D1" stroke="#D39A2E" stroke-width="6"/><path d="M210 80 V150" stroke="#1696A3" stroke-width="28"/><path d="M110 370 H310" stroke="#1D4E7A" stroke-width="8"/></g></g><text x="90" y="1120" font-family="Arial" font-size="20" fill="#6A727A">HEX-A024-239 · Hexápode · Mecânica Respiratória Avançada</text></svg>