<svg xmlns="http://www.w3.org/2000/svg" viewBox="0 0 1600 1200" role="img"><title>Diálise peritoneal</title><desc>Peritônio como membrana</desc><rect width="1600" height="1200" fill="#F7F4EC"/><text x="72" y="92" font-family="Arial" font-size="24" font-weight="700" fill="#1D4E7A">HEXÁPODE · NEFROLOGIA</text><text x="72" y="165" font-family="Georgia" font-size="58" font-weight="700" fill="#2B2E34">Diálise peritoneal</text><text x="74" y="210" font-family="Arial" font-size="25" fill="#6A727A">Peritônio como membrana</text><line x1="72" y1="240" x2="1528" y2="240" stroke="#DCD2BE" stroke-width="3"/><rect x="72" y="278" width="1456" height="760" rx="28" fill="#FFFDF8" stroke="#DCD2BE" stroke-width="2"/><path d="M420 390 C240 470 230 760 420 860 C610 950 790 790 770 560 C750 390 580 320 420 390Z" fill="#F6D9CB" stroke="#C45A3C" stroke-width="6"/><path d="M470 450 C390 560 410 760 540 820" fill="none" stroke="#1D4E7A" stroke-width="18"/><circle cx="555" cy="820" r="22" fill="#1D4E7A"/><rect x="930" y="390" width="300" height="230" rx="20" fill="#E6F1F4" stroke="#1696A3" stroke-width="5"/><path d="M1080 620 V780 C1080 830 930 830 750 760" fill="none" stroke="#1696A3" stroke-width="14"/><text x="280" y="925" font-family="Arial" font-size="26" fill="#2B2E34">cavidade peritoneal</text><text x="930" y="350" font-family="Arial" font-size="26" fill="#2B2E34">bolsa de dialisato</text><text x="72" y="1145" font-family="Arial" font-size="20" fill="#6A727A">HEX-G016-158 · Hexápode · G016</text></svg>