<svg xmlns="http://www.w3.org/2000/svg" viewBox="0 0 1600 1200" role="img" aria-labelledby="t d"><title id="t">Pleura avançada</title><desc id="d">Folhetos pleurais, recessos, pressão subatmosférica e acoplamento mecânico pulmão-parede.</desc><rect width="1600" height="1200" fill="#F7F4EC"/><text x="72" y="90" font-family="Arial" font-size="24" font-weight="700" fill="#1D4E7A">HEXÁPODE · ANATOMIA RESPIRATÓRIA AVANÇADA</text><text x="72" y="158" font-family="Georgia" font-size="54" font-weight="700" fill="#2B2E34">Pleura avançada</text><text x="74" y="204" font-family="Arial" font-size="22" fill="#6A727A">Folhetos pleurais, recessos, pressão subatmosférica e acoplamento mecânico pulmão-parede.</text><line x1="72" y1="236" x2="1528" y2="236" stroke="#DCD2BE" stroke-width="3"/><rect x="70" y="275" width="970" height="750" rx="28" fill="#FFFDF8" stroke="#DCD2BE" stroke-width="3"/><path d="M220 900 Q420 330 800 420 Q970 470 950 870" fill="#D8ECEB" stroke="#1696A3" stroke-width="8"/><path d="M250 900 Q440 380 790 465 Q910 500 900 860" fill="#FFFDF8" stroke="#1D4E7A" stroke-width="7"/><path d="M285 900 Q450 430 775 510 Q850 535 845 850" fill="none" stroke="#B2473F" stroke-width="14"/><path d="M310 900 Q460 470 760 550 Q800 565 795 840" fill="none" stroke="#2E7D69" stroke-width="8" stroke-dasharray="18 12"/><text x="280" y="980" font-family="Arial" font-size="23" fill="#6A727A">Acoplamento mecânico pulmão–parede pela pressão pleural</text><rect x="1080" y="300" width="430" height="700" rx="24" fill="#FFFDF8" stroke="#DCD2BE" stroke-width="3"/><text x="1120" y="360" font-family="Arial" font-size="28" font-weight="700" fill="#1D4E7A">LEITURA ESTRUTURAL</text><circle cx="1135" cy="422" r="13" fill="#1696A3"/><text x="1170" y="430" font-family="Arial" font-size="23" fill="#2B2E34">Pleura visceral</text><line x1="1170" y1="450" x2="1450" y2="450" stroke="#DCD2BE" stroke-width="2"/><circle cx="1135" cy="527" r="13" fill="#1D4E7A"/><text x="1170" y="535" font-family="Arial" font-size="23" fill="#2B2E34">Pleura parietal</text><line x1="1170" y1="555" x2="1450" y2="555" stroke="#DCD2BE" stroke-width="2"/><circle cx="1135" cy="632" r="13" fill="#C45A3C"/><text x="1170" y="640" font-family="Arial" font-size="23" fill="#2B2E34">Espaço pleural</text><line x1="1170" y1="660" x2="1450" y2="660" stroke="#DCD2BE" stroke-width="2"/><circle cx="1135" cy="737" r="13" fill="#2E7D69"/><text x="1170" y="745" font-family="Arial" font-size="23" fill="#2B2E34">Pressão pleural</text><line x1="1170" y1="765" x2="1450" y2="765" stroke="#DCD2BE" stroke-width="2"/><circle cx="1135" cy="842" r="13" fill="#D39A2E"/><text x="1170" y="850" font-family="Arial" font-size="23" fill="#2B2E34">Recesso costofrênico</text><line x1="1170" y1="870" x2="1450" y2="870" stroke="#DCD2BE" stroke-width="2"/><text x="72" y="1150" font-family="Arial" font-size="20" fill="#6A727A">HEX-A022-216 · Hexápode · camada avançada</text></svg>