<svg xmlns="http://www.w3.org/2000/svg" viewBox="0 0 1600 1200" role="img" aria-labelledby="t d"><title id="t">Corpo infantil aplicado</title><desc id="d">Referência pediátrica esquemática com proporções, regiões e marcos de crescimento.</desc><rect width="1600" height="1200" fill="#F7F4EC"/><text x="72" y="90" font-family="Arial" font-size="24" font-weight="700" fill="#1D4E7A">HEXÁPODE · CAMADA AVANÇADA</text><text x="72" y="162" font-family="Georgia" font-size="58" font-weight="700" fill="#2B2E34">Corpo infantil aplicado</text><text x="74" y="208" font-family="Arial" font-size="24" fill="#6A727A">Referência pediátrica esquemática com proporções, regiões e marcos de crescimento.</text><line x1="72" y1="238" x2="1528" y2="238" stroke="#DCD2BE" stroke-width="3"/><rect x="80" y="290" width="300" height="720" rx="22" fill="#FFFDF8" stroke="#DCD2BE" stroke-width="3"/><text x="104" y="334" font-family="Arial" font-size="25" font-weight="700" fill="#1D4E7A">Mapa regional</text><rect x="1240" y="290" width="280" height="720" rx="22" fill="#FFFDF8" stroke="#DCD2BE" stroke-width="3"/><text x="1264" y="334" font-family="Arial" font-size="25" font-weight="700" fill="#1D4E7A">Integração sistêmica</text><circle cx="650" cy="360" r="74" fill="#E8E1D1" stroke="#1D4E7A" stroke-width="4"/><path d="M563.9 459 Q650 429 736.1 459 L722.324 689 Q650 729 577.676 689 Z" fill="#FFFDF8" stroke="#2B2E34" stroke-width="5"/><ellipse cx="608" cy="550" rx="43" ry="68" fill="#D8ECEB" stroke="#1696A3" stroke-width="4"/><ellipse cx="692" cy="550" rx="43" ry="68" fill="#D8ECEB" stroke="#1696A3" stroke-width="4"/><path d="M650 570 C622 535 590 590 650 635 C710 590 678 535 650 570Z" fill="#F4DDD9" stroke="#B2473F" stroke-width="4"/><ellipse cx="650" cy="710" rx="80" ry="55" fill="#ECE5F4" stroke="#76659A" stroke-width="4"/><path d="M563.9 520 L475 880" stroke="#2B2E34" stroke-width="27" stroke-linecap="round"/><path d="M736.1 520 L825 880" stroke="#2B2E34" stroke-width="27" stroke-linecap="round"/><path d="M585 689 L572 1130" stroke="#C45A3C" stroke-width="32" stroke-linecap="round"/><path d="M715 689 L728 1130" stroke="#C45A3C" stroke-width="32" stroke-linecap="round"/><circle cx="1030" cy="360" r="74" fill="#E8E1D1" stroke="#1D4E7A" stroke-width="4"/><path d="M943.9 459 Q1030 429 1116.1 459 L1102.324 689 Q1030 729 957.676 689 Z" fill="#FFFDF8" stroke="#2B2E34" stroke-width="5"/><ellipse cx="988" cy="550" rx="43" ry="68" fill="#D8ECEB" stroke="#1696A3" stroke-width="4"/><ellipse cx="1072" cy="550" rx="43" ry="68" fill="#D8ECEB" stroke="#1696A3" stroke-width="4"/><path d="M1030 570 C1002 535 970 590 1030 635 C1090 590 1058 535 1030 570Z" fill="#F4DDD9" stroke="#B2473F" stroke-width="4"/><ellipse cx="1030" cy="710" rx="80" ry="55" fill="#ECE5F4" stroke="#76659A" stroke-width="4"/><path d="M943.9 520 L855 880" stroke="#2B2E34" stroke-width="27" stroke-linecap="round"/><path d="M1116.1 520 L1205 880" stroke="#2B2E34" stroke-width="27" stroke-linecap="round"/><path d="M965 689 L952 1130" stroke="#C45A3C" stroke-width="32" stroke-linecap="round"/><path d="M1095 689 L1108 1130" stroke="#C45A3C" stroke-width="32" stroke-linecap="round"/><text x="72" y="1150" font-family="Arial" font-size="20" fill="#6A727A">HEX-A021-206 · Hexápode · avançado</text></svg>