<svg xmlns="http://www.w3.org/2000/svg" viewBox="0 0 1600 1200" role="img" aria-labelledby="t d"><title id="t">Coração</title><desc id="d">Prancha vetorial da anatomia cardíaca com quatro câmaras e grandes vasos.</desc><rect width="1600" height="1200" fill="#F7F4EC"/><text x="90" y="120" font-family="Georgia" font-size="62" fill="#2B2E34">Coração</text><text x="90" y="170" font-family="Arial" font-size="24" fill="#6A727A">Quatro câmaras, válvulas e grandes vasos</text><line x1="90" y1="205" x2="1510" y2="205" stroke="#DCD2BE" stroke-width="3"/><g transform="translate(210 275)"><path d="M470 120 C360 20 190 70 155 230 C110 430 250 650 470 815 C690 650 835 430 785 230 C750 70 575 20 470 120Z" fill="#F2D2CC" stroke="#2B2E34" stroke-width="7"/><path d="M470 130 L470 760" stroke="#2B2E34" stroke-width="6"/><path d="M170 330 H770" stroke="#2B2E34" stroke-width="5"/><path d="M250 180 C220 60 260 0 310 -70" fill="none" stroke="#1D4E7A" stroke-width="45"/><path d="M610 180 C620 20 700 -30 760 -80" fill="none" stroke="#B2473F" stroke-width="45"/><path d="M230 450 C320 390 400 405 470 470" fill="none" stroke="#1D4E7A" stroke-width="18"/><path d="M710 450 C620 390 540 405 470 470" fill="none" stroke="#B2473F" stroke-width="18"/><text x="245" y="300" font-family="Arial" font-size="28" fill="#1D4E7A">AD</text><text x="595" y="300" font-family="Arial" font-size="28" fill="#B2473F">AE</text><text x="245" y="600" font-family="Arial" font-size="28" fill="#1D4E7A">VD</text><text x="595" y="600" font-family="Arial" font-size="28" fill="#B2473F">VE</text></g><g transform="translate(1050 330)" font-family="Arial"><rect width="390" height="430" rx="28" fill="#FFFDF8" stroke="#DCD2BE" stroke-width="4"/><text x="35" y="70" font-size="30" font-weight="700" fill="#1D4E7A">FLUXO</text><text x="40" y="145" font-size="25" fill="#2B2E34">veias cavas → AD → VD</text><text x="40" y="210" font-size="25" fill="#2B2E34">artéria pulmonar → pulmões</text><text x="40" y="275" font-size="25" fill="#2B2E34">veias pulmonares → AE</text><text x="40" y="340" font-size="25" fill="#2B2E34">VE → aorta → tecidos</text></g><text x="90" y="1115" font-family="Arial" font-size="20" fill="#6A727A">HEX-G018-171 · Hexápode · Cardiologia</text></svg>