<svg xmlns="http://www.w3.org/2000/svg" viewBox="0 0 1600 1200" role="img" aria-labelledby="t d"><title id="t">Grid editorial aplicado</title><desc id="d">Malha de 12 colunas, espaçamento e adaptações responsivas para atlas e painéis.</desc><rect width="1600" height="1200" fill="#F7F4EC"/><text x="72" y="90" font-family="Arial" font-size="24" font-weight="700" fill="#1D4E7A">HEXÁPODE · CAMADA AVANÇADA</text><text x="72" y="162" font-family="Georgia" font-size="58" font-weight="700" fill="#2B2E34">Grid editorial aplicado</text><text x="74" y="208" font-family="Arial" font-size="24" fill="#6A727A">Malha de 12 colunas, espaçamento e adaptações responsivas para atlas e painéis.</text><line x1="72" y1="238" x2="1528" y2="238" stroke="#DCD2BE" stroke-width="3"/><rect x="80" y="290" width="300" height="700" rx="22" fill="#FFFDF8" stroke="#DCD2BE" stroke-width="3"/><text x="104" y="334" font-family="Arial" font-size="25" font-weight="700" fill="#1D4E7A">Regras de grid</text><rect x="1240" y="290" width="280" height="700" rx="22" fill="#FFFDF8" stroke="#DCD2BE" stroke-width="3"/><text x="1264" y="334" font-family="Arial" font-size="25" font-weight="700" fill="#1D4E7A">Responsivo</text><rect x="430" y="300" width="760" height="620" fill="#FFFDF8" stroke="#1D4E7A" stroke-width="4"/><line x1="430.0" y1="300" x2="430.0" y2="920" stroke="#BFD1E0" stroke-width="2" stroke-dasharray="8 8"/><line x1="493.3333333333333" y1="300" x2="493.3333333333333" y2="920" stroke="#BFD1E0" stroke-width="2" stroke-dasharray="8 8"/><line x1="556.6666666666666" y1="300" x2="556.6666666666666" y2="920" stroke="#BFD1E0" stroke-width="2" stroke-dasharray="8 8"/><line x1="620.0" y1="300" x2="620.0" y2="920" stroke="#BFD1E0" stroke-width="2" stroke-dasharray="8 8"/><line x1="683.3333333333334" y1="300" x2="683.3333333333334" y2="920" stroke="#BFD1E0" stroke-width="2" stroke-dasharray="8 8"/><line x1="746.6666666666667" y1="300" x2="746.6666666666667" y2="920" stroke="#BFD1E0" stroke-width="2" stroke-dasharray="8 8"/><line x1="810.0" y1="300" x2="810.0" y2="920" stroke="#BFD1E0" stroke-width="2" stroke-dasharray="8 8"/><line x1="873.3333333333333" y1="300" x2="873.3333333333333" y2="920" stroke="#BFD1E0" stroke-width="2" stroke-dasharray="8 8"/><line x1="936.6666666666667" y1="300" x2="936.6666666666667" y2="920" stroke="#BFD1E0" stroke-width="2" stroke-dasharray="8 8"/><line x1="1000.0" y1="300" x2="1000.0" y2="920" stroke="#BFD1E0" stroke-width="2" stroke-dasharray="8 8"/><line x1="1063.3333333333335" y1="300" x2="1063.3333333333335" y2="920" stroke="#BFD1E0" stroke-width="2" stroke-dasharray="8 8"/><line x1="1126.6666666666665" y1="300" x2="1126.6666666666665" y2="920" stroke="#BFD1E0" stroke-width="2" stroke-dasharray="8 8"/><line x1="1190.0" y1="300" x2="1190.0" y2="920" stroke="#BFD1E0" stroke-width="2" stroke-dasharray="8 8"/><rect x="465" y="365" width="175" height="180" rx="18" fill="#1D4E7A" opacity=".18" stroke="#1D4E7A" stroke-width="3"/><rect x="660" y="365" width="220" height="180" rx="18" fill="#1696A3" opacity=".18" stroke="#1696A3" stroke-width="3"/><rect x="900" y="365" width="250" height="180" rx="18" fill="#D39A2E" opacity=".18" stroke="#D39A2E" stroke-width="3"/><rect x="465" y="575" width="380" height="250" rx="18" fill="#2E7D69" opacity=".18" stroke="#2E7D69" stroke-width="3"/><rect x="870" y="575" width="280" height="250" rx="18" fill="#76659A" opacity=".18" stroke="#76659A" stroke-width="3"/><text x="72" y="1150" font-family="Arial" font-size="20" fill="#6A727A">HEX-A021-207 · Hexápode · avançado</text></svg>