<svg xmlns="http://www.w3.org/2000/svg" viewBox="0 0 1600 1200" role="img"><title>Dobutamina</title><rect width="1600" height="1200" fill="#F7F4EC"/><text x="72" y="92" font-family="Arial" font-size="25" font-weight="700" fill="#1D4E7A">HEXÁPODE · FARMACOLOGIA</text><text x="72" y="165" font-family="Georgia" font-size="62" fill="#2B2E34">Dobutamina</text><text x="74" y="210" font-family="Arial" font-size="25" fill="#6A727A">Inotrópico beta-1 predominante</text><line x1="72" y1="240" x2="1528" y2="240" stroke="#DCD2BE" stroke-width="3"/><rect x="80" y="290" width="430" height="680" rx="28" fill="#FFFDF8" stroke="#DCD2BE"/><path d="M285 435C210 350 140 440 285 620C430 440 360 350 285 435Z" fill="#2E7D69" opacity=".22" stroke="#2E7D69" stroke-width="7"/><path d="M170 760C260 680 330 690 400 610" fill="none" stroke="#2E7D69" stroke-width="14"/><polygon points="400,610 365,605 385,640" fill="#2E7D69"/><text x="285" y="840" text-anchor="middle" font-family="Arial" font-size="30" fill="#2B2E34">contratilidade</text><rect x="560" y="290" width="960" height="280" rx="28" fill="#FFFDF8" stroke="#DCD2BE"/><text x="610" y="355" font-family="Arial" font-size="28" font-weight="700" fill="#2E7D69">MECANISMO</text><text x="610" y="430" font-family="Arial" font-size="30" fill="#2B2E34">estimulação β1 → maior força sistólica</text><path d="M630 500H1430" stroke="#2E7D69" stroke-width="10"/><polygon points="1430,500 1388,475 1388,525" fill="#2E7D69"/><rect x="560" y="620" width="455" height="350" rx="28" fill="#FFFDF8" stroke="#DCD2BE"/><text x="610" y="690" font-family="Arial" font-size="28" font-weight="700" fill="#2E7D69">EFEITO-ALVO</text><text x="610" y="780" font-family="Arial" font-size="30" fill="#2B2E34">↑ débito cardíaco</text><text x="610" y="840" font-family="Arial" font-size="25" fill="#6A727A">quando há baixo fluxo com pressão suficiente</text><rect x="1065" y="620" width="455" height="350" rx="28" fill="#FFFDF8" stroke="#DCD2BE"/><text x="1115" y="690" font-family="Arial" font-size="28" font-weight="700" fill="#D39A2E">CAUTELAS</text><text x="1115" y="780" font-family="Arial" font-size="27" fill="#2B2E34">taquiarritmia · hipotensão</text><text x="72" y="1145" font-family="Arial" font-size="20" fill="#6A727A">HEX-G015-143 · Hexápode · Farmacologia</text></svg>