<svg xmlns="http://www.w3.org/2000/svg" viewBox="0 0 1600 1200" role="img" aria-labelledby="t d"><title id="t">Hexápode — Traqueia</title><desc id="d">Traqueia esquemática com anéis cartilaginosos, parede posterior membranosa e carina.</desc><rect width="1600" height="1200" fill="#F7F4EC"/><text x="70" y="95" font-family="serif" font-size="58" fill="#2B2E34">Hexápode — Traqueia</text><text x="72" y="140" font-family="sans-serif" font-size="24" fill="#6A727A">Anéis cartilaginosos, parede posterior e carina</text><g transform="translate(510 210)"><path d="M290 0 C230 20 210 90 210 160 V570 C210 650 165 690 90 735" fill="none" stroke="#1D4E7A" stroke-width="70" stroke-linecap="round"/><path d="M290 0 C350 20 370 90 370 160 V570 C370 650 415 690 490 735" fill="none" stroke="#1D4E7A" stroke-width="70" stroke-linecap="round"/><path d="M290 0 V585" stroke="#E8E1D1" stroke-width="40"/><g stroke="#1696A3" stroke-width="13" fill="none"><path d="M215 90 H365"/><path d="M215 145 H365"/><path d="M215 200 H365"/><path d="M215 255 H365"/><path d="M215 310 H365"/><path d="M215 365 H365"/><path d="M215 420 H365"/><path d="M215 475 H365"/><path d="M215 530 H365"/></g><path d="M250 570 Q290 625 330 570" fill="none" stroke="#C45A3C" stroke-width="18"/></g><g font-family="sans-serif" font-size="25" fill="#2B2E34"><text x="180" y="330">Anéis em C</text><path d="M360 320 H650" stroke="#D39A2E" stroke-width="4"/><text x="1130" y="620">Carina</text><path d="M1095 610 H885" stroke="#D39A2E" stroke-width="4"/><text x="180" y="700">Parede membranosa posterior</text></g><text x="70" y="1135" font-family="monospace" font-size="23" fill="#6A727A">HEX-G002-011 · CANONICAL</text></svg>