<svg xmlns="http://www.w3.org/2000/svg" viewBox="0 0 1600 1200" role="img" aria-labelledby="t d"><title id="t">Escalas visuais</title><desc id="d">Prancha vetorial ligando corpo, órgão, tecido, célula, organela e molécula.</desc><rect width="1600" height="1200" fill="#F7F4EC"/><text x="80" y="110" font-family="Georgia" font-size="64" fill="#2B2E34">Escalas visuais</text><text x="80" y="160" font-family="Arial" font-size="25" fill="#6A727A">Do organismo à molécula sem perder contexto</text><line x1="80" y1="200" x2="1520" y2="200" stroke="#DCD2BE" stroke-width="3"/><g transform="translate(80 300)" font-family="Arial" text-anchor="middle"><g transform="translate(0 0)"><circle cx="130" cy="250" r="120" fill="#E8E1D1" stroke="#2B2E34" stroke-width="5"/><circle cx="130" cy="155" r="28" fill="#C45A3C"/><rect x="105" y="185" width="50" height="145" rx="24" fill="#C45A3C"/><path d="M105 225 L55 300 M155 225 L205 300 M115 325 L80 410 M145 325 L180 410" stroke="#C45A3C" stroke-width="20" stroke-linecap="round"/><text x="130" y="470" font-size="26" font-weight="700" fill="#2B2E34">CORPO</text></g><g transform="translate(245 0)"><circle cx="130" cy="250" r="105" fill="#F3E2D8" stroke="#B2473F" stroke-width="5"/><path d="M130 160 C60 200 75 315 130 350 C185 315 200 200 130 160Z" fill="#B2473F"/><text x="130" y="470" font-size="26" font-weight="700" fill="#2B2E34">ÓRGÃO</text></g><g transform="translate(490 0)"><circle cx="130" cy="250" r="92" fill="#D8E5F2" stroke="#1D4E7A" stroke-width="5"/><g fill="#F1C9B8" stroke="#2B2E34" stroke-width="3"><circle cx="90" cy="220" r="28"/><circle cx="145" cy="200" r="28"/><circle cx="180" cy="250" r="28"/><circle cx="120" cy="280" r="28"/></g><text x="130" y="470" font-size="26" font-weight="700" fill="#2B2E34">TECIDO</text></g><g transform="translate(735 0)"><circle cx="130" cy="250" r="78" fill="#F1C9B8" stroke="#2B2E34" stroke-width="5"/><circle cx="130" cy="250" r="30" fill="#1D4E7A"/><text x="130" y="470" font-size="26" font-weight="700" fill="#2B2E34">CÉLULA</text></g><g transform="translate(980 0)"><circle cx="130" cy="250" r="62" fill="#F6E8C4" stroke="#D39A2E" stroke-width="5"/><path d="M90 250 Q130 190 170 250 Q130 310 90 250" fill="none" stroke="#B2473F" stroke-width="8"/><text x="130" y="470" font-size="26" font-weight="700" fill="#2B2E34">ORGANELA</text></g><g transform="translate(1225 0)"><g stroke="#1696A3" stroke-width="8"><line x1="65" y1="250" x2="125" y2="205"/><line x1="125" y1="205" x2="185" y2="250"/><line x1="185" y1="250" x2="125" y2="305"/><line x1="125" y1="305" x2="65" y2="250"/></g><g fill="#2E7D69"><circle cx="65" cy="250" r="22"/><circle cx="125" cy="205" r="22"/><circle cx="185" cy="250" r="22"/><circle cx="125" cy="305" r="22"/></g><text x="130" y="470" font-size="26" font-weight="700" fill="#2B2E34">MOLÉCULA</text></g></g><path d="M170 860 H1430" stroke="#1696A3" stroke-width="12"/><polygon points="1430,860 1380,830 1380,890" fill="#1696A3"/><g font-family="Arial" font-size="24" fill="#6A727A"><text x="155" y="925">metros</text><text x="425" y="925">centímetros</text><text x="720" y="925">milímetros</text><text x="1000" y="925">micrômetros</text><text x="1290" y="925">nanômetros</text></g><text x="80" y="1140" font-family="Arial" font-size="21" fill="#6A727A">HEX-G020-199 · Hexápode · Biblioteca Universal</text></svg>