<svg xmlns="http://www.w3.org/2000/svg" viewBox="0 0 1600 1200" role="img"><title>Corpo infantil esquemático</title><rect width="1600" height="1200" fill="#F7F4EC"/><text x="70" y="100" font-size="58" fill="#2B2E34">Hexápode — Corpo infantil</text><g fill="#EDE4CE" stroke="#2B2E34" stroke-width="7"><circle cx="350" cy="390" r="75"/><rect x="285" y="475" width="130" height="230" rx="45"/><path d="M315 705 L300 900 M385 705 L400 900"/><circle cx="800" cy="330" r="65"/><rect x="725" y="405" width="150" height="330" rx="45"/><path d="M760 735 L735 1010 M840 735 L865 1010"/><circle cx="1250" cy="280" r="55"/><rect x="1170" y="345" width="160" height="390" rx="45"/><path d="M1210 735 L1180 1040 M1290 735 L1320 1040"/></g><text x="270" y="970" font-size="28">Lactente</text><text x="740" y="1080" font-size="28">Criança</text><text x="1180" y="1100" font-size="28">Adolescente</text><text x="70" y="1130" font-size="24" fill="#6A727A">HEX-G001-006</text></svg>