<svg xmlns="http://www.w3.org/2000/svg" viewBox="0 0 1600 1200" role="img"><title>HEX-G010-099 — Edema pulmonar</title><desc>Transudação intersticial e preenchimento alveolar por líquido.</desc><rect width="1600" height="1200" fill="#F7F4EC"/><text x="90" y="120" font-family="serif" font-size="72" fill="#2B2E34">Edema pulmonar</text><text x="90" y="175" font-family="sans-serif" font-size="28" fill="#6A727A">pressão hidrostática • interstício • alvéolo inundado</text><g transform="translate(240 250)"><path d="M420 80C190 90 40 280 70 630s190 430 430 330V180C470 110 445 80 420 80Z" fill="#E8E1D1" stroke="#2B2E34" stroke-width="10"/><path d="M590 180v780c240 100 400 20 430-330s-110-540-330-550c-45 0-70 30-100 100Z" fill="#E8E1D1" stroke="#2B2E34" stroke-width="10"/><g fill="#1696A3" opacity=".55"><circle cx="360" cy="520" r="115"/><circle cx="450" cy="730" r="120"/><circle cx="860" cy="520" r="120"/><circle cx="760" cy="750" r="130"/></g><path d="M890 340l180-100" stroke="#1D4E7A" stroke-width="16"/><text x="1080" y="240" font-family="sans-serif" font-size="28" fill="#2B2E34">líquido intersticial/alveolar</text></g></svg>