<svg xmlns="http://www.w3.org/2000/svg" viewBox="0 0 1600 1200" role="img"><title>HEX-G010-095 — Pneumotórax</title><desc>Ar no espaço pleural comprimindo o pulmão ipsilateral.</desc><rect width="1600" height="1200" fill="#F7F4EC"/><text x="90" y="120" font-family="serif" font-size="72" fill="#2B2E34">Pneumotórax</text><text x="90" y="175" font-family="sans-serif" font-size="28" fill="#6A727A">ar pleural • perda da pressão negativa • colapso</text><g transform="translate(230 250)"><path d="M420 90C190 100 40 290 70 650s210 420 440 320V190C485 120 460 90 420 90Z" fill="#E8E1D1" stroke="#2B2E34" stroke-width="10"/><path d="M600 190v780c230 100 410 40 440-320s-120-550-350-560c-40 0-65 30-90 100Z" fill="#1696A3" opacity=".22" stroke="#2B2E34" stroke-width="10"/><path d="M725 270q160 80 120 420q-40 170-170 190V310Z" fill="#C45A3C" opacity=".7"/><path d="M920 350l150-90" stroke="#D39A2E" stroke-width="16"/><text x="1080" y="260" font-family="sans-serif" font-size="28" fill="#2B2E34">ar na cavidade pleural</text><text x="840" y="920" font-family="sans-serif" font-size="27" fill="#B2473F">pulmão comprimido</text></g></svg>