<svg xmlns="http://www.w3.org/2000/svg" viewBox="0 0 1600 1200" role="img"><title>Hipercalemia</title><rect width="1600" height="1200" fill="#F7F4EC"/><text x="72" y="98" font-family="Arial" font-size="26" font-weight="700" fill="#1D4E7A">HEXÁPODE</text><text x="72" y="166" font-family="Georgia" font-size="58" font-weight="700" fill="#2B2E34">Hipercalemia</text><text x="74" y="210" font-family="Arial" font-size="24" fill="#6A727A">Potássio elevado e instabilidade da condução elétrica</text><line x1="72" y1="238" x2="1528" y2="238" stroke="#DCD2BE" stroke-width="3"/><rect x="72" y="275" width="1456" height="760" rx="24" fill="#FFFDF8" stroke="#DCD2BE" stroke-width="2"/><rect x="160" y="365" width="520" height="180" rx="90" fill="#F4DDD9" stroke="#B2473F" stroke-width="5"/><line x1="185" y1="455" x2="655" y2="455" stroke="#1696A3" stroke-width="12"/><circle cx="420" cy="455" r="48" fill="#B2473F" stroke="#2B2E34" stroke-width="4"/><text x="420" y="466" font-family="Arial" font-size="30" font-weight="800" fill="#FFFDF8" text-anchor="middle">K⁺</text><path d="M170 760 L270 760 L320 742 L365 785 L420 760 L500 760 L545 625 L595 880 L650 715 L710 760 L800 760 L860 740 L920 790 L980 760 L1120 760" fill="none" stroke="#B2473F" stroke-width="10"/><text x="650" y="615" font-family="Arial" font-size="24" font-weight="700" fill="#B2473F" text-anchor="middle">progressão de alterações elétricas</text><rect x="1030" y="345" width="390" height="330" rx="24" fill="#F7F4EC" stroke="#DCD2BE" stroke-width="2"/><text x="1070" y="405" font-family="Arial" font-size="24" font-weight="700" fill="#1D4E7A">PADRÃO ESQUEMÁTICO</text><text x="1070" y="475" font-family="Arial" font-size="23" fill="#2B2E34">T mais alta</text><text x="1070" y="525" font-family="Arial" font-size="23" fill="#2B2E34">PR mais longo</text><text x="1070" y="575" font-family="Arial" font-size="23" fill="#2B2E34">QRS mais largo</text><text x="1070" y="625" font-family="Arial" font-size="23" fill="#2B2E34">risco de arritmia</text><text x="72" y="1152" font-family="Arial" font-size="20" fill="#6A727A">HEX-G014-138 · Nefrologia · Cardio · Emergências</text></svg>