<svg xmlns="http://www.w3.org/2000/svg" width="1600" height="1200" viewBox="0 0 1600 1200" role="img" aria-labelledby="t d"><title id="t">Hexápode — Resistência</title><desc id="d">Oposição ao fluxo nas vias aéreas determinada por pressão, fluxo e calibre.</desc><rect width="1600" height="1200" fill="#F7F4EC"/><rect x="32" y="32" width="1536" height="1136" rx="18" fill="none" stroke="#DCD2BE" stroke-width="3"/><text x="72" y="115" font-family="Georgia" font-size="62" fill="#2B2E34">Hexápode — Resistência</text><text x="74" y="165" font-family="Arial" font-size="24" letter-spacing="4" fill="#6A727A">MECÂNICA RESPIRATÓRIA · ATIVO CANÔNICO</text><line x1="70" y1="205" x2="1530" y2="205" stroke="#DCD2BE" stroke-width="3"/><rect x="70" y="245" width="790" height="690" rx="20" fill="#FCFAF5" stroke="#DCD2BE" stroke-width="3"/><text x="145" y="315" font-family="Arial" font-size="24" fill="#1D4E7A">Baixa resistência</text><rect x="150" y="350" width="600" height="130" rx="65" fill="#E8F3F4" stroke="#1696A3" stroke-width="6"/><path d="M190 415h500" stroke="#1696A3" stroke-width="12"/><polygon points="700,415 665,395 665,435" fill="#1696A3"/><text x="145" y="565" font-family="Arial" font-size="24" fill="#B2473F">Alta resistência</text><path d="M150 600Q300 570 400 640T750 680V780Q500 800 400 730T150 700z" fill="#F6E7E3" stroke="#B2473F" stroke-width="6"/><path d="M190 690C360 620 500 780 690 710" fill="none" stroke="#C45A3C" stroke-width="10"/><polygon points="700,710 665,690 670,730" fill="#C45A3C"/><rect x="900" y="245" width="630" height="690" rx="20" fill="#FCFAF5" stroke="#DCD2BE" stroke-width="3"/><text x="940" y="300" font-family="Arial" font-size="22" font-weight="bold" fill="#1D4E7A">RELAÇÕES-CHAVE</text><text x="940" y="390" font-family="Arial" font-size="31" fill="#2B2E34">R = ΔP / Fluxo</text><text x="940" y="505" font-family="Arial" font-size="31" fill="#2B2E34">Raio da via aérea</text><text x="940" y="620" font-family="Arial" font-size="31" fill="#2B2E34">Fluxo turbulento</text><rect x="70" y="975" width="1460" height="130" rx="14" fill="#E8E1D1"/><text x="105" y="1025" font-family="Arial" font-size="22" font-weight="bold" fill="#2B2E34">FUNÇÃO DIDÁTICA</text><text x="105" y="1065" font-family="Arial" font-size="24" fill="#2B2E34">Compara via aérea ampla e estreitada, relacionando calibre, fluxo e gradiente pressórico.</text><text x="1290" y="1070" font-family="Arial" font-size="20" fill="#6A727A">HEX-G004-038</text></svg>