<svg xmlns="http://www.w3.org/2000/svg" width="1600" height="1200" viewBox="0 0 1600 1200" role="img" aria-labelledby="title desc"><defs><marker id="arrow" markerWidth="12" markerHeight="12" refX="10" refY="6" orient="auto"><path d="M0,0 L12,6 L0,12 z" fill="#2e7d69"/></marker></defs><title id="title">Hexápode — Lobos pulmonares</title><desc id="desc">Pulmões esquemáticos com três lobos à direita, dois à esquerda e fissuras identificadas.</desc><rect width="1600" height="1200" fill="#F7F4EC"/><rect x="32" y="32" width="1536" height="1136" rx="18" fill="none" stroke="#DCD2BE" stroke-width="3"/><text x="72" y="115" font-family="Georgia,serif" font-size="62" fill="#2B2E34">Hexápode — Lobos pulmonares</text><text x="74" y="165" font-family="Arial,sans-serif" font-size="24" letter-spacing="4" fill="#6A727A">ANATOMIA RESPIRATÓRIA II · ATIVO CANÔNICO</text><line x1="70" y1="205" x2="1530" y2="205" stroke="#DCD2BE" stroke-width="3"/><rect x="70" y="245" width="790" height="690" rx="20" fill="#FCFAF5" stroke="#DCD2BE" stroke-width="3"/><path d="M360 250 C250 260 210 390 245 560 C270 680 350 720 410 650 L410 300 Z" fill="#d77a6d" stroke="#2b2e34" stroke-width="6"/><path d="M520 300 L520 650 C590 720 670 675 690 555 C720 390 680 260 570 250 Z" fill="#c96a62" stroke="#2b2e34" stroke-width="6"/><path d="M245 430 L410 410 M260 535 L410 500 M520 420 L690 445" stroke="#f7f4ec" stroke-width="8"/><rect x="890" y="245" width="640" height="690" rx="20" fill="#FCFAF5" stroke="#DCD2BE" stroke-width="3"/><text x="930" y="285" font-family="Arial" font-size="22" font-weight="bold" fill="#1D4E7A">ESTRUTURAS E RELAÇÕES</text><text x="930" y="300" font-family="Arial" font-size="30" fill="#2b2e34">Pulmão direito: 3 lobos</text><line x1="860" y1="290" x2="910" y2="290" stroke="#1d4e7a" stroke-width="8"/><text x="930" y="390" font-family="Arial" font-size="30" fill="#2b2e34">Pulmão esquerdo: 2 lobos</text><line x1="860" y1="380" x2="910" y2="380" stroke="#1696a3" stroke-width="8"/><text x="930" y="480" font-family="Arial" font-size="30" fill="#2b2e34">Fissuras</text><line x1="860" y1="470" x2="910" y2="470" stroke="#c45a3c" stroke-width="8"/><rect x="70" y="975" width="1460" height="130" rx="14" fill="#E8E1D1"/><text x="105" y="1025" font-family="Arial" font-size="22" font-weight="bold" fill="#2B2E34">FUNÇÃO DIDÁTICA</text><text x="105" y="1065" font-family="Arial" font-size="25" fill="#2B2E34">Pulmões esquemáticos com três lobos à direita, dois à esquerda e fissuras identificadas.</text><text x="1290" y="1070" font-family="Arial" font-size="20" fill="#6A727A">HEX-G003-021</text></svg>