<svg xmlns="http://www.w3.org/2000/svg" viewBox="0 0 1600 1200" role="img"><title>Anafilaxia</title><rect width="1600" height="1200" fill="#F7F4EC"/><text x="72" y="98" font-family="Arial" font-size="26" font-weight="700" fill="#1D4E7A">HEXÁPODE</text><text x="72" y="166" font-family="Georgia" font-size="58" font-weight="700" fill="#2B2E34">Anafilaxia</text><text x="74" y="210" font-family="Arial" font-size="24" fill="#6A727A">Reação sistêmica imediata: pele, via aérea e circulação</text><line x1="72" y1="238" x2="1528" y2="238" stroke="#DCD2BE" stroke-width="3"/><rect x="72" y="275" width="1456" height="760" rx="24" fill="#FFFDF8" stroke="#DCD2BE" stroke-width="2"/><circle cx="300" cy="425" r="65" fill="#E8E1D1" stroke="#2B2E34" stroke-width="4"/><rect x="240" y="492" width="120" height="260" rx="52" fill="#E8E1D1" stroke="#2B2E34" stroke-width="4"/><circle cx="300" cy="540" r="155" fill="#F6E8C4" stroke="#D39A2E" stroke-width="4" opacity="0.55"/><path d="M650 385 L650 480" stroke="#1696A3" stroke-width="12"/><path d="M650 430 C600 460 570 495 550 545" fill="none" stroke="#1696A3" stroke-width="8"/><path d="M650 430 C700 460 730 495 750 545" fill="none" stroke="#1696A3" stroke-width="8"/><path d="M640 455 C520 420 500 510 535 680 C570 780 625 720 640 580Z" fill="#D9EEF0" stroke="#1696A3" stroke-width="5"/><path d="M660 455 C780 420 800 510 765 680 C730 780 675 720 660 580Z" fill="#D9EEF0" stroke="#1696A3" stroke-width="5"/><path d="M940 390 C1020 470 1020 590 940 680 C860 590 860 470 940 390Z" fill="#F4DDD9" stroke="#B2473F" stroke-width="5"/><text x="940" y="735" font-family="Arial" font-size="25" font-weight="700" fill="#B2473F" text-anchor="middle">vasodilatação</text><rect x="1100" y="345" width="330" height="500" rx="24" fill="#F7F4EC" stroke="#DCD2BE" stroke-width="2"/><text x="1140" y="405" font-family="Arial" font-size="24" font-weight="700" fill="#B2473F">EIXOS</text><text x="1140" y="475" font-family="Arial" font-size="23" fill="#D39A2E">pele / mucosa</text><text x="1140" y="535" font-family="Arial" font-size="23" fill="#1696A3">via aérea / pulmão</text><text x="1140" y="595" font-family="Arial" font-size="23" fill="#B2473F">circulação</text><text x="1140" y="655" font-family="Arial" font-size="23" fill="#6A727A">início rápido</text><text x="1140" y="715" font-family="Arial" font-size="23" fill="#6A727A">progressão variável</text><text x="72" y="1152" font-family="Arial" font-size="20" fill="#6A727A">HEX-G014-135 · Emergências · Alergia · Pediatria</text></svg>