<svg xmlns="http://www.w3.org/2000/svg" viewBox="0 0 1600 1200" role="img" aria-labelledby="t d"><title id="t">Pressões respiratórias</title><desc id="d">Gradientes entre pressão atmosférica, alveolar e pleural.</desc><rect width="1600" height="1200" fill="#F7F4EC"/><text x="90" y="120" font-family="Georgia" font-size="62" fill="#2B2E34">Pressões respiratórias</text><text x="90" y="170" font-family="Arial" font-size="24" fill="#6A727A">O fluxo depende do gradiente de pressão</text><line x1="90" y1="205" x2="1510" y2="205" stroke="#DCD2BE" stroke-width="3"/><g transform="translate(170 300)"><rect x="0" y="0" width="360" height="560" rx="24" fill="#FFFDF8" stroke="#DCD2BE" stroke-width="4"/><text x="180" y="70" text-anchor="middle" font-family="Arial" font-size="28" fill="#1D4E7A">Atmosférica</text><circle cx="180" cy="300" r="120" fill="#E8E1D1" stroke="#2B2E34" stroke-width="6"/><text x="180" y="315" text-anchor="middle" font-family="Arial" font-size="60" fill="#2B2E34">0</text><rect x="450" y="0" width="360" height="560" rx="24" fill="#FFFDF8" stroke="#DCD2BE" stroke-width="4"/><text x="630" y="70" text-anchor="middle" font-family="Arial" font-size="28" fill="#1D4E7A">Alveolar</text><circle cx="630" cy="300" r="120" fill="#D8EEF0" stroke="#1696A3" stroke-width="6"/><text x="630" y="315" text-anchor="middle" font-family="Arial" font-size="60" fill="#1696A3">−1</text><rect x="900" y="0" width="360" height="560" rx="24" fill="#FFFDF8" stroke="#DCD2BE" stroke-width="4"/><text x="1080" y="70" text-anchor="middle" font-family="Arial" font-size="28" fill="#1D4E7A">Pleural</text><circle cx="1080" cy="300" r="120" fill="#F3E2D8" stroke="#C45A3C" stroke-width="6"/><text x="1080" y="315" text-anchor="middle" font-family="Arial" font-size="60" fill="#C45A3C">−5</text><path d="M360 300 H450" stroke="#1696A3" stroke-width="16"/><polygon points="450,300 410,275 410,325" fill="#1696A3"/><text x="410" y="650" text-anchor="middle" font-family="Arial" font-size="28" fill="#2B2E34">gradiente gera fluxo</text></g><text x="90" y="1120" font-family="Arial" font-size="20" fill="#6A727A">HEX-A024-234 · Hexápode · Mecânica Respiratória Avançada</text></svg>