<svg xmlns="http://www.w3.org/2000/svg" width="1600" height="1200" viewBox="0 0 1600 1200" role="img" aria-labelledby="t d"><title id="t">Hexápode — HFOV</title><desc id="d">Ventilação oscilatória de alta frequência com pequenos volumes em torno de pressão média.</desc><rect width="1600" height="1200" fill="#F7F4EC"/><text x="85" y="120" font-family="Georgia" font-size="62" fill="#2B2E34">Hexápode — HFOV</text><text x="88" y="168" font-family="Arial" font-size="24" fill="#1D4E7A">VENTILAÇÃO OSCILATÓRIA DE ALTA FREQUÊNCIA</text><line x1="85" y1="195" x2="1515" y2="195" stroke="#2B2E34"/><text x="90" y="255" font-family="Arial" font-size="25">Pequenos volumes oscilam em alta frequência ao redor de uma pressão média.</text><rect x="70" y="320" width="700" height="700" rx="18" fill="#FBF9F3" stroke="#DCD2BE"/><text x="105" y="380" font-family="Arial" font-size="24" font-weight="700">OSCILAÇÃO EM ALTA FREQUÊNCIA</text><path d="M150 500 H650" fill="none" stroke="#1D4E7A" stroke-width="5"/><path d="M150 500 L165 470 L180 530 L195 470 L210 530 L225 470 L240 530 L255 470 L270 530 L285 470 L300 530 L315 470 L330 530 L345 470 L360 530 L375 470 L390 530 L405 470 L420 530 L435 470 L450 530 L465 470 L480 530 L495 470 L510 530 L525 470 L540 530 L555 470 L570 530 L585 470 L600 530 L615 470 L630 530 L645 500" fill="none" stroke="#1D4E7A" stroke-width="6"/><path d="M150 660 L165 610 L180 710 L195 610 L210 710 L225 610 L240 710 L255 610 L270 710 L285 610 L300 710 L315 610 L330 710 L345 610 L360 710 L375 610 L390 710 L405 610 L420 710 L435 610 L450 710 L465 610 L480 710 L495 610 L510 710 L525 610 L540 710 L555 610 L570 710 L585 610 L600 710 L615 610 L630 710 L645 660" fill="none" stroke="#1696A3" stroke-width="6"/><path d="M150 850 L165 840 L180 860 L195 840 L210 860 L225 840 L240 860 L255 840 L270 860 L285 840 L300 860 L315 840 L330 860 L345 840 L360 860 L375 840 L390 860 L405 840 L420 860 L435 840 L450 860 L465 840 L480 860 L495 840 L510 860 L525 840 L540 860 L555 840 L570 860 L585 840 L600 860 L615 840 L630 860 L645 850" fill="none" stroke="#C45A3C" stroke-width="6"/><text x="105" y="455" font-family="Arial" font-size="20" fill="#1D4E7A">Pressão média + oscilação</text><text x="105" y="615" font-family="Arial" font-size="20" fill="#1696A3">Fluxo bidirecional ativo</text><text x="105" y="805" font-family="Arial" font-size="20" fill="#C45A3C">Volume corrente muito pequeno</text><rect x="815" y="320" width="715" height="700" rx="18" fill="#FBF9F3" stroke="#DCD2BE"/><text x="850" y="380" font-family="Arial" font-size="24" font-weight="700">VARIÁVEIS-CHAVE</text><circle cx="990" cy="520" r="100" fill="#E8E1D1" stroke="#1D4E7A" stroke-width="4"/><path d="M915 520 L935 480 L955 560 L975 480 L995 560 L1015 480 L1035 560 L1055 480 L1070 520" fill="none" stroke="#1696A3" stroke-width="6"/><text x="1210" y="475" font-family="Arial" font-size="25">mPaw</text><text x="1210" y="525" font-family="Arial" font-size="25">Amplitude</text><text x="1210" y="575" font-family="Arial" font-size="25">Frequência</text><text x="870" y="720" font-family="Arial" font-size="22">Oxigenação depende sobretudo da pressão média.</text><text x="870" y="775" font-family="Arial" font-size="22">Ventilação depende de amplitude e frequência.</text><text x="870" y="830" font-family="Arial" font-size="22">Uso exige equipamento e monitorização específicos.</text><text x="90" y="1110" font-family="Arial" font-size="18" fill="#1D4E7A">HEX-G008-079 · Ventila · Respira · Pediatria</text></svg>