<svg xmlns="http://www.w3.org/2000/svg" viewBox="0 0 1600 1200" role="img" aria-labelledby="t d"><title id="t">Traqueia avançada</title><desc id="d">Traqueia em corte longitudinal e transversal com anéis em C, músculo traqueal, mucosa e carina.</desc><rect width="1600" height="1200" fill="#F7F4EC"/><text x="72" y="90" font-family="Arial" font-size="24" font-weight="700" fill="#1D4E7A">HEXÁPODE · ANATOMIA RESPIRATÓRIA AVANÇADA</text><text x="72" y="158" font-family="Georgia" font-size="54" font-weight="700" fill="#2B2E34">Traqueia avançada</text><text x="74" y="204" font-family="Arial" font-size="22" fill="#6A727A">Traqueia em corte longitudinal e transversal com anéis em C, músculo traqueal, mucosa e carina.</text><line x1="72" y1="236" x2="1528" y2="236" stroke="#DCD2BE" stroke-width="3"/><rect x="70" y="275" width="970" height="750" rx="28" fill="#FFFDF8" stroke="#DCD2BE" stroke-width="3"/><path d="M430 330 C390 500 390 760 430 900" fill="none" stroke="#E8E1D1" stroke-width="130"/><path d="M430 330 C390 500 390 760 430 900" fill="none" stroke="#1696A3" stroke-width="92"/><path d="M430 330 C390 500 390 760 430 900" fill="none" stroke="#FFFDF8" stroke-width="55"/><path d="M340 365 Q430 337 520 365" fill="none" stroke="#1D4E7A" stroke-width="18" stroke-linecap="round"/><path d="M340 430 Q430 402 520 430" fill="none" stroke="#1D4E7A" stroke-width="18" stroke-linecap="round"/><path d="M340 495 Q430 467 520 495" fill="none" stroke="#1D4E7A" stroke-width="18" stroke-linecap="round"/><path d="M340 560 Q430 532 520 560" fill="none" stroke="#1D4E7A" stroke-width="18" stroke-linecap="round"/><path d="M340 625 Q430 597 520 625" fill="none" stroke="#1D4E7A" stroke-width="18" stroke-linecap="round"/><path d="M340 690 Q430 662 520 690" fill="none" stroke="#1D4E7A" stroke-width="18" stroke-linecap="round"/><path d="M340 755 Q430 727 520 755" fill="none" stroke="#1D4E7A" stroke-width="18" stroke-linecap="round"/><path d="M340 820 Q430 792 520 820" fill="none" stroke="#1D4E7A" stroke-width="18" stroke-linecap="round"/><path d="M420 895 L300 990 M420 895 L550 990" stroke="#1696A3" stroke-width="65" stroke-linecap="round"/><circle cx="770" cy="560" r="180" fill="#E8E1D1" stroke="#1D4E7A" stroke-width="5"/><path d="M650 560 A120 120 0 1 1 890 560" fill="none" stroke="#1D4E7A" stroke-width="34"/><path d="M650 560 Q770 700 890 560" fill="none" stroke="#C45A3C" stroke-width="26"/><circle cx="770" cy="560" r="82" fill="#FFFDF8" stroke="#1696A3" stroke-width="7"/><rect x="1080" y="300" width="430" height="700" rx="24" fill="#FFFDF8" stroke="#DCD2BE" stroke-width="3"/><text x="1120" y="360" font-family="Arial" font-size="28" font-weight="700" fill="#1D4E7A">LEITURA ESTRUTURAL</text><circle cx="1135" cy="422" r="13" fill="#1696A3"/><text x="1170" y="430" font-family="Arial" font-size="23" fill="#2B2E34">Anéis cartilaginosos em C</text><line x1="1170" y1="450" x2="1450" y2="450" stroke="#DCD2BE" stroke-width="2"/><circle cx="1135" cy="527" r="13" fill="#1D4E7A"/><text x="1170" y="535" font-family="Arial" font-size="23" fill="#2B2E34">Músculo traqueal</text><line x1="1170" y1="555" x2="1450" y2="555" stroke="#DCD2BE" stroke-width="2"/><circle cx="1135" cy="632" r="13" fill="#C45A3C"/><text x="1170" y="640" font-family="Arial" font-size="23" fill="#2B2E34">Mucosa ciliada</text><line x1="1170" y1="660" x2="1450" y2="660" stroke="#DCD2BE" stroke-width="2"/><circle cx="1135" cy="737" r="13" fill="#2E7D69"/><text x="1170" y="745" font-family="Arial" font-size="23" fill="#2B2E34">Carina</text><line x1="1170" y1="765" x2="1450" y2="765" stroke="#DCD2BE" stroke-width="2"/><text x="72" y="1150" font-family="Arial" font-size="20" fill="#6A727A">HEX-A022-211 · Hexápode · camada avançada</text></svg>