<svg xmlns="http://www.w3.org/2000/svg" viewBox="0 0 1600 1200" role="img"><title>Hexápode — Caixa torácica</title><desc>Caixa torácica esquemática com esterno, costelas e vetores de expansão respiratória.</desc><rect width="1600" height="1200" fill="#F7F4EC"/><text x="70" y="95" font-family="serif" font-size="58" fill="#2B2E34">Hexápode — Caixa torácica</text><text x="72" y="140" font-family="sans-serif" font-size="24" fill="#6A727A">Esterno, costelas, vértebras e mobilidade respiratória</text><g fill="none" stroke="#2B2E34" stroke-width="16"><path d="M800 260 V870"/><path d="M760 250 V900" stroke="#6A727A"/><path d="M800 330 C610 280 440 360 380 510 M800 330 C990 280 1160 360 1220 510"/><path d="M800 420 C590 360 400 460 350 620 M800 420 C1010 360 1200 460 1250 620"/><path d="M800 520 C570 450 360 580 330 730 M800 520 C1030 450 1240 580 1270 730"/><path d="M800 620 C590 570 410 690 390 830 M800 620 C1010 570 1190 690 1210 830"/></g><defs><marker id="a" markerWidth="10" markerHeight="10" refX="9" refY="3" orient="auto"><path d="M0 0 L0 6 L9 3Z" fill="#1696A3"/></marker></defs><g stroke="#1696A3" stroke-width="12" marker-end="url(#a)"><path d="M420 620 L230 520"/><path d="M1180 620 L1370 520"/><path d="M800 760 V960"/></g><g font-family="sans-serif" font-size="27" fill="#2B2E34"><text x="110" y="450">Alça de balde</text><text x="1190" y="450">Alça de balde</text><text x="690" y="1030">Bomba d'água</text><text x="835" y="250">Esterno</text></g><text x="70" y="1135" font-family="monospace" font-size="23" fill="#6A727A">HEX-G002-018 · CANONICAL</text></svg>