<svg xmlns="http://www.w3.org/2000/svg" viewBox="0 0 1600 1200" role="img"><title>Estado asmático</title><rect width="1600" height="1200" fill="#F7F4EC"/><text x="72" y="98" font-family="Arial" font-size="26" font-weight="700" fill="#1D4E7A">HEXÁPODE</text><text x="72" y="166" font-family="Georgia" font-size="58" font-weight="700" fill="#2B2E34">Estado asmático</text><text x="74" y="210" font-family="Arial" font-size="24" fill="#6A727A">Obstrução crítica, aprisionamento e fadiga respiratória</text><line x1="72" y1="238" x2="1528" y2="238" stroke="#DCD2BE" stroke-width="3"/><rect x="72" y="275" width="1456" height="760" rx="24" fill="#FFFDF8" stroke="#DCD2BE" stroke-width="2"/><circle cx="360" cy="510" r="150" fill="#D9EEF0" stroke="#1696A3" stroke-width="8"/><circle cx="360" cy="510" r="82" fill="#FFFDF8" stroke="#1696A3" stroke-width="5"/><text x="360" y="710" font-family="Arial" font-size="25" font-weight="700" fill="#2E7D69" text-anchor="middle">via aérea preservada</text><line x1="535" y1="510" x2="700" y2="510" stroke="#D39A2E" stroke-width="9"/><polygon points="700,510 668,491 668,529" fill="#D39A2E"/><circle cx="900" cy="510" r="150" fill="#F4DDD9" stroke="#B2473F" stroke-width="8"/><circle cx="900" cy="510" r="34" fill="#FFFDF8" stroke="#B2473F" stroke-width="5"/><g fill="#C45A3C"><circle cx="835" cy="450" r="15"/><circle cx="880" cy="420" r="15"/><circle cx="930" cy="440" r="15"/><circle cx="955" cy="490" r="15"/><circle cx="845" cy="550" r="15"/><circle cx="905" cy="575" r="15"/></g><text x="900" y="710" font-family="Arial" font-size="25" font-weight="700" fill="#B2473F" text-anchor="middle">broncoespasmo + muco</text><path d="M1130 690 C1190 520 1310 585 1440 690" fill="none" stroke="#2E7D69" stroke-width="7"/><path d="M1130 690 C1190 610 1290 650 1440 690" fill="none" stroke="#B2473F" stroke-width="7"/><text x="1280" y="445" font-family="Arial" font-size="24" font-weight="700" fill="#1D4E7A" text-anchor="middle">fluxo expiratório</text><text x="1280" y="765" font-family="Arial" font-size="23" fill="#6A727A" text-anchor="middle">limitação variável e aprisionamento aéreo</text><text x="72" y="1152" font-family="Arial" font-size="20" fill="#6A727A">HEX-G014-136 · Respira · Ventila · Emergências</text></svg>