<svg xmlns="http://www.w3.org/2000/svg" viewBox="0 0 1600 1200" role="img"><title>Choque séptico</title><rect width="1600" height="1200" fill="#F7F4EC"/><text x="72" y="98" font-family="Arial" font-size="26" font-weight="700" fill="#1D4E7A">HEXÁPODE</text><text x="72" y="166" font-family="Georgia" font-size="58" font-weight="700" fill="#2B2E34">Choque séptico</text><text x="74" y="210" font-family="Arial" font-size="24" fill="#6A727A">Infecção, vasoplegia e hipoperfusão heterogênea</text><line x1="72" y1="238" x2="1528" y2="238" stroke="#DCD2BE" stroke-width="3"/><rect x="72" y="275" width="1456" height="760" rx="24" fill="#FFFDF8" stroke="#DCD2BE" stroke-width="2"/><circle cx="300" cy="430" r="62" fill="#E8E1D1" stroke="#2B2E34" stroke-width="4"/><rect x="245" y="492" width="110" height="240" rx="50" fill="#E8E1D1" stroke="#2B2E34" stroke-width="4"/><line x1="250" y1="535" x2="145" y2="690" stroke="#2B2E34" stroke-width="22"/><line x1="350" y1="535" x2="455" y2="690" stroke="#2B2E34" stroke-width="22"/><path d="M600 400 C760 330 930 350 1040 445 C950 525 790 540 620 490Z" fill="#F4DDD9" stroke="#B2473F" stroke-width="5"/><g><circle cx="690" cy="420" r="18" fill="#B2473F"/><circle cx="760" cy="450" r="18" fill="#1696A3"/><circle cx="830" cy="405" r="18" fill="#B2473F"/><circle cx="900" cy="455" r="18" fill="#1696A3"/><circle cx="970" cy="420" r="18" fill="#B2473F"/></g><text x="820" y="585" font-family="Arial" font-size="28" font-weight="700" fill="#B2473F" text-anchor="middle">vasoplegia + fuga capilar</text><rect x="1140" y="345" width="300" height="470" rx="24" fill="#F7F4EC" stroke="#DCD2BE" stroke-width="2"/><text x="1180" y="405" font-family="Arial" font-size="24" font-weight="700" fill="#1D4E7A">FENÓTIPO</text><text x="1180" y="470" font-family="Arial" font-size="23" fill="#2B2E34">PAM reduzida</text><text x="1180" y="520" font-family="Arial" font-size="23" fill="#2B2E34">fluxo mal distribuído</text><text x="1180" y="570" font-family="Arial" font-size="23" fill="#2B2E34">extração alterada</text><text x="1180" y="620" font-family="Arial" font-size="23" fill="#2B2E34">disfunção orgânica</text><rect x="190" y="835" width="1080" height="100" rx="20" fill="#E8E1D1"/><text x="730" y="895" font-family="Arial" font-size="28" font-weight="700" fill="#2B2E34" text-anchor="middle">infecção → resposta desregulada → vasodilatação → hipoperfusão</text><text x="72" y="1152" font-family="Arial" font-size="20" fill="#6A727A">HEX-G014-134 · Emergências · Medicina Interna · Fisiologia</text></svg>