<svg xmlns="http://www.w3.org/2000/svg" width="1600" height="1200" viewBox="0 0 1600 1200" role="img" aria-labelledby="t d"><title id="t">HEX-G006-053 — Tubo orotraqueal</title><desc id="d">Tubo orotraqueal com conector, marcações, cuff e balonete piloto.</desc><rect width="1600" height="1200" fill="#F7F4EC"/><text x="90" y="110" font-family="Georgia,serif" font-size="58" fill="#2B2E34">Tubo orotraqueal</text><text x="92" y="158" font-family="Arial" font-size="24" fill="#6A727A">conector • marcações • cuff • balonete piloto</text><line x1="90" y1="190" x2="1510" y2="190" stroke="#DCD2BE" stroke-width="3"/><path d="M300 820 C520 780 650 650 800 500 S1120 260 1330 330" fill="none" stroke="#1D4E7A" stroke-width="42"/><rect x="220" y="770" width="130" height="105" rx="12" fill="#E8E1D1" stroke="#2B2E34" stroke-width="6"/><ellipse cx="1180" cy="400" rx="120" ry="70" fill="#1696A3" opacity=".28" stroke="#1696A3" stroke-width="8"/><line x1="900" y1="520" x2="820" y2="760" stroke="#6A727A" stroke-width="10"/><ellipse cx="790" cy="820" rx="60" ry="90" fill="#E8E1D1" stroke="#1D4E7A" stroke-width="7"/><g stroke="#DCD2BE" stroke-width="7"><line x1="500" y1="735" x2="520" y2="785"/><line x1="600" y1="665" x2="625" y2="715"/><line x1="700" y1="575" x2="730" y2="625"/></g><g font-family="Arial" font-size="27" fill="#2B2E34"><text x="170" y="930">conector 15 mm</text><text x="560" y="900">marcação de profundidade</text><text x="1090" y="520">cuff</text><text x="680" y="980">balonete piloto</text></g><rect x="250" y="1015" width="1100" height="90" rx="18" fill="#E8E1D1"/><text x="310" y="1072" font-family="Arial" font-size="26" fill="#6A727A">Esquema funcional; dimensões e posicionamento exigem validação clínica contextual.</text></svg>