<svg xmlns="http://www.w3.org/2000/svg" viewBox="0 0 1600 1200" role="img" aria-labelledby="t d"><title id="t">Expiração — recuo elástico</title><desc id="d">Recuo elástico pulmonar e ascensão diafragmática durante a expiração passiva.</desc><rect width="1600" height="1200" fill="#F7F4EC"/><text x="90" y="120" font-family="Georgia" font-size="62" fill="#2B2E34">Expiração — recuo elástico</text><text x="90" y="170" font-family="Arial" font-size="24" fill="#6A727A">Retorno passivo ao volume de repouso</text><line x1="90" y1="205" x2="1510" y2="205" stroke="#DCD2BE" stroke-width="3"/><g transform="translate(280 280)"><path d="M300 80 C180 170 170 500 280 650 C350 710 420 680 440 610 L440 180 C410 110 360 80 300 80Z" fill="#E7B2A8" stroke="#B2473F" stroke-width="6"/><path d="M740 80 C860 170 870 500 760 650 C690 710 620 680 600 610 L600 180 C630 110 680 80 740 80Z" fill="#E7B2A8" stroke="#B2473F" stroke-width="6"/><path d="M170 380 H20" stroke="#1696A3" stroke-width="18"/><polygon points="170,380 110,340 110,420" fill="#1696A3"/><path d="M870 380 H1020" stroke="#1696A3" stroke-width="18"/><polygon points="870,380 930,340 930,420" fill="#1696A3"/><path d="M220 720 Q520 570 820 720" fill="none" stroke="#C45A3C" stroke-width="22"/><path d="M520 730 V580" stroke="#1696A3" stroke-width="20"/><polygon points="520,560 480,630 560,630" fill="#1696A3"/><text x="290" y="900" font-family="Arial" font-size="30" fill="#1D4E7A">recuo elástico → fluxo expiratório</text></g><text x="90" y="1120" font-family="Arial" font-size="20" fill="#6A727A">HEX-A024-233 · Hexápode · Mecânica Respiratória Avançada</text></svg>