<svg xmlns="http://www.w3.org/2000/svg" viewBox="0 0 1600 1200" role="img"><title>Glomérulo</title><desc>Barreira de filtração</desc>
<rect width="1600" height="1200" fill="#F7F4EC"/><text x="72" y="92" font-family="Arial" font-size="24" font-weight="700" fill="#1D4E7A">HEXÁPODE · NEFROLOGIA</text>
<text x="72" y="165" font-family="Georgia" font-size="58" font-weight="700" fill="#2B2E34">Glomérulo</text>
<text x="74" y="210" font-family="Arial" font-size="25" fill="#6A727A">Barreira de filtração</text>
<line x1="72" y1="240" x2="1528" y2="240" stroke="#DCD2BE" stroke-width="3"/>
<rect x="72" y="278" width="1456" height="760" rx="28" fill="#FFFDF8" stroke="#DCD2BE" stroke-width="2"/><circle cx="540" cy="625" r="260" fill="#F8E6DF" stroke="#2B2E34" stroke-width="6"/><circle cx="540" cy="625" r="180" fill="#F6C8BB" stroke="#B2473F" stroke-width="5"/>
<path d="M390 610 C450 500 610 500 680 610 C620 760 450 760 390 610Z" fill="#B2473F" opacity=".72"/>
<line x1="160" y1="560" x2="350" y2="560" stroke="#B2473F" stroke-width="30"/><polygon points="350,560 310,535 310,585" fill="#B2473F"/>
<line x1="730" y1="690" x2="950" y2="690" stroke="#1D4E7A" stroke-width="24"/><polygon points="950,690 910,665 910,715" fill="#1D4E7A"/>
<rect x="1050" y="420" width="360" height="410" rx="22" fill="#DCD2BE" opacity=".45"/><text x="1090" y="490" font-family="Arial" font-size="27" font-weight="700" fill="#1D4E7A">BARREIRA</text><text x="1090" y="560" font-family="Arial" font-size="24" fill="#2B2E34">endotélio</text><text x="1090" y="620" font-family="Arial" font-size="24" fill="#2B2E34">membrana basal</text><text x="1090" y="680" font-family="Arial" font-size="24" fill="#2B2E34">podócitos</text><text x="72" y="1145" font-family="Arial" font-size="20" fill="#6A727A">HEX-G016-152 · Hexápode · G016</text></svg>