<svg xmlns="http://www.w3.org/2000/svg" viewBox="0 0 1600 1200" role="img"><title>EAP</title><rect width="1600" height="1200" fill="#F7F4EC"/><text x="72" y="98" font-family="Arial" font-size="26" font-weight="700" fill="#1D4E7A">HEXÁPODE</text><text x="72" y="166" font-family="Georgia" font-size="58" font-weight="700" fill="#2B2E34">EAP</text><text x="74" y="210" font-family="Arial" font-size="24" fill="#6A727A">Edema agudo de pulmão: pressão, fluido e troca gasosa</text><line x1="72" y1="238" x2="1528" y2="238" stroke="#DCD2BE" stroke-width="3"/><rect x="72" y="275" width="1456" height="760" rx="24" fill="#FFFDF8" stroke="#DCD2BE" stroke-width="2"/><path d="M480 340 L480 460" stroke="#1D4E7A" stroke-width="14"/><path d="M480 390 C430 420 390 455 365 500" fill="none" stroke="#1D4E7A" stroke-width="10"/><path d="M480 390 C530 420 570 455 595 500" fill="none" stroke="#1D4E7A" stroke-width="10"/><path d="M470 430 C300 360 240 470 265 700 C300 855 430 800 470 600Z" fill="#DCEAF3" stroke="#1D4E7A" stroke-width="6"/><path d="M490 430 C660 360 720 470 695 700 C660 855 530 800 490 600Z" fill="#DCEAF3" stroke="#1D4E7A" stroke-width="6"/><g fill="#1D4E7A" opacity="0.7"><circle cx="330" cy="660" r="14"/><circle cx="370" cy="700" r="14"/><circle cx="410" cy="735" r="14"/><circle cx="560" cy="690" r="14"/><circle cx="600" cy="725" r="14"/><circle cx="640" cy="665" r="14"/></g><path d="M930 470 C850 405 800 500 930 620 C1060 500 1010 405 930 470Z" fill="#F4DDD9" stroke="#B2473F" stroke-width="5"/><line x1="820" y1="540" x2="670" y2="540" stroke="#1D4E7A" stroke-width="10"/><polygon points="670,540 702,521 702,559" fill="#1D4E7A"/><text x="745" y="505" font-family="Arial" font-size="24" font-weight="700" fill="#1D4E7A" text-anchor="middle">pressão retrógrada</text><rect x="1010" y="360" width="390" height="400" rx="24" fill="#F7F4EC" stroke="#DCD2BE" stroke-width="2"/><text x="1045" y="415" font-family="Arial" font-size="25" font-weight="700" fill="#1696A3">EFEITOS</text><text x="1045" y="480" font-family="Arial" font-size="24" fill="#2B2E34">• menor complacência</text><text x="1045" y="535" font-family="Arial" font-size="24" fill="#2B2E34">• maior distância de difusão</text><text x="1045" y="590" font-family="Arial" font-size="24" fill="#2B2E34">• shunt e hipoxemia</text><text x="1045" y="645" font-family="Arial" font-size="24" fill="#2B2E34">• esforço respiratório elevado</text><text x="72" y="1152" font-family="Arial" font-size="20" fill="#6A727A">HEX-G014-133 · Cardio · Respira · Emergências</text></svg>