<svg xmlns="http://www.w3.org/2000/svg" viewBox="0 0 1600 1200" role="img" aria-labelledby="t d"><title id="t">Sistema de setas aplicado</title><desc id="d">Linguagem visual de fluxos, causalidade, feedback, migração e decisão clínica.</desc><rect width="1600" height="1200" fill="#F7F4EC"/><text x="72" y="90" font-family="Arial" font-size="24" font-weight="700" fill="#1D4E7A">HEXÁPODE · CAMADA AVANÇADA</text><text x="72" y="162" font-family="Georgia" font-size="58" font-weight="700" fill="#2B2E34">Sistema de setas aplicado</text><text x="74" y="208" font-family="Arial" font-size="24" fill="#6A727A">Linguagem visual de fluxos, causalidade, feedback, migração e decisão clínica.</text><line x1="72" y1="238" x2="1528" y2="238" stroke="#DCD2BE" stroke-width="3"/><text x="90" y="325" font-family="Arial" font-size="24" fill="#2B2E34">Fluxo</text><path d="M120 350 H450" stroke="#1696A3" stroke-width="10"/><polygon points="450,350 420,332 420,368" fill="#1696A3"/><text x="90" y="445" font-family="Arial" font-size="24" fill="#2B2E34">Bidirecional</text><path d="M120 470 H450" stroke="#1D4E7A" stroke-width="10"/><polygon points="450,470 420,452 420,488" fill="#1D4E7A"/><text x="90" y="565" font-family="Arial" font-size="24" fill="#2B2E34">Causal</text><path d="M120 590 H450" stroke="#2B2E34" stroke-width="10"/><polygon points="450,590 420,572 420,608" fill="#2B2E34"/><text x="90" y="685" font-family="Arial" font-size="24" fill="#2B2E34">Inibição</text><path d="M120 710 H450" stroke="#B2473F" stroke-width="10"/><polygon points="450,710 420,692 420,728" fill="#B2473F"/><text x="90" y="805" font-family="Arial" font-size="24" fill="#2B2E34">Feedback</text><path d="M120 830 H450" stroke="#2E7D69" stroke-width="10"/><polygon points="450,830 420,812 420,848" fill="#2E7D69"/><rect x="560" y="290" width="420" height="700" rx="22" fill="#FFFDF8" stroke="#DCD2BE" stroke-width="3"/><text x="584" y="334" font-family="Arial" font-size="25" font-weight="700" fill="#1D4E7A">Fluxo fisiológico</text><rect x="1040" y="290" width="480" height="700" rx="22" fill="#FFFDF8" stroke="#DCD2BE" stroke-width="3"/><text x="1064" y="334" font-family="Arial" font-size="25" font-weight="700" fill="#1D4E7A">Decisão clínica</text><rect x="620" y="470" width="130" height="70" rx="14" fill="#FFFDF8" stroke="#1D4E7A" stroke-width="4"/><text x="685" y="513" text-anchor="middle" font-family="Arial" font-size="20" fill="#2B2E34">Entrada</text><rect x="820" y="470" width="130" height="70" rx="14" fill="#FFFDF8" stroke="#1D4E7A" stroke-width="4"/><text x="885" y="513" text-anchor="middle" font-family="Arial" font-size="20" fill="#2B2E34">Troca</text><rect x="620" y="690" width="130" height="70" rx="14" fill="#FFFDF8" stroke="#1D4E7A" stroke-width="4"/><text x="685" y="733" text-anchor="middle" font-family="Arial" font-size="20" fill="#2B2E34">Resposta</text><rect x="820" y="690" width="130" height="70" rx="14" fill="#FFFDF8" stroke="#1D4E7A" stroke-width="4"/><text x="885" y="733" text-anchor="middle" font-family="Arial" font-size="20" fill="#2B2E34">Saída</text><text x="72" y="1150" font-family="Arial" font-size="20" fill="#6A727A">HEX-A021-208 · Hexápode · avançado</text></svg>