<svg xmlns="http://www.w3.org/2000/svg" viewBox="0 0 1600 1200" role="img"><title>Máscara total-face avançada</title><rect width="1600" height="1200" fill="#F7F4EC"/><text x="80" y="140" font-family="Arial" font-size="56">Máscara total-face: distribuição de pressão</text><path d="M650 170 C430 210 330 390 360 650 C390 860 560 980 760 930 C940 880 1030 700 1000 460 C970 250 830 160 650 170Z" fill="#F1D6C8" stroke="#A96D58" stroke-width="6"/><path d="M430 300 Q680 120 930 300 L880 880 Q680 1030 480 880Z" fill="#D8F0EE" opacity=".62" stroke="#1696A3" stroke-width="11"/><ellipse cx="580" cy="430" rx="42" ry="25" fill="#2B2E34"/><ellipse cx="780" cy="430" rx="42" ry="25" fill="#2B2E34"/><path d="M680 470 L640 610 L715 610" fill="none" stroke="#A96D58" stroke-width="6"/><path d="M590 735 Q680 790 770 735" fill="none" stroke="#A96D58" stroke-width="7"/><circle cx="460" cy="480" r="25" fill="#D39A2E"/><circle cx="900" cy="480" r="25" fill="#D39A2E"/><circle cx="680" cy="900" r="25" fill="#D39A2E"/><text x="1080" y="430" font-family="Arial" font-size="30">pressão distribuída</text><text x="1080" y="520" font-family="Arial" font-size="30">maior volume interno</text><text x="1080" y="610" font-family="Arial" font-size="30">escape intencional</text><text x="80" y="1120" font-family="Arial" font-size="24">HEX-A026-256</text></svg>