<svg xmlns="http://www.w3.org/2000/svg" viewBox="0 0 1600 1200" role="img" aria-labelledby="t d"><title id="t">Segmentos broncopulmonares avançados</title><desc id="d">Pulmões com segmentos broncopulmonares e brônquios segmentares.</desc><rect width="1600" height="1200" fill="#F7F4EC"/><rect width="1600" height="76" fill="#123A63"/><text x="70" y="50" font-family="Arial" font-size="28" font-weight="700" fill="white">HEXÁPODE · CAMADA AVANÇADA · A023</text><text x="70" y="155" font-family="Georgia" font-size="56" fill="#2B2E34">Segmentos broncopulmonares avançados</text><text x="72" y="205" font-family="Arial" font-size="24" fill="#6A727A">Territórios segmentares, brônquios e implicações cirúrgicas.</text><path d="M250 800 C180 520 250 290 430 300 C610 290 680 520 610 800Z" fill="#FFFDF8" stroke="#2B2E34" stroke-width="5"/><g stroke-width="10" fill="none"><path d="M430 310L300 430" stroke="#2F6FAE"/><path d="M430 310L380 430" stroke="#1696A3"/><path d="M430 310L500 430" stroke="#2E7D69"/><path d="M430 310L560 430" stroke="#C45A3C"/><path d="M430 310L300 600" stroke="#D39A2E"/><path d="M430 310L380 620" stroke="#7B5AA6"/><path d="M430 310L500 620" stroke="#B2473F"/><path d="M430 310L560 620" stroke="#3B8AA0"/></g><g font-family="Arial" font-size="25" fill="#2B2E34"><text x="285" y="420">S1</text><text x="365" y="420">S2</text><text x="490" y="420">S3</text><text x="550" y="420">S4</text><text x="285" y="650">S6</text><text x="365" y="670">S8</text><text x="490" y="670">S9</text><text x="550" y="650">S10</text></g><rect x="790" y="300" width="680" height="500" rx="28" fill="#FFFDF8" stroke="#DCD2BE" stroke-width="4"/><text x="840" y="370" font-family="Arial" font-size="29" font-weight="700" fill="#123A63">ORGANIZAÇÃO SEGMENTAR</text><text x="840" y="440" font-family="Arial" font-size="25" fill="#2B2E34">• unidade anatômica broncovascular</text><text x="840" y="500" font-family="Arial" font-size="25" fill="#2B2E34">• limites úteis para ressecção</text><text x="840" y="560" font-family="Arial" font-size="25" fill="#2B2E34">• correlação com TC e broncoscopia</text><text x="70" y="1125" font-family="Arial" font-size="20" fill="#6A727A">HEX-A023-222 · Anatomia Respiratória II Avançada</text></svg>