<svg xmlns="http://www.w3.org/2000/svg" viewBox="0 0 1600 1200" role="img"><title>Sistema de condução</title><rect width="1600" height="1200" fill="#F7F4EC"/><text x="90" y="125" font-family="Georgia" font-size="62" fill="#2B2E34">Sistema de condução</text><text x="90" y="175" font-family="Arial" font-size="24" fill="#6A727A">Nó sinusal → nó AV → His-Purkinje</text><line x1="90" y1="210" x2="1510" y2="210" stroke="#DCD2BE" stroke-width="3"/><path d="M500 350 C360 270 240 390 300 570 C365 760 520 850 660 930 C800 820 930 650 930 470 C930 300 760 260 670 360" fill="#F2D2CC" stroke="#2B2E34" stroke-width="7"/><circle cx="470" cy="410" r="24" fill="#D39A2E"/><circle cx="620" cy="560" r="24" fill="#D39A2E"/><path d="M470 410 C520 450 565 505 620 560 M620 560 C670 620 710 700 760 820 M620 560 C575 650 545 730 515 820" fill="none" stroke="#D39A2E" stroke-width="16" stroke-dasharray="22 12"/><text x="1030" y="420" font-family="Arial" font-size="28" fill="#1D4E7A">Ativação coordenada</text><text x="1030" y="475" font-family="Arial" font-size="24" fill="#2B2E34">átrios antes dos ventrículos</text><text x="90" y="1115" font-family="Arial" font-size="20" fill="#6A727A">HEX-G018-172 · Cardiologia</text></svg>