<svg xmlns="http://www.w3.org/2000/svg" viewBox="0 0 1600 1200" role="img" aria-labelledby="t d"><title id="t">Microcirculação</title><desc id="d">Prancha sobre capilares, heterogeneidade de fluxo e extração de oxigênio.</desc><rect width="1600" height="1200" fill="#F7F4EC"/><text x="90" y="120" font-family="Georgia" font-size="62" fill="#2B2E34">Microcirculação</text><text x="90" y="170" font-family="Arial" font-size="24" fill="#6A727A">Onde o fluxo encontra o tecido e ocorre a troca metabólica</text><line x1="90" y1="205" x2="1510" y2="205" stroke="#DCD2BE" stroke-width="3"/><g transform="translate(100 300)"><path d="M80 220 C280 80 480 360 700 220 S1120 80 1380 220" fill="none" stroke="#B2473F" stroke-width="18"/><path d="M80 500 C300 650 480 340 720 500 S1120 650 1380 500" fill="none" stroke="#1D4E7A" stroke-width="18"/><g stroke="#1696A3" stroke-width="8"><line x1="250" y1="170" x2="250" y2="550"/><line x1="450" y1="250" x2="450" y2="470"/><line x1="650" y1="190" x2="650" y2="530"/><line x1="850" y1="260" x2="850" y2="460"/><line x1="1050" y1="180" x2="1050" y2="540"/><line x1="1250" y1="250" x2="1250" y2="470"/></g><g fill="#C45A3C"><circle cx="350" cy="710" r="40"/><circle cx="650" cy="740" r="40"/><circle cx="950" cy="700" r="40"/><circle cx="1220" cy="735" r="40"/></g><g font-family="Arial" font-size="25" fill="#2B2E34"><text x="180" y="820">capilares recrutados</text><text x="600" y="820">heterogeneidade</text><text x="980" y="820">extração tecidual</text></g></g><text x="90" y="1115" font-family="Arial" font-size="20" fill="#6A727A">HEX-G013-129 · Hexápode · Hemodinâmica</text></svg>