<svg xmlns="http://www.w3.org/2000/svg" viewBox="0 0 1600 1200" role="img"><title>Distúrbios hidroeletrolíticos</title><desc>Mapa clínico integrado</desc><rect width="1600" height="1200" fill="#F7F4EC"/><text x="72" y="92" font-family="Arial" font-size="24" font-weight="700" fill="#1D4E7A">HEXÁPODE · NEFROLOGIA</text><text x="72" y="165" font-family="Georgia" font-size="58" font-weight="700" fill="#2B2E34">Distúrbios hidroeletrolíticos</text><text x="74" y="210" font-family="Arial" font-size="25" fill="#6A727A">Mapa clínico integrado</text><line x1="72" y1="240" x2="1528" y2="240" stroke="#DCD2BE" stroke-width="3"/><rect x="72" y="278" width="1456" height="760" rx="28" fill="#FFFDF8" stroke="#DCD2BE" stroke-width="2"/><circle cx="720" cy="620" r="110" fill="#E6F1F4" stroke="#1696A3" stroke-width="6"/><text x="720" y="632" text-anchor="middle" font-family="Arial" font-size="30" font-weight="700" fill="#1696A3">ÁGUA</text><circle cx="360" cy="450" r="78" fill="#FFFDF8" stroke="#1D4E7A" stroke-width="6"/><text x="360" y="460" text-anchor="middle" font-family="Arial" font-size="28" font-weight="700" fill="#1D4E7A">Na⁺</text><line x1="720" y1="620" x2="360" y2="450" stroke="#DCD2BE" stroke-width="6" stroke-dasharray="14 10"/><circle cx="750" cy="420" r="78" fill="#FFFDF8" stroke="#2E7D69" stroke-width="6"/><text x="750" y="430" text-anchor="middle" font-family="Arial" font-size="28" font-weight="700" fill="#2E7D69">K⁺</text><line x1="720" y1="620" x2="750" y2="420" stroke="#DCD2BE" stroke-width="6" stroke-dasharray="14 10"/><circle cx="1100" cy="480" r="78" fill="#FFFDF8" stroke="#D39A2E" stroke-width="6"/><text x="1100" y="490" text-anchor="middle" font-family="Arial" font-size="28" font-weight="700" fill="#D39A2E">Ca²⁺</text><line x1="720" y1="620" x2="1100" y2="480" stroke="#DCD2BE" stroke-width="6" stroke-dasharray="14 10"/><circle cx="420" cy="800" r="78" fill="#FFFDF8" stroke="#C45A3C" stroke-width="6"/><text x="420" y="810" text-anchor="middle" font-family="Arial" font-size="28" font-weight="700" fill="#C45A3C">Mg²⁺</text><line x1="720" y1="620" x2="420" y2="800" stroke="#DCD2BE" stroke-width="6" stroke-dasharray="14 10"/><circle cx="900" cy="800" r="78" fill="#FFFDF8" stroke="#B2473F" stroke-width="6"/><text x="900" y="810" text-anchor="middle" font-family="Arial" font-size="28" font-weight="700" fill="#B2473F">osm</text><line x1="720" y1="620" x2="900" y2="800" stroke="#DCD2BE" stroke-width="6" stroke-dasharray="14 10"/><text x="72" y="1145" font-family="Arial" font-size="20" fill="#6A727A">HEX-G016-160 · Hexápode · G016</text></svg>