<svg xmlns="http://www.w3.org/2000/svg" viewBox="0 0 1600 1200" role="img"><title>Ultrassom pulmonar</title><rect width="1600" height="1200" fill="#F7F4EC"/><text x="72" y="92" font-family="Arial" font-size="25" font-weight="700" fill="#1D4E7A">HEXÁPODE · ULTRASSOM</text><text x="72" y="164" font-family="Georgia" font-size="58" fill="#2B2E34">Ultrassom pulmonar</text><text x="74" y="208" font-family="Arial" font-size="24" fill="#6A727A">Linha pleural, linhas A, linhas B e consolidação</text><line x1="72" y1="238" x2="1528" y2="238" stroke="#DCD2BE" stroke-width="3"/><rect x="72" y="275" width="1456" height="760" rx="24" fill="#FFFDF8" stroke="#DCD2BE"/><g transform="translate(130 350)"><rect width="360" height="540" rx="22" fill="#F5F6F7" stroke="#DCD2BE"/><line x1="50" y1="120" x2="310" y2="120" stroke="#1696A3" stroke-width="8"/><line x1="50" y1="210" x2="310" y2="210" stroke="#1696A3" stroke-width="5"/><line x1="50" y1="300" x2="310" y2="300" stroke="#1696A3" stroke-width="5"/><text x="110" y="500" font-family="Arial" font-size="25" fill="#2B2E34">linhas A</text><rect x="420" width="360" height="540" rx="22" fill="#F5F6F7" stroke="#DCD2BE"/><line x1="470" y1="120" x2="730" y2="120" stroke="#1696A3" stroke-width="8"/><g stroke="#1D4E7A" stroke-width="6"><line x1="520" y1="120" x2="500" y2="450"/><line x1="600" y1="120" x2="620" y2="450"/><line x1="680" y1="120" x2="700" y2="450"/></g><text x="530" y="500" font-family="Arial" font-size="25" fill="#2B2E34">linhas B</text><rect x="840" width="360" height="540" rx="22" fill="#F5F6F7" stroke="#DCD2BE"/><path d="M900 150 Q1020 90 1140 150" fill="none" stroke="#1696A3" stroke-width="8"/><path d="M920 260 Q1020 200 1120 260 Q1020 400 920 260" fill="#F3E2D8" stroke="#C45A3C" stroke-width="6"/><text x="905" y="500" font-family="Arial" font-size="25" fill="#2B2E34">consolidação</text></g><text x="72" y="1152" font-family="Arial" font-size="20" fill="#6A727A">HEX-G019-187 · Hexápode · Ultrassom</text></svg>