<svg xmlns="http://www.w3.org/2000/svg" width="1600" height="1200" viewBox="0 0 1600 1200" role="img" aria-labelledby="t d"><title id="t">Hexápode — Expiração</title><desc id="d">Saída de ar com recuo elástico, elevação do diafragma e pressão alveolar supra-atmosférica.</desc><rect width="1600" height="1200" fill="#F7F4EC"/><rect x="32" y="32" width="1536" height="1136" rx="18" fill="none" stroke="#DCD2BE" stroke-width="3"/><text x="72" y="115" font-family="Georgia" font-size="62" fill="#2B2E34">Hexápode — Expiração</text><text x="74" y="165" font-family="Arial" font-size="24" letter-spacing="4" fill="#6A727A">MECÂNICA RESPIRATÓRIA · ATIVO CANÔNICO</text><line x1="70" y1="205" x2="1530" y2="205" stroke="#DCD2BE" stroke-width="3"/><rect x="70" y="245" width="790" height="690" rx="20" fill="#FCFAF5" stroke="#DCD2BE" stroke-width="3"/><path d="M400 330v130" stroke="#2B2E34" stroke-width="10"/><path d="M400 455c-85 35-145 125-130 245 15 105 125 75 155-65V480zM420 480v155c30 140 140 170 155 65 15-120-45-210-125-245z" fill="#D77A6D" stroke="#2B2E34" stroke-width="6"/><path d="M250 800Q440 690 630 800" fill="none" stroke="#C45A3C" stroke-width="14"/><path d="M90 500h80" stroke="#C45A3C" stroke-width="10"/><polygon points="170,500 140,480 140,520" fill="#C45A3C"/><path d="M350 900v-70m180 70v-70" stroke="#C45A3C" stroke-width="10"/><polygon points="350,830 330,860 370,860" fill="#C45A3C"/><polygon points="530,830 510,860 550,860" fill="#C45A3C"/><rect x="900" y="245" width="630" height="690" rx="20" fill="#FCFAF5" stroke="#DCD2BE" stroke-width="3"/><text x="940" y="300" font-family="Arial" font-size="22" font-weight="bold" fill="#1D4E7A">RELAÇÕES-CHAVE</text><text x="940" y="390" font-family="Arial" font-size="31" fill="#2B2E34">Recuo elástico</text><text x="940" y="505" font-family="Arial" font-size="31" fill="#2B2E34">Diafragma sobe</text><text x="940" y="620" font-family="Arial" font-size="31" fill="#2B2E34">PAlv &gt; Patm</text><rect x="70" y="975" width="1460" height="130" rx="14" fill="#E8E1D1"/><text x="105" y="1025" font-family="Arial" font-size="22" font-weight="bold" fill="#2B2E34">FUNÇÃO DIDÁTICA</text><text x="105" y="1065" font-family="Arial" font-size="24" fill="#2B2E34">Mostra a expiração passiva como resultado do gradiente pressórico e do recuo elástico.</text><text x="1290" y="1070" font-family="Arial" font-size="20" fill="#6A727A">HEX-G004-032</text></svg>