<svg xmlns="http://www.w3.org/2000/svg" viewBox="0 0 1600 1200" role="img"><title>PCR</title><rect width="1600" height="1200" fill="#F7F4EC"/><text x="72" y="98" font-family="Arial" font-size="26" font-weight="700" fill="#1D4E7A">HEXÁPODE</text><text x="72" y="166" font-family="Georgia" font-size="58" font-weight="700" fill="#2B2E34">PCR</text><text x="74" y="210" font-family="Arial" font-size="24" fill="#6A727A">Ritmo, perfusão e circulação</text><line x1="72" y1="238" x2="1528" y2="238" stroke="#DCD2BE" stroke-width="3"/><rect x="72" y="275" width="1456" height="760" rx="24" fill="#FFFDF8" stroke="#DCD2BE" stroke-width="2"/><path d="M300 450 C220 387 162 456 300 577 C438 456 381 387 300 450Z" fill="#F4DDD9" stroke="#B2473F" stroke-width="4"/><path d="M520 455 L564 455 L587 444 L601 464 L624 455 L646 455 L664 395 L679 505 L694 439 L712 455 L757 455 L783 446 L805 463 L831 455 L1040 455" fill="none" stroke="#B2473F" stroke-width="8"/><circle cx="850" cy="700" r="95" fill="#F6E8C4" stroke="#D39A2E" stroke-width="5"/><text x="850" y="710" font-family="Arial" font-size="34" font-weight="700" fill="#D39A2E" text-anchor="middle">PERFUSÃO</text><line x1="400" y1="700" x2="730" y2="700" stroke="#1696A3" stroke-width="10"/><polygon points="730,700 700,682 700,718" fill="#1696A3"/><line x1="970" y1="700" x2="1300" y2="700" stroke="#2E7D69" stroke-width="10"/><polygon points="1300,700 1270,682 1270,718" fill="#2E7D69"/><text x="72" y="1152" font-family="Arial" font-size="20" fill="#6A727A">HEX-G014-131 · Emergências</text></svg>