<svg xmlns="http://www.w3.org/2000/svg" width="1600" height="1200" viewBox="0 0 1600 1200" role="img" aria-labelledby="t d"><title id="t">HEX-G006-057 — Cânula nasal</title><desc id="d">Cânula nasal esquemática com dois prongs, tubulação e fluxo de oxigênio.</desc><rect width="1600" height="1200" fill="#F7F4EC"/><text x="90" y="110" font-family="Georgia,serif" font-size="58" fill="#2B2E34">Cânula nasal</text><text x="92" y="158" font-family="Arial" font-size="24" fill="#6A727A">baixo fluxo • interface simples • oxigênio suplementar</text><line x1="90" y1="190" x2="1510" y2="190" stroke="#DCD2BE" stroke-width="3"/><path d="M720 330 Q820 290 910 350 Q970 420 935 525 Q905 600 820 625 Q735 600 705 525 Q670 420 720 330Z" fill="#E8E1D1" stroke="#2B2E34" stroke-width="7"/><path d="M760 505 v110 M870 505 v110" stroke="#1696A3" stroke-width="26" stroke-linecap="round"/><path d="M760 610 Q815 650 870 610" fill="none" stroke="#1696A3" stroke-width="24"/><path d="M760 610 C620 670 510 760 380 910 M870 610 C1010 670 1120 760 1250 910" fill="none" stroke="#1D4E7A" stroke-width="22"/><path d="M380 910 Q815 1030 1250 910" fill="none" stroke="#1D4E7A" stroke-width="22"/><polygon points="760,430 740,470 780,470" fill="#1696A3"/><polygon points="870,430 850,470 890,470" fill="#1696A3"/><g font-family="Arial" font-size="28" fill="#2B2E34"><text x="680" y="745">prongs nasais</text><text x="285" y="980">tubulação</text><text x="1030" y="980">tubulação</text><text x="700" y="1060">fluxo direcionado às narinas</text></g></svg>