<svg xmlns="http://www.w3.org/2000/svg" viewBox="0 0 1600 1200" role="img"><title>Cetamina</title><rect width="1600" height="1200" fill="#F7F4EC"/><text x="72" y="92" font-family="Arial" font-size="25" font-weight="700" fill="#1D4E7A">HEXÁPODE · FARMACOLOGIA</text><text x="72" y="165" font-family="Georgia" font-size="62" fill="#2B2E34">Cetamina</text><text x="74" y="210" font-family="Arial" font-size="25" fill="#6A727A">Anestésico dissociativo</text><line x1="72" y1="240" x2="1528" y2="240" stroke="#DCD2BE" stroke-width="3"/><rect x="80" y="290" width="430" height="680" rx="28" fill="#FFFDF8" stroke="#DCD2BE"/><circle cx="285" cy="520" r="150" fill="#D39A2E" opacity=".15" stroke="#D39A2E" stroke-width="6"/><path d="M220 430C310 390 365 450 350 530C335 610 260 655 205 595C155 540 165 465 220 430Z" fill="none" stroke="#D39A2E" stroke-width="12"/><path d="M210 670L360 390" stroke="#D39A2E" stroke-width="10" stroke-dasharray="18 14"/><text x="285" y="820" text-anchor="middle" font-family="Arial" font-size="30" fill="#2B2E34">dissociação</text><rect x="560" y="290" width="960" height="280" rx="28" fill="#FFFDF8" stroke="#DCD2BE"/><text x="610" y="355" font-family="Arial" font-size="28" font-weight="700" fill="#D39A2E">MECANISMO</text><text x="610" y="430" font-family="Arial" font-size="30" fill="#2B2E34">antagonismo NMDA</text><path d="M630 500H1430" stroke="#D39A2E" stroke-width="10"/><polygon points="1430,500 1388,475 1388,525" fill="#D39A2E"/><rect x="560" y="620" width="455" height="350" rx="28" fill="#FFFDF8" stroke="#DCD2BE"/><text x="610" y="690" font-family="Arial" font-size="28" font-weight="700" fill="#2E7D69">EFEITO-ALVO</text><text x="610" y="780" font-family="Arial" font-size="30" fill="#2B2E34">analgesia + hipnose dissociativa</text><rect x="1065" y="620" width="455" height="350" rx="28" fill="#FFFDF8" stroke="#DCD2BE"/><text x="1115" y="690" font-family="Arial" font-size="28" font-weight="700" fill="#D39A2E">CAUTELAS</text><text x="1115" y="780" font-family="Arial" font-size="27" fill="#2B2E34">hipersalivação · emergência perceptiva</text><text x="72" y="1145" font-family="Arial" font-size="20" fill="#6A727A">HEX-G015-147 · Hexápode · Farmacologia</text></svg>