<svg xmlns="http://www.w3.org/2000/svg" width="1600" height="1200" viewBox="0 0 1600 1200" role="img"><title>Hexápode — Hilo pulmonar</title><rect width="1600" height="1200" fill="#F7F4EC"/><text x="70" y="110" font-family="Georgia" font-size="64" fill="#2B2E34">Hexápode — Hilo pulmonar</text><text x="72" y="160" font-family="Arial" font-size="24" fill="#6A727A">ANATOMIA RESPIRATÓRIA II · ATIVO CANÔNICO</text><ellipse cx="500" cy="520" rx="260" ry="330" fill="#F2C8BF" stroke="#2B2E34" stroke-width="7"/><rect x="450" y="180" width="100" height="300" rx="40" fill="#DCD2BE" stroke="#2B2E34" stroke-width="7"/><path d="M500 470C420 500 350 570 280 680" stroke="#1D4E7A" stroke-width="34" fill="none"/><path d="M500 500C600 520 680 580 760 650" stroke="#B2473F" stroke-width="28" fill="none"/><path d="M500 540C590 630 650 700 710 780" stroke="#C45A3C" stroke-width="22" fill="none"/><rect x="900" y="260" width="560" height="520" rx="20" fill="#FCFAF5" stroke="#DCD2BE" stroke-width="3"/><text x="940" y="340" font-family="Arial" font-size="31">Brônquio</text><text x="940" y="430" font-family="Arial" font-size="31" fill="#1D4E7A">Artéria pulmonar</text><text x="940" y="520" font-family="Arial" font-size="31" fill="#B2473F">Veias pulmonares</text><rect x="70" y="940" width="1460" height="150" rx="16" fill="#E8E1D1"/><text x="105" y="1010" font-family="Arial" font-size="26">Hilo pulmonar esquemático com brônquio, artéria e veias pulmonares identificados.</text><text x="1300" y="1060" font-family="Arial" font-size="20" fill="#6A727A">HEX-G003-023</text></svg>