<svg xmlns="http://www.w3.org/2000/svg" viewBox="0 0 1600 1200" role="img" aria-labelledby="t d"><title id="t">Árvore traqueobrônquica avançada</title><desc id="d">Mapa integrado das gerações da via aérea da traqueia aos ácinos, com calibres e zonas funcionais.</desc><rect width="1600" height="1200" fill="#F7F4EC"/><text x="72" y="90" font-family="Arial" font-size="24" font-weight="700" fill="#1D4E7A">HEXÁPODE · ANATOMIA RESPIRATÓRIA AVANÇADA</text><text x="72" y="158" font-family="Georgia" font-size="54" font-weight="700" fill="#2B2E34">Árvore traqueobrônquica avançada</text><text x="74" y="204" font-family="Arial" font-size="22" fill="#6A727A">Mapa integrado das gerações da via aérea da traqueia aos ácinos, com calibres e zonas funcionais.</text><line x1="72" y1="236" x2="1528" y2="236" stroke="#DCD2BE" stroke-width="3"/><rect x="70" y="275" width="970" height="750" rx="28" fill="#FFFDF8" stroke="#DCD2BE" stroke-width="3"/><path d="M500 310 V460" stroke="#1696A3" stroke-width="54"/><path d="M500 460 C360 540 300 620 250 930 M500 460 C640 540 720 630 820 930" fill="none" stroke="#1696A3" stroke-width="46" stroke-linecap="round"/><path d="M390 570 l-110 90 M390 570 l-60 125" stroke="#1D4E7A" stroke-width="26" stroke-linecap="round"/><path d="M610 570 l110 90 M610 570 l60 125" stroke="#1D4E7A" stroke-width="26" stroke-linecap="round"/><path d="M330 690 l-110 90 M330 690 l-60 125" stroke="#1D4E7A" stroke-width="26" stroke-linecap="round"/><path d="M680 700 l110 90 M680 700 l60 125" stroke="#2E7D69" stroke-width="16" stroke-linecap="round"/><path d="M270 820 l-110 90 M270 820 l-60 125" stroke="#2E7D69" stroke-width="16" stroke-linecap="round"/><path d="M760 820 l110 90 M760 820 l60 125" stroke="#2E7D69" stroke-width="16" stroke-linecap="round"/><circle cx="135" cy="950" r="34" fill="#F4DDD9" stroke="#C45A3C" stroke-width="5"/><circle cx="230" cy="1000" r="34" fill="#F4DDD9" stroke="#C45A3C" stroke-width="5"/><circle cx="820" cy="990" r="34" fill="#F4DDD9" stroke="#C45A3C" stroke-width="5"/><circle cx="930" cy="940" r="34" fill="#F4DDD9" stroke="#C45A3C" stroke-width="5"/><rect x="1080" y="300" width="430" height="700" rx="24" fill="#FFFDF8" stroke="#DCD2BE" stroke-width="3"/><text x="1120" y="360" font-family="Arial" font-size="28" font-weight="700" fill="#1D4E7A">LEITURA ESTRUTURAL</text><circle cx="1135" cy="422" r="13" fill="#1696A3"/><text x="1170" y="430" font-family="Arial" font-size="23" fill="#2B2E34">Traqueia</text><line x1="1170" y1="450" x2="1450" y2="450" stroke="#DCD2BE" stroke-width="2"/><circle cx="1135" cy="527" r="13" fill="#1D4E7A"/><text x="1170" y="535" font-family="Arial" font-size="23" fill="#2B2E34">Zona condutora</text><line x1="1170" y1="555" x2="1450" y2="555" stroke="#DCD2BE" stroke-width="2"/><circle cx="1135" cy="632" r="13" fill="#C45A3C"/><text x="1170" y="640" font-family="Arial" font-size="23" fill="#2B2E34">Bronquíolo terminal</text><line x1="1170" y1="660" x2="1450" y2="660" stroke="#DCD2BE" stroke-width="2"/><circle cx="1135" cy="737" r="13" fill="#2E7D69"/><text x="1170" y="745" font-family="Arial" font-size="23" fill="#2B2E34">Zona respiratória</text><line x1="1170" y1="765" x2="1450" y2="765" stroke="#DCD2BE" stroke-width="2"/><circle cx="1135" cy="842" r="13" fill="#D39A2E"/><text x="1170" y="850" font-family="Arial" font-size="23" fill="#2B2E34">Ácinos</text><line x1="1170" y1="870" x2="1450" y2="870" stroke="#DCD2BE" stroke-width="2"/><text x="72" y="1150" font-family="Arial" font-size="20" fill="#6A727A">HEX-A022-220 · Hexápode · camada avançada</text></svg>