<svg xmlns="http://www.w3.org/2000/svg" viewBox="0 0 1600 1200" role="img" aria-labelledby="t d"><title id="t">Rede capilar alveolar avançada</title><desc id="d">Alvéolos envolvidos por rede capilar com hemácias e setas de troca gasosa.</desc><rect width="1600" height="1200" fill="#F7F4EC"/><rect width="1600" height="76" fill="#123A63"/><text x="70" y="50" font-family="Arial" font-size="28" font-weight="700" fill="white">HEXÁPODE · CAMADA AVANÇADA · A023</text><text x="70" y="155" font-family="Georgia" font-size="58" fill="#2B2E34">Rede capilar alveolar avançada</text><text x="72" y="205" font-family="Arial" font-size="24" fill="#6A727A">Microcirculação, recrutamento capilar e difusão gasosa.</text><g fill="#F4DDD9" stroke="#C45A3C" stroke-width="5"><circle cx="300" cy="420" r="70"/><circle cx="420" cy="390" r="70"/><circle cx="530" cy="450" r="70"/><circle cx="330" cy="570" r="70"/><circle cx="470" cy="590" r="70"/></g><path d="M210 330 C300 260 540 280 630 390 C720 500 650 730 500 790 C350 850 180 730 190 560" fill="none" stroke="#2F6FAE" stroke-width="24"/><path d="M500 790 C360 820 220 740 190 620" fill="none" stroke="#B2473F" stroke-width="24"/><g fill="#B2473F"><ellipse cx="270" cy="310" rx="24" ry="14"/><ellipse cx="355" cy="290" rx="24" ry="14"/><ellipse cx="610" cy="420" rx="24" ry="14"/></g><path d="M390 500 L390 360" stroke="#1696A3" stroke-width="8" marker-end="url(#a)"/><path d="M450 360 L450 500" stroke="#C45A3C" stroke-width="8" marker-end="url(#a)"/><defs><marker id="a" markerWidth="8" markerHeight="8" refX="6" refY="3" orient="auto"><path d="M0,0 L0,6 L6,3 z" fill="#2B2E34"/></marker></defs><rect x="790" y="300" width="680" height="500" rx="28" fill="#FFFDF8" stroke="#DCD2BE" stroke-width="4"/><text x="840" y="370" font-family="Arial" font-size="29" font-weight="700" fill="#123A63">TROCA E PERFUSÃO</text><text x="840" y="440" font-family="Arial" font-size="25" fill="#2B2E34">• recrutamento e distensão capilar</text><text x="840" y="500" font-family="Arial" font-size="25" fill="#2B2E34">• gradientes de O₂ e CO₂</text><text x="840" y="560" font-family="Arial" font-size="25" fill="#2B2E34">• relação entre fluxo, tempo e difusão</text><text x="70" y="1125" font-family="Arial" font-size="20" fill="#6A727A">HEX-A023-224 · Anatomia Respiratória II Avançada</text></svg>