<svg xmlns="http://www.w3.org/2000/svg" viewBox="0 0 1600 1200" role="img" aria-labelledby="t d"><title id="t">Inflamação</title><desc id="d">Sequência vetorial de reconhecimento, recrutamento celular e resolução inflamatória.</desc><rect width="1600" height="1200" fill="#F7F4EC"/><text x="80" y="110" font-family="Georgia" font-size="64" fill="#2B2E34">Inflamação</text><text x="80" y="160" font-family="Arial" font-size="25" fill="#6A727A">Resposta coordenada a lesão, infecção ou dano tecidual</text><line x1="80" y1="200" x2="1520" y2="200" stroke="#DCD2BE" stroke-width="3"/><g transform="translate(80 300)" font-family="Arial"><g><rect width="330" height="600" rx="28" fill="#FFFDF8" stroke="#DCD2BE" stroke-width="3"/><text x="165" y="55" text-anchor="middle" font-size="28" font-weight="700" fill="#B2473F">1 · LESÃO</text><path d="M90 290 L145 220 L190 300 L235 210 L260 300" fill="#F3E2D8" stroke="#B2473F" stroke-width="7"/><g fill="#B2473F"><circle cx="110" cy="360" r="22"/><circle cx="180" cy="390" r="18"/><circle cx="245" cy="350" r="20"/></g></g><g transform="translate(370 0)"><rect width="330" height="600" rx="28" fill="#FFFDF8" stroke="#DCD2BE" stroke-width="3"/><text x="165" y="55" text-anchor="middle" font-size="28" font-weight="700" fill="#D39A2E">2 · SINAL</text><circle cx="165" cy="290" r="95" fill="#F6E8C4" stroke="#D39A2E" stroke-width="6"/><g stroke="#D39A2E" stroke-width="8"><line x1="165" y1="145" x2="165" y2="100"/><line x1="165" y1="480" x2="165" y2="435"/><line x1="20" y1="290" x2="65" y2="290"/><line x1="265" y1="290" x2="310" y2="290"/></g></g><g transform="translate(740 0)"><rect width="330" height="600" rx="28" fill="#FFFDF8" stroke="#DCD2BE" stroke-width="3"/><text x="165" y="55" text-anchor="middle" font-size="28" font-weight="700" fill="#1D4E7A">3 · RECRUTAMENTO</text><path d="M35 330 C90 250 230 250 295 330" fill="none" stroke="#1D4E7A" stroke-width="45"/><g fill="#2E7D69"><circle cx="90" cy="215" r="30"/><circle cx="165" cy="180" r="30"/><circle cx="240" cy="220" r="30"/></g><path d="M90 250 L115 300 M165 215 L165 300 M240 255 L215 300" stroke="#2E7D69" stroke-width="10"/></g><g transform="translate(1110 0)"><rect width="330" height="600" rx="28" fill="#FFFDF8" stroke="#DCD2BE" stroke-width="3"/><text x="165" y="55" text-anchor="middle" font-size="28" font-weight="700" fill="#2E7D69">4 · RESOLUÇÃO</text><path d="M60 350 C130 270 210 270 275 350" fill="none" stroke="#C45A3C" stroke-width="12"/><path d="M90 235 L145 295 L250 165" fill="none" stroke="#2E7D69" stroke-width="24" stroke-linecap="round" stroke-linejoin="round"/></g></g><path d="M300 960 H1300" stroke="#1696A3" stroke-width="12"/><polygon points="1300,960 1250,930 1250,990" fill="#1696A3"/><text x="80" y="1140" font-family="Arial" font-size="21" fill="#6A727A">HEX-G020-195 · Hexápode · Biblioteca Universal</text></svg>