<svg xmlns="http://www.w3.org/2000/svg" viewBox="0 0 1600 1200" role="img" aria-labelledby="t d"><title id="t">Nervos</title><desc id="d">Prancha vetorial mostrando axônio mielinizado, fascículo e transmissão.</desc><rect width="1600" height="1200" fill="#F7F4EC"/><text x="80" y="110" font-family="Georgia" font-size="64" fill="#2B2E34">Nervos</text><text x="80" y="160" font-family="Arial" font-size="25" fill="#6A727A">Condução elétrica organizada do axônio ao fascículo</text><line x1="80" y1="200" x2="1520" y2="200" stroke="#DCD2BE" stroke-width="3"/><g transform="translate(100 280)"><circle cx="270" cy="310" r="210" fill="#FFFDF8" stroke="#2B2E34" stroke-width="8"/><circle cx="270" cy="310" r="150" fill="#E8E1D1" stroke="#1D4E7A" stroke-width="22"/><g fill="#C45A3C"><circle cx="220" cy="260" r="28"/><circle cx="320" cy="250" r="28"/><circle cx="205" cy="355" r="28"/><circle cx="315" cy="360" r="28"/></g><text x="270" y="590" font-family="Arial" font-size="28" font-weight="700" text-anchor="middle" fill="#1D4E7A">FASCÍCULO</text></g><g transform="translate(630 350)"><path d="M0 180 H760" stroke="#C45A3C" stroke-width="28"/><g fill="#F6E8C4" stroke="#D39A2E" stroke-width="5"><rect x="45" y="120" width="130" height="120" rx="60"/><rect x="220" y="120" width="130" height="120" rx="60"/><rect x="395" y="120" width="130" height="120" rx="60"/><rect x="570" y="120" width="130" height="120" rx="60"/></g><g fill="#2B2E34"><circle cx="198" cy="180" r="12"/><circle cx="373" cy="180" r="12"/><circle cx="548" cy="180" r="12"/></g><path d="M10 60 C170 10 310 100 470 50 S690 85 750 40" fill="none" stroke="#1696A3" stroke-width="10"/><polygon points="750,40 710,22 715,62" fill="#1696A3"/><text x="380" y="330" font-family="Arial" font-size="26" text-anchor="middle" fill="#6A727A">condução saltatória entre nós</text></g><rect x="185" y="940" width="1230" height="90" rx="20" fill="#E8E1D1"/><text x="800" y="997" font-family="Arial" font-size="27" text-anchor="middle" fill="#2B2E34">axônio + mielina + tecido conjuntivo = nervo periférico</text><text x="80" y="1140" font-family="Arial" font-size="21" fill="#6A727A">HEX-G020-194 · Hexápode · Biblioteca Universal</text></svg>