<svg xmlns="http://www.w3.org/2000/svg" viewBox="0 0 1600 1200" role="img"><title>AVC</title><rect width="1600" height="1200" fill="#F7F4EC"/><text x="72" y="92" font-family="Arial" font-size="24" font-weight="700" fill="#1D4E7A">HEXÁPODE · G017 NEUROLOGIA</text><text x="72" y="164" font-family="Georgia" font-size="60" fill="#2B2E34">AVC</text><text x="74" y="210" font-family="Arial" font-size="24" fill="#6A727A">Isquemia, penumbra e hemorragia</text><line x1="72" y1="238" x2="1528" y2="238" stroke="#DCD2BE" stroke-width="3"/><rect x="72" y="275" width="1456" height="800" rx="28" fill="#FFFDF8" stroke="#DCD2BE" stroke-width="3"/><g transform="translate(130 330)"><rect x="0" y="0" width="620" height="660" rx="24" fill="#FFFDF8" stroke="#DCD2BE" stroke-width="4"/><text x="40" y="70" font-family="Arial" font-size="31" font-weight="700" fill="#1D4E7A">ISQUÊMICO</text><path d="M120 350 C80 180 220 90 380 140 C520 115 570 250 500 390 C450 500 280 540 160 470Z" fill="#E8E1D1" stroke="#2B2E34" stroke-width="5"/><circle cx="350" cy="330" r="95" fill="#F6E8C4" stroke="#D39A2E" stroke-width="4"/><circle cx="350" cy="330" r="48" fill="#F3C7C2" stroke="#B2473F" stroke-width="4"/><path d="M80 170 C200 210 265 255 330 300" fill="none" stroke="#1D4E7A" stroke-width="18"/><rect x="235" y="245" width="55" height="22" rx="8" fill="#B2473F"/><text x="210" y="590" font-family="Arial" font-size="25" fill="#D39A2E">penumbra</text><text x="345" y="590" font-family="Arial" font-size="25" fill="#B2473F">núcleo</text><rect x="690" y="0" width="620" height="660" rx="24" fill="#FFFDF8" stroke="#DCD2BE" stroke-width="4"/><text x="730" y="70" font-family="Arial" font-size="31" font-weight="700" fill="#B2473F">HEMORRÁGICO</text><path d="M810 350 C770 180 910 90 1070 140 C1210 115 1260 250 1190 390 C1140 500 970 540 850 470Z" fill="#E8E1D1" stroke="#2B2E34" stroke-width="5"/><circle cx="1040" cy="330" r="92" fill="#E8A8A0" stroke="#B2473F" stroke-width="6"/><g fill="#B2473F"><circle cx="930" cy="260" r="18"/><circle cx="1160" cy="250" r="15"/><circle cx="1150" cy="430" r="20"/></g><text x="925" y="590" font-family="Arial" font-size="25" fill="#B2473F">sangramento e efeito de massa</text></g><text x="72" y="1150" font-family="Arial" font-size="20" fill="#6A727A">HEX-G017-167 · Hexápode · Neurologia</text></svg>