<svg xmlns="http://www.w3.org/2000/svg" viewBox="0 0 1600 1200" role="img"><title>IAM</title><rect width="1600" height="1200" fill="#F7F4EC"/><text x="72" y="98" font-family="Arial" font-size="26" font-weight="700" fill="#1D4E7A">HEXÁPODE</text><text x="72" y="166" font-family="Georgia" font-size="58" font-weight="700" fill="#2B2E34">IAM</text><text x="74" y="210" font-family="Arial" font-size="24" fill="#6A727A">Isquemia miocárdica aguda e alteração elétrica</text><line x1="72" y1="238" x2="1528" y2="238" stroke="#DCD2BE" stroke-width="3"/><rect x="72" y="275" width="1456" height="760" rx="24" fill="#FFFDF8" stroke="#DCD2BE" stroke-width="2"/><path d="M360 430 C260 350 195 455 360 610 C525 455 460 350 360 430Z" fill="#F4DDD9" stroke="#B2473F" stroke-width="5"/><path d="M285 485 C330 455 390 535 440 480" fill="none" stroke="#1D4E7A" stroke-width="12"/><circle cx="360" cy="490" r="24" fill="#B2473F" stroke="#2B2E34" stroke-width="3"/><path d="M660 470 L720 470 L755 448 L782 495 L812 470 L860 470 L892 365 L920 560 L950 430 L980 470 L1060 470 L1110 450 L1150 492 L1200 470 L1370 470" fill="none" stroke="#B2473F" stroke-width="9"/><text x="1010" y="360" font-family="Arial" font-size="26" font-weight="700" fill="#B2473F" text-anchor="middle">alteração do segmento ST</text><rect x="230" y="760" width="1120" height="120" rx="24" fill="#E8E1D1"/><text x="790" y="812" font-family="Arial" font-size="28" font-weight="700" fill="#2B2E34" text-anchor="middle">placa → trombo → redução de fluxo → isquemia</text><text x="790" y="855" font-family="Arial" font-size="23" fill="#6A727A" text-anchor="middle">A extensão depende do território, duração e circulação colateral.</text><text x="72" y="1152" font-family="Arial" font-size="20" fill="#6A727A">HEX-G014-132 · Cardio · Emergências</text></svg>