<svg xmlns="http://www.w3.org/2000/svg" viewBox="0 0 1600 1200" role="img" aria-labelledby="t d"><title id="t">Brônquios avançados</title><desc id="d">Assimetria dos brônquios principais, ramificações lobares e implicações para aspiração e intubação seletiva.</desc><rect width="1600" height="1200" fill="#F7F4EC"/><text x="72" y="90" font-family="Arial" font-size="24" font-weight="700" fill="#1D4E7A">HEXÁPODE · ANATOMIA RESPIRATÓRIA AVANÇADA</text><text x="72" y="158" font-family="Georgia" font-size="54" font-weight="700" fill="#2B2E34">Brônquios avançados</text><text x="74" y="204" font-family="Arial" font-size="22" fill="#6A727A">Assimetria dos brônquios principais, ramificações lobares e implicações para aspiração e intubação seletiva.</text><line x1="72" y1="236" x2="1528" y2="236" stroke="#DCD2BE" stroke-width="3"/><rect x="70" y="275" width="970" height="750" rx="28" fill="#FFFDF8" stroke="#DCD2BE" stroke-width="3"/><path d="M520 320 V470" stroke="#1696A3" stroke-width="74" stroke-linecap="round"/><path d="M520 470 L330 730 M520 470 L760 700" stroke="#1696A3" stroke-width="74" stroke-linecap="round"/><path d="M330 730 L220 900 M330 730 L410 930 M760 700 L680 910 M760 700 L900 850" stroke="#1696A3" stroke-width="48" stroke-linecap="round"/><path d="M520 470 L760 700" stroke="#B2473F" stroke-width="7" stroke-dasharray="16 13"/><path d="M520 470 L330 730" stroke="#1D4E7A" stroke-width="7" stroke-dasharray="16 13"/><text x="250" y="1000" font-family="Arial" font-size="24" fill="#6A727A">Direito mais vertical · esquerdo mais horizontal</text><rect x="1080" y="300" width="430" height="700" rx="24" fill="#FFFDF8" stroke="#DCD2BE" stroke-width="3"/><text x="1120" y="360" font-family="Arial" font-size="28" font-weight="700" fill="#1D4E7A">LEITURA ESTRUTURAL</text><circle cx="1135" cy="422" r="13" fill="#1696A3"/><text x="1170" y="430" font-family="Arial" font-size="23" fill="#2B2E34">Brônquio principal direito</text><line x1="1170" y1="450" x2="1450" y2="450" stroke="#DCD2BE" stroke-width="2"/><circle cx="1135" cy="527" r="13" fill="#1D4E7A"/><text x="1170" y="535" font-family="Arial" font-size="23" fill="#2B2E34">Brônquio principal esquerdo</text><line x1="1170" y1="555" x2="1450" y2="555" stroke="#DCD2BE" stroke-width="2"/><circle cx="1135" cy="632" r="13" fill="#C45A3C"/><text x="1170" y="640" font-family="Arial" font-size="23" fill="#2B2E34">Brônquios lobares</text><line x1="1170" y1="660" x2="1450" y2="660" stroke="#DCD2BE" stroke-width="2"/><circle cx="1135" cy="737" r="13" fill="#2E7D69"/><text x="1170" y="745" font-family="Arial" font-size="23" fill="#2B2E34">Ângulo da carina</text><line x1="1170" y1="765" x2="1450" y2="765" stroke="#DCD2BE" stroke-width="2"/><text x="72" y="1150" font-family="Arial" font-size="20" fill="#6A727A">HEX-A022-212 · Hexápode · camada avançada</text></svg>