<svg xmlns="http://www.w3.org/2000/svg" viewBox="0 0 1600 1200" role="img" aria-labelledby="t d"><title id="t">Tensão superficial e surfactante</title><desc id="d">Ação do surfactante na interface ar-líquido alveolar.</desc><rect width="1600" height="1200" fill="#F7F4EC"/><text x="90" y="120" font-family="Georgia" font-size="62" fill="#2B2E34">Tensão superficial e surfactante</text><text x="90" y="170" font-family="Arial" font-size="24" fill="#6A727A">Estabilização alveolar na interface ar-líquido</text><line x1="90" y1="205" x2="1510" y2="205" stroke="#DCD2BE" stroke-width="3"/><g transform="translate(220 290)"><circle cx="560" cy="390" r="300" fill="#FFFDF8" stroke="#2B2E34" stroke-width="8"/><path d="M300 460 Q560 580 820 460" fill="#CDE8EA" stroke="#1696A3" stroke-width="6"/><g fill="#D39A2E"> <circle cx="350" cy="440" r="14"/><circle cx="410" cy="465" r="14"/><circle cx="470" cy="485" r="14"/><circle cx="530" cy="495" r="14"/><circle cx="590" cy="495" r="14"/><circle cx="650" cy="485" r="14"/><circle cx="710" cy="465" r="14"/><circle cx="770" cy="440" r="14"/></g><path d="M390 250 V390 M470 210 V370 M560 190 V360 M650 210 V370 M730 250 V390" stroke="#B2473F" stroke-width="10"/><polygon points="390,410 365,365 415,365" fill="#B2473F"/><polygon points="470,390 445,345 495,345" fill="#B2473F"/><polygon points="560,380 535,335 585,335" fill="#B2473F"/><polygon points="650,390 625,345 675,345" fill="#B2473F"/><polygon points="730,410 705,365 755,365" fill="#B2473F"/><text x="380" y="780" font-family="Arial" font-size="30" fill="#1D4E7A">surfactante ↓ tensão superficial</text></g><text x="90" y="1120" font-family="Arial" font-size="20" fill="#6A727A">HEX-A024-238 · Hexápode · Mecânica Respiratória Avançada</text></svg>