<svg xmlns="http://www.w3.org/2000/svg" viewBox="0 0 1600 1200" role="img"><title>Pressão intracraniana</title><rect width="1600" height="1200" fill="#F7F4EC"/><text x="72" y="92" font-family="Arial" font-size="24" font-weight="700" fill="#1D4E7A">HEXÁPODE · G017 NEUROLOGIA</text><text x="72" y="164" font-family="Georgia" font-size="60" fill="#2B2E34">Pressão intracraniana</text><text x="74" y="210" font-family="Arial" font-size="24" fill="#6A727A">Doutrina de Monro–Kellie e compensação limitada</text><line x1="72" y1="238" x2="1528" y2="238" stroke="#DCD2BE" stroke-width="3"/><rect x="72" y="275" width="1456" height="800" rx="28" fill="#FFFDF8" stroke="#DCD2BE" stroke-width="3"/><g transform="translate(150 330)"><path d="M180 420 C120 190 300 50 550 110 C760 45 930 170 940 400 C950 610 780 720 550 690 C300 740 180 630 180 420Z" fill="#FFFDF8" stroke="#2B2E34" stroke-width="10"/><path d="M260 410 C220 250 350 150 520 180 C680 135 830 240 830 410 C830 565 700 625 530 600 C360 635 255 560 260 410Z" fill="#E8D9E8" stroke="#1D4E7A" stroke-width="6"/><g fill="#B2473F"><circle cx="475" cy="330" r="42"/><circle cx="610" cy="470" r="38"/></g><path d="M510 240 C470 320 470 470 520 545" fill="none" stroke="#1696A3" stroke-width="22"/><g transform="translate(1040 150)"><circle cx="190" cy="190" r="150" fill="#E8E1D1" stroke="#DCD2BE" stroke-width="4"/><path d="M190 190 L190 40 A150 150 0 0 1 320 265 Z" fill="#1D4E7A"/><path d="M190 190 L320 265 A150 150 0 0 1 80 300 Z" fill="#B2473F"/><path d="M190 190 L80 300 A150 150 0 0 1 190 40 Z" fill="#1696A3"/><text x="130" y="10" font-family="Arial" font-size="25" fill="#2B2E34">volume fixo</text></g><g font-family="Arial" font-size="27" fill="#2B2E34"><text x="1040" y="570">encéfalo</text><text x="1040" y="620">sangue</text><text x="1040" y="670">líquor</text></g><path d="M1010 760 H1370" stroke="#B2473F" stroke-width="12"/><polygon points="1370,760 1330,735 1330,785" fill="#B2473F"/><text x="1020" y="825" font-family="Arial" font-size="27" fill="#B2473F">compensação esgotada → PIC sobe</text></g><text x="72" y="1150" font-family="Arial" font-size="20" fill="#6A727A">HEX-G017-169 · Hexápode · Neurologia</text></svg>