<svg xmlns="http://www.w3.org/2000/svg" viewBox="0 0 1600 1200" role="img" aria-labelledby="t d"><title id="t">Imunidade</title><desc id="d">Prancha vetorial comparando imunidade inata e adaptativa.</desc><rect width="1600" height="1200" fill="#F7F4EC"/><text x="80" y="110" font-family="Georgia" font-size="64" fill="#2B2E34">Imunidade</text><text x="80" y="160" font-family="Arial" font-size="25" fill="#6A727A">Defesa em camadas: resposta imediata, especificidade e memória</text><line x1="80" y1="200" x2="1520" y2="200" stroke="#DCD2BE" stroke-width="3"/><g transform="translate(100 290)" font-family="Arial"><rect width="650" height="690" rx="30" fill="#FFFDF8" stroke="#DCD2BE" stroke-width="3"/><text x="325" y="60" text-anchor="middle" font-size="32" font-weight="700" fill="#D39A2E">IMUNIDADE INATA</text><path d="M115 220 Q325 80 535 220 V440 Q325 600 115 440Z" fill="#F6E8C4" stroke="#D39A2E" stroke-width="8"/><circle cx="325" cy="330" r="90" fill="#2E7D69"/><g stroke="#2E7D69" stroke-width="18" stroke-linecap="round"><line x1="325" y1="180" x2="325" y2="125"/><line x1="325" y1="535" x2="325" y2="480"/><line x1="175" y1="330" x2="120" y2="330"/><line x1="530" y1="330" x2="475" y2="330"/><line x1="220" y1="225" x2="180" y2="185"/><line x1="430" y1="435" x2="470" y2="475"/></g><text x="325" y="640" text-anchor="middle" font-size="24" fill="#6A727A">barreiras · fagócitos · complemento</text></g><g transform="translate(850 290)" font-family="Arial"><rect width="650" height="690" rx="30" fill="#FFFDF8" stroke="#DCD2BE" stroke-width="3"/><text x="325" y="60" text-anchor="middle" font-size="32" font-weight="700" fill="#1D4E7A">IMUNIDADE ADAPTATIVA</text><path d="M125 220 Q325 80 525 220 V430 Q325 580 125 430Z" fill="#D8E5F2" stroke="#1D4E7A" stroke-width="8"/><path d="M230 300 L325 390 L430 255" fill="none" stroke="#2E7D69" stroke-width="26" stroke-linecap="round" stroke-linejoin="round"/><g fill="#B2473F"><circle cx="195" cy="180" r="24"/><circle cx="455" cy="185" r="24"/></g><path d="M190 180 C230 150 260 150 290 180 M460 185 C420 150 390 150 360 185" fill="none" stroke="#B2473F" stroke-width="9"/><text x="325" y="640" text-anchor="middle" font-size="24" fill="#6A727A">linfócitos · anticorpos · memória</text></g><text x="80" y="1140" font-family="Arial" font-size="21" fill="#6A727A">HEX-G020-197 · Hexápode · Biblioteca Universal</text></svg>