<svg xmlns="http://www.w3.org/2000/svg" viewBox="0 0 1600 1200" role="img" aria-labelledby="t d"><title id="t">Biblioteca de ícones aplicada</title><desc id="d">Sistema iconográfico transversal com anatomia, fisiologia, risco e ações clínicas.</desc><rect width="1600" height="1200" fill="#F7F4EC"/><text x="72" y="90" font-family="Arial" font-size="24" font-weight="700" fill="#1D4E7A">HEXÁPODE · CAMADA AVANÇADA</text><text x="72" y="162" font-family="Georgia" font-size="58" font-weight="700" fill="#2B2E34">Biblioteca de ícones aplicada</text><text x="74" y="208" font-family="Arial" font-size="24" fill="#6A727A">Sistema iconográfico transversal com anatomia, fisiologia, risco e ações clínicas.</text><line x1="72" y1="238" x2="1528" y2="238" stroke="#DCD2BE" stroke-width="3"/><rect x="80" y="290" width="450" height="215" rx="22" fill="#FFFDF8" stroke="#DCD2BE" stroke-width="3"/><text x="104" y="334" font-family="Arial" font-size="25" font-weight="700" fill="#1D4E7A">Anatomia</text><circle cx="150" cy="425" r="28" fill="none" stroke="#1D4E7A" stroke-width="5"/><path d="M135 425 H165 M150 410 V165" stroke="#1D4E7A" stroke-width="4"/><circle cx="245" cy="425" r="28" fill="none" stroke="#1D4E7A" stroke-width="5"/><path d="M230 425 H260 M245 410 V260" stroke="#1D4E7A" stroke-width="4"/><circle cx="340" cy="425" r="28" fill="none" stroke="#1D4E7A" stroke-width="5"/><path d="M325 425 H355 M340 410 V355" stroke="#1D4E7A" stroke-width="4"/><circle cx="435" cy="425" r="28" fill="none" stroke="#1D4E7A" stroke-width="5"/><path d="M420 425 H450 M435 410 V450" stroke="#1D4E7A" stroke-width="4"/><rect x="580" y="290" width="450" height="215" rx="22" fill="#FFFDF8" stroke="#DCD2BE" stroke-width="3"/><text x="604" y="334" font-family="Arial" font-size="25" font-weight="700" fill="#2E7D69">Fisiologia</text><circle cx="650" cy="425" r="28" fill="none" stroke="#2E7D69" stroke-width="5"/><path d="M635 425 H665 M650 410 V665" stroke="#2E7D69" stroke-width="4"/><circle cx="745" cy="425" r="28" fill="none" stroke="#2E7D69" stroke-width="5"/><path d="M730 425 H760 M745 410 V760" stroke="#2E7D69" stroke-width="4"/><circle cx="840" cy="425" r="28" fill="none" stroke="#2E7D69" stroke-width="5"/><path d="M825 425 H855 M840 410 V855" stroke="#2E7D69" stroke-width="4"/><circle cx="935" cy="425" r="28" fill="none" stroke="#2E7D69" stroke-width="5"/><path d="M920 425 H950 M935 410 V950" stroke="#2E7D69" stroke-width="4"/><rect x="1080" y="290" width="450" height="215" rx="22" fill="#FFFDF8" stroke="#DCD2BE" stroke-width="3"/><text x="1104" y="334" font-family="Arial" font-size="25" font-weight="700" fill="#1696A3">Respiração</text><circle cx="1150" cy="425" r="28" fill="none" stroke="#1696A3" stroke-width="5"/><path d="M1135 425 H1165 M1150 410 V1165" stroke="#1696A3" stroke-width="4"/><circle cx="1245" cy="425" r="28" fill="none" stroke="#1696A3" stroke-width="5"/><path d="M1230 425 H1260 M1245 410 V1260" stroke="#1696A3" stroke-width="4"/><circle cx="1340" cy="425" r="28" fill="none" stroke="#1696A3" stroke-width="5"/><path d="M1325 425 H1355 M1340 410 V1355" stroke="#1696A3" stroke-width="4"/><circle cx="1435" cy="425" r="28" fill="none" stroke="#1696A3" stroke-width="5"/><path d="M1420 425 H1450 M1435 410 V1450" stroke="#1696A3" stroke-width="4"/><rect x="80" y="540" width="450" height="215" rx="22" fill="#FFFDF8" stroke="#DCD2BE" stroke-width="3"/><text x="104" y="584" font-family="Arial" font-size="25" font-weight="700" fill="#B2473F">Cardio</text><circle cx="150" cy="675" r="28" fill="none" stroke="#B2473F" stroke-width="5"/><path d="M135 675 H165 M150 660 V165" stroke="#B2473F" stroke-width="4"/><circle cx="245" cy="675" r="28" fill="none" stroke="#B2473F" stroke-width="5"/><path d="M230 675 H260 M245 660 V260" stroke="#B2473F" stroke-width="4"/><circle cx="340" cy="675" r="28" fill="none" stroke="#B2473F" stroke-width="5"/><path d="M325 675 H355 M340 660 V355" stroke="#B2473F" stroke-width="4"/><circle cx="435" cy="675" r="28" fill="none" stroke="#B2473F" stroke-width="5"/><path d="M420 675 H450 M435 660 V450" stroke="#B2473F" stroke-width="4"/><rect x="580" y="540" width="450" height="215" rx="22" fill="#FFFDF8" stroke="#DCD2BE" stroke-width="3"/><text x="604" y="584" font-family="Arial" font-size="25" font-weight="700" fill="#76659A">Neuro</text><circle cx="650" cy="675" r="28" fill="none" stroke="#76659A" stroke-width="5"/><path d="M635 675 H665 M650 660 V665" stroke="#76659A" stroke-width="4"/><circle cx="745" cy="675" r="28" fill="none" stroke="#76659A" stroke-width="5"/><path d="M730 675 H760 M745 660 V760" stroke="#76659A" stroke-width="4"/><circle cx="840" cy="675" r="28" fill="none" stroke="#76659A" stroke-width="5"/><path d="M825 675 H855 M840 660 V855" stroke="#76659A" stroke-width="4"/><circle cx="935" cy="675" r="28" fill="none" stroke="#76659A" stroke-width="5"/><path d="M920 675 H950 M935 660 V950" stroke="#76659A" stroke-width="4"/><rect x="1080" y="540" width="450" height="215" rx="22" fill="#FFFDF8" stroke="#DCD2BE" stroke-width="3"/><text x="1104" y="584" font-family="Arial" font-size="25" font-weight="700" fill="#1D4E7A">Nefro</text><circle cx="1150" cy="675" r="28" fill="none" stroke="#1D4E7A" stroke-width="5"/><path d="M1135 675 H1165 M1150 660 V1165" stroke="#1D4E7A" stroke-width="4"/><circle cx="1245" cy="675" r="28" fill="none" stroke="#1D4E7A" stroke-width="5"/><path d="M1230 675 H1260 M1245 660 V1260" stroke="#1D4E7A" stroke-width="4"/><circle cx="1340" cy="675" r="28" fill="none" stroke="#1D4E7A" stroke-width="5"/><path d="M1325 675 H1355 M1340 660 V1355" stroke="#1D4E7A" stroke-width="4"/><circle cx="1435" cy="675" r="28" fill="none" stroke="#1D4E7A" stroke-width="5"/><path d="M1420 675 H1450 M1435 660 V1450" stroke="#1D4E7A" stroke-width="4"/><rect x="80" y="790" width="450" height="215" rx="22" fill="#FFFDF8" stroke="#DCD2BE" stroke-width="3"/><text x="104" y="834" font-family="Arial" font-size="25" font-weight="700" fill="#D39A2E">Trauma</text><circle cx="150" cy="925" r="28" fill="none" stroke="#D39A2E" stroke-width="5"/><path d="M135 925 H165 M150 910 V165" stroke="#D39A2E" stroke-width="4"/><circle cx="245" cy="925" r="28" fill="none" stroke="#D39A2E" stroke-width="5"/><path d="M230 925 H260 M245 910 V260" stroke="#D39A2E" stroke-width="4"/><circle cx="340" cy="925" r="28" fill="none" stroke="#D39A2E" stroke-width="5"/><path d="M325 925 H355 M340 910 V355" stroke="#D39A2E" stroke-width="4"/><circle cx="435" cy="925" r="28" fill="none" stroke="#D39A2E" stroke-width="5"/><path d="M420 925 H450 M435 910 V450" stroke="#D39A2E" stroke-width="4"/><rect x="580" y="790" width="450" height="215" rx="22" fill="#FFFDF8" stroke="#DCD2BE" stroke-width="3"/><text x="604" y="834" font-family="Arial" font-size="25" font-weight="700" fill="#2E7D69">Farmaco</text><circle cx="650" cy="925" r="28" fill="none" stroke="#2E7D69" stroke-width="5"/><path d="M635 925 H665 M650 910 V665" stroke="#2E7D69" stroke-width="4"/><circle cx="745" cy="925" r="28" fill="none" stroke="#2E7D69" stroke-width="5"/><path d="M730 925 H760 M745 910 V760" stroke="#2E7D69" stroke-width="4"/><circle cx="840" cy="925" r="28" fill="none" stroke="#2E7D69" stroke-width="5"/><path d="M825 925 H855 M840 910 V855" stroke="#2E7D69" stroke-width="4"/><circle cx="935" cy="925" r="28" fill="none" stroke="#2E7D69" stroke-width="5"/><path d="M920 925 H950 M935 910 V950" stroke="#2E7D69" stroke-width="4"/><rect x="1080" y="790" width="450" height="215" rx="22" fill="#FFFDF8" stroke="#DCD2BE" stroke-width="3"/><text x="1104" y="834" font-family="Arial" font-size="25" font-weight="700" fill="#B2473F">Alertas</text><circle cx="1150" cy="925" r="28" fill="none" stroke="#B2473F" stroke-width="5"/><path d="M1135 925 H1165 M1150 910 V1165" stroke="#B2473F" stroke-width="4"/><circle cx="1245" cy="925" r="28" fill="none" stroke="#B2473F" stroke-width="5"/><path d="M1230 925 H1260 M1245 910 V1260" stroke="#B2473F" stroke-width="4"/><circle cx="1340" cy="925" r="28" fill="none" stroke="#B2473F" stroke-width="5"/><path d="M1325 925 H1355 M1340 910 V1355" stroke="#B2473F" stroke-width="4"/><circle cx="1435" cy="925" r="28" fill="none" stroke="#B2473F" stroke-width="5"/><path d="M1420 925 H1450 M1435 910 V1450" stroke="#B2473F" stroke-width="4"/><text x="72" y="1150" font-family="Arial" font-size="20" fill="#6A727A">HEX-A021-203 · Hexápode · avançado</text></svg>