<svg xmlns="http://www.w3.org/2000/svg" viewBox="0 0 1600 1200" role="img" aria-labelledby="t d"><title id="t">Trabalho respiratório</title><desc id="d">Integração entre carga elástica, resistiva e esforço muscular.</desc><rect width="1600" height="1200" fill="#F7F4EC"/><text x="90" y="120" font-family="Georgia" font-size="62" fill="#2B2E34">Trabalho respiratório</text><text x="90" y="170" font-family="Arial" font-size="24" fill="#6A727A">Carga total imposta ao sistema respiratório</text><line x1="90" y1="205" x2="1510" y2="205" stroke="#DCD2BE" stroke-width="3"/><g transform="translate(300 280)"><path d="M150 650 A360 360 0 0 1 870 650" fill="none" stroke="#DCD2BE" stroke-width="80"/><path d="M150 650 A360 360 0 0 1 390 330" fill="none" stroke="#2E7D69" stroke-width="80"/><path d="M390 330 A360 360 0 0 1 640 330" fill="none" stroke="#D39A2E" stroke-width="80"/><path d="M640 330 A360 360 0 0 1 870 650" fill="none" stroke="#B2473F" stroke-width="80"/><line x1="510" y1="650" x2="720" y2="410" stroke="#2B2E34" stroke-width="18"/><circle cx="510" cy="650" r="32" fill="#2B2E34"/><text x="510" y="790" text-anchor="middle" font-family="Arial" font-size="34" fill="#2B2E34">moderado</text><g font-family="Arial" font-size="26"><text x="170" y="920" fill="#2E7D69">carga elástica</text><text x="440" y="920" fill="#D39A2E">carga resistiva</text><text x="720" y="920" fill="#B2473F">esforço muscular</text></g></g><text x="90" y="1120" font-family="Arial" font-size="20" fill="#6A727A">HEX-A024-240 · Hexápode · Mecânica Respiratória Avançada</text></svg>