<svg xmlns="http://www.w3.org/2000/svg" width="1600" height="1200"><rect width="1600" height="1200" fill="#F7F4EC"/><text x="70" y="110" font-family="Georgia" font-size="64" fill="#2B2E34">Hexápode — Capilares alveolares</text><text x="72" y="160" font-family="Arial" font-size="24" fill="#6A727A">ANATOMIA RESPIRATÓRIA II · ATIVO CANÔNICO</text><g fill="#F2C8BF" stroke="#2B2E34" stroke-width="5"><circle cx="330" cy="390" r="95"/><circle cx="500" cy="340" r="95"/><circle cx="650" cy="430" r="95"/><circle cx="390" cy="570" r="95"/><circle cx="570" cy="590" r="95"/></g><path d="M190 300C330 220 620 250 770 400C850 520 740 720 510 760C280 800 150 620 190 300Z" fill="none" stroke="#1D4E7A" stroke-width="24"/><path d="M220 350C400 420 580 300 740 500M210 610C400 520 590 700 740 620" fill="none" stroke="#B2473F" stroke-width="16"/><g fill="#B2473F"><ellipse cx="270" cy="330" rx="20" ry="10"/><ellipse cx="730" cy="490" rx="20" ry="10"/><ellipse cx="330" cy="690" rx="20" ry="10"/></g><text x="920" y="340" font-family="Arial" font-size="32" fill="#1D4E7A">Rede capilar</text><text x="920" y="430" font-family="Arial" font-size="32" fill="#B2473F">Hemácias</text><text x="920" y="520" font-family="Arial" font-size="32" fill="#1696A3">O₂ ↔ CO₂</text><rect x="70" y="940" width="1460" height="150" rx="16" fill="#E8E1D1"/><text x="105" y="1010" font-family="Arial" font-size="26">Rede capilar envolvendo alvéolos, com hemácias e setas de troca gasosa.</text><text x="1300" y="1060" font-family="Arial" font-size="20" fill="#6A727A">HEX-G003-024</text></svg>