<svg xmlns="http://www.w3.org/2000/svg" viewBox="0 0 1600 1200" role="img"><title>Túbulo distal</title><desc>Ajuste fino do filtrado</desc><rect width="1600" height="1200" fill="#F7F4EC"/><text x="72" y="92" font-family="Arial" font-size="24" font-weight="700" fill="#1D4E7A">HEXÁPODE · NEFROLOGIA</text><text x="72" y="165" font-family="Georgia" font-size="58" font-weight="700" fill="#2B2E34">Túbulo distal</text><text x="74" y="210" font-family="Arial" font-size="25" fill="#6A727A">Ajuste fino do filtrado</text><line x1="72" y1="240" x2="1528" y2="240" stroke="#DCD2BE" stroke-width="3"/><rect x="72" y="278" width="1456" height="760" rx="28" fill="#FFFDF8" stroke="#DCD2BE" stroke-width="2"/><rect x="180" y="470" width="850" height="310" rx="24" fill="#F8D9B7" stroke="#2B2E34" stroke-width="5"/><path d="M180 470 Q605 350 1030 470" fill="none" stroke="#1696A3" stroke-width="24"/><g fill="#EAB68C" stroke="#C45A3C" stroke-width="3"><rect x="225" y="500" width="95" height="230" rx="26"/><rect x="355" y="500" width="95" height="230" rx="26"/><rect x="485" y="500" width="95" height="230" rx="26"/><rect x="615" y="500" width="95" height="230" rx="26"/><rect x="745" y="500" width="95" height="230" rx="26"/><rect x="875" y="500" width="95" height="230" rx="26"/></g><g stroke="#1696A3" stroke-width="9" fill="#1696A3"><line x1="1080" y1="490" x2="1330" y2="490"/><polygon points="1330,490 1300,473 1300,507"/><line x1="1080" y1="575" x2="1330" y2="575"/><polygon points="1330,575 1300,558 1300,592"/><line x1="1080" y1="660" x2="1330" y2="660"/><polygon points="1330,660 1300,643 1300,677"/><line x1="1080" y1="745" x2="1330" y2="745"/><polygon points="1330,745 1300,728 1300,762"/></g><g font-family="Arial" font-size="24" fill="#1696A3" text-anchor="middle"><text x="1195" y="475">NaCl</text><text x="1195" y="560">Ca²⁺</text><text x="1195" y="645">K⁺</text><text x="1195" y="730">H⁺</text></g><text x="72" y="1145" font-family="Arial" font-size="20" fill="#6A727A">HEX-G016-155 · Hexápode · G016</text></svg>