<svg xmlns="http://www.w3.org/2000/svg" width="1600" height="1200" viewBox="0 0 1600 1200" role="img" aria-labelledby="t d"><title id="t">HEX-G006-054 — Traqueostomia</title><desc id="d">Cânula de traqueostomia esquemática com flange, cuff e conexão.</desc><rect width="1600" height="1200" fill="#F7F4EC"/><text x="90" y="110" font-family="Georgia,serif" font-size="58" fill="#2B2E34">Traqueostomia</text><text x="92" y="158" font-family="Arial" font-size="24" fill="#6A727A">cânula • flange • cuff • conector</text><line x1="90" y1="190" x2="1510" y2="190" stroke="#DCD2BE" stroke-width="3"/><path d="M670 270 Q850 390 820 650 Q790 820 980 875" fill="none" stroke="#1D4E7A" stroke-width="48"/><rect x="520" y="380" width="360" height="130" rx="30" fill="#E8E1D1" stroke="#2B2E34" stroke-width="7"/><circle cx="600" cy="445" r="24" fill="#F7F4EC" stroke="#2B2E34" stroke-width="5"/><circle cx="800" cy="445" r="24" fill="#F7F4EC" stroke="#2B2E34" stroke-width="5"/><ellipse cx="850" cy="700" rx="115" ry="72" fill="#1696A3" opacity=".3" stroke="#1696A3" stroke-width="8"/><line x1="820" y1="650" x2="570" y2="790" stroke="#6A727A" stroke-width="10"/><ellipse cx="520" cy="830" rx="58" ry="82" fill="#E8E1D1" stroke="#1D4E7A" stroke-width="7"/><g font-family="Arial" font-size="27" fill="#2B2E34"><text x="500" y="345">flange cervical</text><text x="930" y="720">cuff</text><text x="410" y="955">balonete piloto</text><text x="955" y="925">conector</text></g><rect x="240" y="1010" width="1120" height="92" rx="18" fill="#E8E1D1"/><text x="300" y="1068" font-family="Arial" font-size="26" fill="#6A727A">A prancha separa componentes permanentes de elementos de fixação e vedação.</text></svg>