<svg xmlns="http://www.w3.org/2000/svg" width="1600" height="1200" viewBox="0 0 1600 1200" role="img"><title>Hexápode — Segmentos pulmonares</title><rect width="1600" height="1200" fill="#F7F4EC"/><text x="70" y="110" font-family="Georgia" font-size="64" fill="#2B2E34">Hexápode — Segmentos pulmonares</text><text x="72" y="160" font-family="Arial" font-size="24" fill="#6A727A">ANATOMIA RESPIRATÓRIA II · ATIVO CANÔNICO</text><line x1="70" y1="200" x2="1530" y2="200" stroke="#DCD2BE" stroke-width="3"/><g stroke="#2B2E34" stroke-width="6"><path d="M360 260C250 300 230 500 280 700C330 760 400 720 440 650V310Z" fill="#E8E1D1"/><path d="M560 310V650C610 720 680 760 730 700C780 500 760 300 650 260Z" fill="#E8E1D1"/></g><g stroke-width="20" fill="none"><path d="M280 340Q360 300 440 340M270 430Q360 390 440 430M270 520Q360 480 440 520M285 610Q360 570 440 610" stroke="#1696A3"/><path d="M560 350Q650 310 740 350M560 450Q650 410 750 450M560 550Q650 510 740 550M570 640Q650 600 720 640" stroke="#C45A3C"/></g><rect x="900" y="260" width="560" height="520" rx="20" fill="#FCFAF5" stroke="#DCD2BE" stroke-width="3"/><text x="940" y="330" font-family="Arial" font-size="32" fill="#1D4E7A">Mapa segmentar</text><text x="940" y="400" font-family="Arial" font-size="28">• Segmentos por lobo</text><text x="940" y="460" font-family="Arial" font-size="28">• Vista esquemática</text><text x="940" y="520" font-family="Arial" font-size="28">• Codificação cromática</text><rect x="70" y="940" width="1460" height="150" rx="16" fill="#E8E1D1"/><text x="105" y="1010" font-family="Arial" font-size="26">Mapa esquemático dos segmentos broncopulmonares por lobo em vistas anterior e posterior.</text><text x="1300" y="1060" font-family="Arial" font-size="20" fill="#6A727A">HEX-G003-022</text></svg>