<svg xmlns="http://www.w3.org/2000/svg" viewBox="0 0 1600 1200" role="img" aria-labelledby="t d"><title id="t">Choque</title><desc id="d">Prancha sobre falha circulatória e inadequação entre oferta e demanda.</desc><rect width="1600" height="1200" fill="#F7F4EC"/><text x="90" y="120" font-family="Georgia" font-size="62" fill="#2B2E34">Choque</text><text x="90" y="170" font-family="Arial" font-size="24" fill="#6A727A">Falha circulatória com oferta de oxigênio inadequada ao metabolismo</text><line x1="90" y1="205" x2="1510" y2="205" stroke="#DCD2BE" stroke-width="3"/><g transform="translate(110 310)" font-family="Arial"><rect x="0" y="0" width="310" height="170" rx="24" fill="#E8E1D1"/><text x="70" y="70" font-size="28" fill="#2B2E34">hipovolêmico</text><text x="105" y="120" font-size="24" fill="#6A727A">volume ↓</text><rect x="360" y="0" width="310" height="170" rx="24" fill="#F3E2D8"/><text x="440" y="70" font-size="28" fill="#B2473F">cardiogênico</text><text x="465" y="120" font-size="24" fill="#6A727A">bomba ↓</text><rect x="720" y="0" width="310" height="170" rx="24" fill="#E5F1ED"/><text x="790" y="70" font-size="28" fill="#2E7D69">distributivo</text><text x="815" y="120" font-size="24" fill="#6A727A">tônus ↓</text><rect x="1080" y="0" width="310" height="170" rx="24" fill="#E7EEF5"/><text x="1155" y="70" font-size="28" fill="#1D4E7A">obstrutivo</text><text x="1180" y="120" font-size="24" fill="#6A727A">fluxo bloqueado</text></g><path d="M270 610 H1330" stroke="#D39A2E" stroke-width="18"/><polygon points="1330,610 1280,575 1280,645" fill="#D39A2E"/><g font-family="Arial" font-size="30" fill="#2B2E34"><text x="230" y="570">mecanismo</text><text x="620" y="570">perfusão inadequada</text><text x="1080" y="570">disfunção orgânica</text></g><rect x="280" y="760" width="1040" height="170" rx="26" fill="#FFFDF8" stroke="#DCD2BE" stroke-width="4"/><text x="330" y="825" font-family="Arial" font-size="28" fill="#2B2E34">Diagnóstico sindrômico: integrar perfusão, pressão, fluxo e metabolismo.</text><text x="330" y="880" font-family="Arial" font-size="25" fill="#6A727A">Hipotensão pode estar ausente nas fases iniciais.</text><text x="90" y="1115" font-family="Arial" font-size="20" fill="#6A727A">HEX-G013-128 · Hexápode · Hemodinâmica</text></svg>