<svg xmlns="http://www.w3.org/2000/svg" viewBox="0 0 1600 1200" role="img"><title>Arritmias</title><rect width="1600" height="1200" fill="#F7F4EC"/><text x="90" y="125" font-family="Georgia" font-size="62" fill="#2B2E34">Arritmias</text><text x="90" y="175" font-family="Arial" font-size="24" fill="#6A727A">Alterações de formação e condução do impulso</text><line x1="90" y1="210" x2="1510" y2="210" stroke="#DCD2BE" stroke-width="3"/><line x1="150" y1="580" x2="1450" y2="580" stroke="#DCD2BE" stroke-width="3" stroke-dasharray="18 12"/><path d="M160 580 H320 L370 450 L430 720 L490 530 L560 580 H700 L760 390 L830 760 L900 500 L970 580 H1120 L1170 470 L1220 680 L1280 560 H1440" fill="none" stroke="#B2473F" stroke-width="16"/><circle cx="370" cy="450" r="22" fill="#D39A2E"/><circle cx="760" cy="390" r="22" fill="#D39A2E"/><text x="210" y="360" font-family="Arial" font-size="26" fill="#1D4E7A">ritmo organizado</text><text x="820" y="350" font-family="Arial" font-size="26" fill="#B2473F">ritmo irregular</text><rect x="980" y="760" width="420" height="150" rx="24" fill="#FFFDF8" stroke="#DCD2BE" stroke-width="4"/><text x="1010" y="820" font-family="Arial" font-size="25" fill="#2B2E34">frequência · regularidade</text><text x="1010" y="865" font-family="Arial" font-size="25" fill="#2B2E34">origem · condução · repercussão</text><text x="90" y="1115" font-family="Arial" font-size="20" fill="#6A727A">HEX-G018-177 · Cardiologia</text></svg>