<svg xmlns="http://www.w3.org/2000/svg" viewBox="0 0 1600 1200" role="img"><title>Hemodiálise</title><desc>Depuração extracorpórea</desc><rect width="1600" height="1200" fill="#F7F4EC"/><text x="72" y="92" font-family="Arial" font-size="24" font-weight="700" fill="#1D4E7A">HEXÁPODE · NEFROLOGIA</text><text x="72" y="165" font-family="Georgia" font-size="58" font-weight="700" fill="#2B2E34">Hemodiálise</text><text x="74" y="210" font-family="Arial" font-size="25" fill="#6A727A">Depuração extracorpórea</text><line x1="72" y1="240" x2="1528" y2="240" stroke="#DCD2BE" stroke-width="3"/><rect x="72" y="278" width="1456" height="760" rx="28" fill="#FFFDF8" stroke="#DCD2BE" stroke-width="2"/><rect x="170" y="430" width="300" height="420" rx="28" fill="#DCD2BE" opacity=".55" stroke="#2B2E34" stroke-width="5"/><rect x="245" y="500" width="150" height="110" rx="12" fill="#DCEAF3" stroke="#1D4E7A" stroke-width="4"/><rect x="650" y="430" width="240" height="420" rx="120" fill="#E6F1F4" stroke="#1D4E7A" stroke-width="6"/><line x1="770" y1="455" x2="770" y2="825" stroke="#DCD2BE" stroke-width="8"/><line x1="470" y1="550" x2="650" y2="550" stroke="#B2473F" stroke-width="20"/><polygon points="650,550 610,525 610,575" fill="#B2473F"/><line x1="890" y1="730" x2="1110" y2="730" stroke="#1D4E7A" stroke-width="20"/><polygon points="1110,730 1070,705 1070,755" fill="#1D4E7A"/><rect x="1160" y="440" width="280" height="360" rx="22" fill="#DCD2BE" opacity=".45"/><text x="1200" y="510" font-family="Arial" font-size="27" font-weight="700" fill="#1D4E7A">PROCESSOS</text><text x="1200" y="585" font-family="Arial" font-size="24" fill="#2B2E34">difusão</text><text x="1200" y="645" font-family="Arial" font-size="24" fill="#2B2E34">ultrafiltração</text><text x="1200" y="705" font-family="Arial" font-size="24" fill="#2B2E34">convecção</text><text x="72" y="1145" font-family="Arial" font-size="20" fill="#6A727A">HEX-G016-157 · Hexápode · G016</text></svg>