<svg xmlns="http://www.w3.org/2000/svg" viewBox="0 0 1600 1200" role="img"><title>Vasoconstrição pulmonar hipóxica</title><desc>Redistribuição do fluxo para regiões melhor ventiladas.</desc><rect width="1600" height="1200" fill="#F7F4EC"/><rect width="1600" height="210" fill="#0F3B63"/><text x="80" y="90" font-family="Arial" font-size="30" fill="white">HEXÁPODE · FISIOLOGIA AVANÇADA</text><text x="80" y="165" font-family="Georgia" font-size="54" fill="white">Vasoconstrição pulmonar hipóxica</text><path d="M300 350 C160 440 160 700 310 800 C460 700 450 440 300 350Z" fill="#DCECF0" stroke="#1696A3" stroke-width="8"/><path d="M1050 350 C910 440 910 700 1060 800 C1210 700 1200 440 1050 350Z" fill="#EEE4F3" stroke="#7A5AA6" stroke-width="8"/><path d="M260 900 C520 780 780 980 1120 850" fill="none" stroke="#1D4E7A" stroke-width="34"/><path d="M1120 850 C870 780 670 750 430 850" fill="none" stroke="#B2473F" stroke-width="34"/><text x="170" y="300" font-family="Arial" font-size="30" fill="#1696A3">alvéolo ventilado</text><text x="900" y="300" font-family="Arial" font-size="30" fill="#7A5AA6">alvéolo hipóxico</text><text x="470" y="1040" font-family="Arial" font-size="34" fill="#2E7D69">fluxo desviado para área ventilada</text><text x="80" y="1135" font-family="Arial" font-size="22" fill="#6A727A">HEX-A025-247</text></svg>