<svg xmlns="http://www.w3.org/2000/svg" viewBox="0 0 1600 1200" role="img"><title>FAST</title><rect width="1600" height="1200" fill="#F7F4EC"/><text x="72" y="92" font-family="Arial" font-size="25" font-weight="700" fill="#1D4E7A">HEXÁPODE · ULTRASSOM</text><text x="72" y="164" font-family="Georgia" font-size="58" fill="#2B2E34">FAST</text><text x="74" y="208" font-family="Arial" font-size="24" fill="#6A727A">Janelas para busca sistemática de líquido livre</text><line x1="72" y1="238" x2="1528" y2="238" stroke="#DCD2BE" stroke-width="3"/><rect x="72" y="275" width="1456" height="760" rx="24" fill="#FFFDF8" stroke="#DCD2BE"/><g font-family="Arial" font-size="24" fill="#2B2E34"><circle cx="340" cy="500" r="135" fill="#EAF6F7" stroke="#1696A3" stroke-width="6"/><path d="M280 470 Q340 410 400 470 Q340 540 280 470" fill="#B9E0E5"/><text x="265" y="690">pericárdica</text><circle cx="700" cy="500" r="135" fill="#F3E2D8" stroke="#C45A3C" stroke-width="6"/><path d="M630 470 Q700 390 770 470" fill="none" stroke="#B2473F" stroke-width="12"/><text x="610" y="690">hepatorrenal</text><circle cx="1060" cy="500" r="135" fill="#E8EEF4" stroke="#1D4E7A" stroke-width="6"/><path d="M990 470 Q1060 390 1130 470" fill="none" stroke="#1D4E7A" stroke-width="12"/><text x="970" y="690">esplenorrenal</text><circle cx="520" cy="835" r="115" fill="#F6E8C4" stroke="#D39A2E" stroke-width="6"/><ellipse cx="520" cy="835" rx="55" ry="75" fill="#EBD391"/><text x="470" y="1000">pélvica</text><circle cx="900" cy="835" r="115" fill="#F1E7EF" stroke="#826C7F" stroke-width="6"/><path d="M845 835 Q900 780 955 835 Q900 900 845 835" fill="#C9B5C7"/><text x="815" y="1000">líquido livre</text></g><text x="72" y="1152" font-family="Arial" font-size="20" fill="#6A727A">HEX-G019-186 · Hexápode · Ultrassom</text></svg>