<svg xmlns="http://www.w3.org/2000/svg" viewBox="0 0 1200 900" role="img" aria-labelledby="t d"><title id="t">PaCO₂</title><desc id="d">Relação inversa entre ventilação alveolar e pressão arterial de dióxido de carbono.</desc><rect width="1200" height="900" fill="#F7F4EC"/><text x="70" y="90" font-family="serif" font-size="58" fill="#2B2E34">PaCO₂</text><text x="72" y="132" font-family="sans-serif" font-size="22" fill="#6A727A">Marcador ventilatório e componente respiratório do equilíbrio ácido-base</text><line x1="70" y1="160" x2="1130" y2="160" stroke="#DCD2BE"/><rect x="90" y="220" width="480" height="500" rx="24" fill="white" stroke="#DCD2BE"/><line x1="155" y1="650" x2="500" y2="650" stroke="#2B2E34" stroke-width="3"/><line x1="155" y1="650" x2="155" y2="285" stroke="#2B2E34" stroke-width="3"/><path d="M175 320 C250 350 300 430 350 500 S440 605 490 625" fill="none" stroke="#1696A3" stroke-width="10"/><text x="190" y="755" font-family="sans-serif" font-size="22" fill="#2B2E34">Ventilação alveolar ↑</text><text x="105" y="265" font-family="sans-serif" font-size="22" fill="#2B2E34">PaCO₂</text><rect x="620" y="220" width="490" height="500" rx="24" fill="white" stroke="#DCD2BE"/><text x="660" y="285" font-family="sans-serif" font-size="28" fill="#1D4E7A">INTERPRETAÇÃO</text><text x="660" y="360" font-family="sans-serif" font-size="25" fill="#B2473F">PaCO₂ alta</text><text x="660" y="402" font-family="sans-serif" font-size="21" fill="#2B2E34">Hipoventilação alveolar / acidose respiratória</text><text x="660" y="485" font-family="sans-serif" font-size="25" fill="#1D4E7A">PaCO₂ baixa</text><text x="660" y="527" font-family="sans-serif" font-size="21" fill="#2B2E34">Hiperventilação alveolar / alcalose respiratória</text><rect x="660" y="585" width="395" height="85" rx="18" fill="#E8E1D1"/><text x="685" y="638" font-family="monospace" font-size="24" fill="#2B2E34">PaCO₂ ∝ VCO₂ / V̇A</text><text x="70" y="840" font-family="monospace" font-size="18" fill="#6A727A">HEX-G012-112 · overlay incorporado · Hexápode</text></svg>