<svg xmlns="http://www.w3.org/2000/svg" viewBox="0 0 1600 1200" role="img" aria-labelledby="t d"><title id="t">Noradrenalina</title><desc id="d">Prancha vetorial sobre noradrenalina, vasoconstrição e vigilância.</desc><rect width="1600" height="1200" fill="#F7F4EC"/><text x="72" y="92" font-family="Arial" font-size="25" font-weight="700" fill="#1D4E7A">HEXÁPODE · FARMACOLOGIA</text><text x="72" y="165" font-family="Georgia" font-size="62" fill="#2B2E34">Noradrenalina</text><text x="74" y="210" font-family="Arial" font-size="25" fill="#6A727A">Vasopressor alfa-1 predominante</text><line x1="72" y1="240" x2="1528" y2="240" stroke="#DCD2BE" stroke-width="3"/><rect x="72" y="285" width="430" height="675" rx="28" fill="#FFFDF8" stroke="#DCD2BE"/><circle cx="287" cy="490" r="145" fill="#1D4E7A" opacity=".15" stroke="#1D4E7A" stroke-width="6"/><rect x="240" y="365" width="94" height="210" rx="20" fill="#FFFDF8" stroke="#1D4E7A" stroke-width="6"/><path d="M287 575V735" stroke="#1D4E7A" stroke-width="18"/><path d="M287 735C225 770 215 840 287 895C360 840 350 770 287 735Z" fill="#1D4E7A" opacity=".75"/><rect x="555" y="285" width="973" height="300" rx="28" fill="#FFFDF8" stroke="#DCD2BE"/><text x="600" y="345" font-family="Arial" font-size="27" font-weight="700" fill="#1D4E7A">MECANISMO</text><text x="600" y="410" font-family="Arial" font-size="30" fill="#2B2E34">vasoconstrição arterial e venosa</text><line x1="620" y1="485" x2="1420" y2="485" stroke="#1D4E7A" stroke-width="10"/><polygon points="1420,485 1380,460 1380,510" fill="#1D4E7A"/><rect x="555" y="625" width="460" height="335" rx="28" fill="#FFFDF8" stroke="#DCD2BE"/><text x="600" y="685" font-family="Arial" font-size="27" font-weight="700" fill="#2E7D69">EFEITO-ALVO</text><text x="600" y="770" font-family="Arial" font-size="28" fill="#2B2E34">↑ pressão de perfusão</text><text x="600" y="830" font-family="Arial" font-size="25" fill="#6A727A">monitorar ritmo, perfusão e extravasamento</text><rect x="1068" y="625" width="460" height="335" rx="28" fill="#FFFDF8" stroke="#DCD2BE"/><text x="1113" y="685" font-family="Arial" font-size="27" font-weight="700" fill="#D39A2E">CAUTELAS</text><path d="M1298 735L1400 900H1196Z" fill="#F6E8C4" stroke="#D39A2E" stroke-width="6"/><text x="1298" y="850" text-anchor="middle" font-family="Arial" font-size="72" fill="#D39A2E">!</text><text x="72" y="1145" font-family="Arial" font-size="20" fill="#6A727A">HEX-G015-141 · Hexápode · Farmacologia</text></svg>