<svg xmlns="http://www.w3.org/2000/svg" viewBox="0 0 1600 1200" role="img" aria-labelledby="t d"><title id="t">Linfáticos pulmonares avançados</title><desc id="d">Redes linfáticas pleural e peribrônquica convergindo para linfonodos hilares e mediastinais.</desc><rect width="1600" height="1200" fill="#F7F4EC"/><rect width="1600" height="76" fill="#123A63"/><text x="70" y="50" font-family="Arial" font-size="28" font-weight="700" fill="white">HEXÁPODE · CAMADA AVANÇADA · A023</text><text x="70" y="155" font-family="Georgia" font-size="58" fill="#2B2E34">Linfáticos pulmonares avançados</text><text x="72" y="205" font-family="Arial" font-size="24" fill="#6A727A">Drenagem superficial e profunda para cadeias hilares e mediastinais.</text><path d="M300 320 C180 440 210 720 360 800" fill="none" stroke="#2E7D69" stroke-width="16"/><path d="M520 320 C640 440 610 720 460 800" fill="none" stroke="#2E7D69" stroke-width="16"/><path d="M410 300V790" stroke="#1696A3" stroke-width="12"/><g fill="#2E7D69" stroke="#2B2E34" stroke-width="3"><circle cx="310" cy="430" r="24"/><circle cx="355" cy="520" r="24"/><circle cx="330" cy="650" r="24"/><circle cx="510" cy="430" r="24"/><circle cx="465" cy="520" r="24"/><circle cx="490" cy="650" r="24"/><circle cx="410" cy="420" r="28"/><circle cx="410" cy="560" r="28"/><circle cx="410" cy="700" r="28"/></g><g stroke="#2E7D69" stroke-width="6"><line x1="310" y1="430" x2="410" y2="420"/><line x1="355" y1="520" x2="410" y2="560"/><line x1="330" y1="650" x2="410" y2="700"/><line x1="510" y1="430" x2="410" y2="420"/><line x1="465" y1="520" x2="410" y2="560"/><line x1="490" y1="650" x2="410" y2="700"/></g><rect x="790" y="300" width="680" height="500" rx="28" fill="#FFFDF8" stroke="#DCD2BE" stroke-width="4"/><text x="840" y="370" font-family="Arial" font-size="29" font-weight="700" fill="#123A63">ROTAS DE DRENAGEM</text><text x="840" y="440" font-family="Arial" font-size="25" fill="#2B2E34">• rede subpleural superficial</text><text x="840" y="500" font-family="Arial" font-size="25" fill="#2B2E34">• rede profunda peribrônquica</text><text x="840" y="560" font-family="Arial" font-size="25" fill="#2B2E34">• cadeias hilares e mediastinais</text><text x="70" y="1125" font-family="Arial" font-size="20" fill="#6A727A">HEX-A023-229 · Anatomia Respiratória II Avançada</text></svg>