<svg xmlns="http://www.w3.org/2000/svg" viewBox="0 0 1600 1200" role="img"><title>Corpo humano feminino esquemático</title><rect width="1600" height="1200" fill="#F7F4EC"/><text x="70" y="100" font-size="58" fill="#2B2E34">Hexápode — Corpo humano feminino</text><g fill="#E9D7CF" stroke="#2B2E34" stroke-width="7"><circle cx="400" cy="300" r="55"/><path d="M330 365 Q400 330 470 365 L500 700 Q400 770 300 700 Z"/><path d="M320 430 L220 690 M480 430 L580 690 M360 720 L330 1020 M440 720 L470 1020"/><circle cx="800" cy="300" r="55"/><path d="M730 365 Q800 330 870 365 L900 700 Q800 770 700 700 Z"/><path d="M720 430 L620 690 M880 430 L980 690 M760 720 L730 1020 M840 720 L870 1020"/><circle cx="1200" cy="300" r="55"/><path d="M1160 365 Q1200 340 1240 365 L1260 700 Q1200 750 1140 700 Z"/><path d="M1150 430 L1080 690 M1250 430 L1320 690 M1180 720 L1160 1020 M1220 720 L1240 1020"/></g><text x="70" y="1130" font-size="24" fill="#6A727A">HEX-G001-005</text></svg>