<svg xmlns="http://www.w3.org/2000/svg" viewBox="0 0 1600 1200" role="img"><title>Herniações encefálicas</title><rect width="1600" height="1200" fill="#F7F4EC"/><text x="72" y="92" font-family="Arial" font-size="24" font-weight="700" fill="#1D4E7A">HEXÁPODE · G017 NEUROLOGIA</text><text x="72" y="164" font-family="Georgia" font-size="60" fill="#2B2E34">Herniações encefálicas</text><text x="74" y="210" font-family="Arial" font-size="24" fill="#6A727A">Deslocamentos por gradientes de pressão</text><line x1="72" y1="238" x2="1528" y2="238" stroke="#DCD2BE" stroke-width="3"/><rect x="72" y="275" width="1456" height="800" rx="28" fill="#FFFDF8" stroke="#DCD2BE" stroke-width="3"/><g transform="translate(100 330)"><g><rect width="430" height="620" rx="24" fill="#FFFDF8" stroke="#DCD2BE" stroke-width="4"/><text x="40" y="65" font-family="Arial" font-size="30" font-weight="700" fill="#1D4E7A">SUBFALCINA</text><ellipse cx="215" cy="310" rx="150" ry="190" fill="#E8D9E8" stroke="#2B2E34" stroke-width="5"/><line x1="215" y1="110" x2="215" y2="500" stroke="#DCD2BE" stroke-width="10"/><circle cx="135" cy="300" r="70" fill="#F3C7C2" stroke="#B2473F" stroke-width="5"/><path d="M145 300 H275" stroke="#B2473F" stroke-width="14"/><polygon points="275,300 240,278 240,322" fill="#B2473F"/></g><g transform="translate(470)"><rect width="430" height="620" rx="24" fill="#FFFDF8" stroke="#DCD2BE" stroke-width="4"/><text x="35" y="65" font-family="Arial" font-size="30" font-weight="700" fill="#D39A2E">TRANSTENTORIAL</text><path d="M90 200 C100 80 320 75 340 220 C360 330 295 380 230 390 C150 390 80 330 90 200Z" fill="#E8D9E8" stroke="#2B2E34" stroke-width="5"/><path d="M180 390 C175 470 185 525 215 575" fill="none" stroke="#C45A3C" stroke-width="28"/><circle cx="285" cy="305" r="58" fill="#F3C7C2" stroke="#B2473F" stroke-width="5"/><path d="M285 335 V475" stroke="#B2473F" stroke-width="14"/><polygon points="285,475 262,440 308,440" fill="#B2473F"/></g><g transform="translate(940)"><rect width="430" height="620" rx="24" fill="#FFFDF8" stroke="#DCD2BE" stroke-width="4"/><text x="55" y="65" font-family="Arial" font-size="30" font-weight="700" fill="#B2473F">TONSILAR</text><path d="M95 190 C100 70 320 80 340 220 C350 330 285 380 220 385 C145 380 80 320 95 190Z" fill="#E8D9E8" stroke="#2B2E34" stroke-width="5"/><ellipse cx="215" cy="390" rx="100" ry="80" fill="#E8E1D1" stroke="#1D4E7A" stroke-width="5"/><rect x="190" y="470" width="50" height="110" rx="22" fill="#DDEFEF" stroke="#1696A3" stroke-width="5"/><path d="M180 390 V535 M250 390 V535" stroke="#B2473F" stroke-width="14"/><polygon points="180,535 157,500 203,500" fill="#B2473F"/><polygon points="250,535 227,500 273,500" fill="#B2473F"/></g></g><text x="72" y="1150" font-family="Arial" font-size="20" fill="#6A727A">HEX-G017-170 · Hexápode · Neurologia</text></svg>