<svg xmlns="http://www.w3.org/2000/svg" viewBox="0 0 1600 1200" role="img" aria-labelledby="t d"><title id="t">Intercostais avançados</title><desc id="d">Camadas intercostais, orientação de fibras, feixe neurovascular e função respiratória.</desc><rect width="1600" height="1200" fill="#F7F4EC"/><text x="72" y="90" font-family="Arial" font-size="24" font-weight="700" fill="#1D4E7A">HEXÁPODE · ANATOMIA RESPIRATÓRIA AVANÇADA</text><text x="72" y="158" font-family="Georgia" font-size="54" font-weight="700" fill="#2B2E34">Intercostais avançados</text><text x="74" y="204" font-family="Arial" font-size="22" fill="#6A727A">Camadas intercostais, orientação de fibras, feixe neurovascular e função respiratória.</text><line x1="72" y1="236" x2="1528" y2="236" stroke="#DCD2BE" stroke-width="3"/><rect x="70" y="275" width="970" height="750" rx="28" fill="#FFFDF8" stroke="#DCD2BE" stroke-width="3"/><path d="M180 400 H950 M180 640 H950 M180 880 H950" stroke="#E8E1D1" stroke-width="42"/><path d="M180 450 L950 760 M180 590 L950 900" stroke="#C45A3C" stroke-width="30" opacity=".8"/><path d="M180 610 L950 300 M180 850 L950 540" stroke="#B2473F" stroke-width="25" opacity=".65"/><path d="M200 665 H930" stroke="#1D4E7A" stroke-width="14"/><circle cx="420" cy="665" r="18" fill="#D39A2E"/><circle cx="510" cy="665" r="18" fill="#B2473F"/><circle cx="600" cy="665" r="18" fill="#1D4E7A"/><text x="245" y="1000" font-family="Arial" font-size="22" fill="#6A727A">Feixe VAN no sulco costal · acesso junto ao bordo superior da costela inferior</text><rect x="1080" y="300" width="430" height="700" rx="24" fill="#FFFDF8" stroke="#DCD2BE" stroke-width="3"/><text x="1120" y="360" font-family="Arial" font-size="28" font-weight="700" fill="#1D4E7A">LEITURA ESTRUTURAL</text><circle cx="1135" cy="422" r="13" fill="#1696A3"/><text x="1170" y="430" font-family="Arial" font-size="23" fill="#2B2E34">Intercostal externo</text><line x1="1170" y1="450" x2="1450" y2="450" stroke="#DCD2BE" stroke-width="2"/><circle cx="1135" cy="527" r="13" fill="#1D4E7A"/><text x="1170" y="535" font-family="Arial" font-size="23" fill="#2B2E34">Intercostal interno</text><line x1="1170" y1="555" x2="1450" y2="555" stroke="#DCD2BE" stroke-width="2"/><circle cx="1135" cy="632" r="13" fill="#C45A3C"/><text x="1170" y="640" font-family="Arial" font-size="23" fill="#2B2E34">Intercostal íntimo</text><line x1="1170" y1="660" x2="1450" y2="660" stroke="#DCD2BE" stroke-width="2"/><circle cx="1135" cy="737" r="13" fill="#2E7D69"/><text x="1170" y="745" font-family="Arial" font-size="23" fill="#2B2E34">Feixe VAN</text><line x1="1170" y1="765" x2="1450" y2="765" stroke="#DCD2BE" stroke-width="2"/><circle cx="1135" cy="842" r="13" fill="#D39A2E"/><text x="1170" y="850" font-family="Arial" font-size="23" fill="#2B2E34">Espaço seguro</text><line x1="1170" y1="870" x2="1450" y2="870" stroke="#DCD2BE" stroke-width="2"/><text x="72" y="1150" font-family="Arial" font-size="20" fill="#6A727A">HEX-A022-219 · Hexápode · camada avançada</text></svg>