<svg xmlns="http://www.w3.org/2000/svg" viewBox="0 0 1600 1200" role="img"><title>HEX-G010-091 — SDRA</title><desc>Prancha esquemática mostrando edema alveolar difuso, membrana espessada e shunt.</desc><rect width="1600" height="1200" fill="#F7F4EC"/><text x="90" y="120" font-family="serif" font-size="72" fill="#2B2E34">SDRA</text><text x="90" y="175" font-family="sans-serif" font-size="28" fill="#6A727A">lesão alveolar difusa • edema • shunt</text><g transform="translate(120 260)"><path d="M420 80C210 80 80 250 80 520s150 430 380 430c90 0 170-35 220-95V170C610 110 530 80 420 80Z" fill="#E8E1D1" stroke="#2B2E34" stroke-width="10"/><path d="M760 170v685c50 60 130 95 220 95 230 0 380-160 380-430S1230 80 1020 80c-110 0-190 30-260 90Z" fill="#E8E1D1" stroke="#2B2E34" stroke-width="10"/><g fill="#B2473F" opacity=".75"> <circle cx="300" cy="420" r="90"/><circle cx="500" cy="620" r="110"/><circle cx="1040" cy="430" r="100"/><circle cx="900" cy="680" r="120"/></g><g fill="#1696A3" opacity=".45"><circle cx="380" cy="430" r="55"/><circle cx="970" cy="450" r="55"/></g></g><rect x="1050" y="880" width="430" height="180" rx="24" fill="#FFF" stroke="#DCD2BE"/><text x="1090" y="940" font-family="sans-serif" font-size="26" fill="#2B2E34">Mecanismo</text><text x="1090" y="990" font-family="sans-serif" font-size="23" fill="#6A727A">barreira lesada → alvéolo inundado</text><text x="1090" y="1030" font-family="sans-serif" font-size="23" fill="#B2473F">↓ complacência • ↑ shunt</text></svg>