<svg xmlns="http://www.w3.org/2000/svg" width="1600" height="1200" viewBox="0 0 1600 1200" role="img" aria-labelledby="t d"><title id="t">HEX-G006-051 — Ventilador</title><desc id="d">Ventilador mecânico esquemático com tela, controles, circuito e fluxo até o paciente.</desc><rect width="1600" height="1200" fill="#F7F4EC"/><text x="90" y="110" font-family="Georgia,serif" font-size="58" fill="#2B2E34">Ventilador</text><text x="92" y="158" font-family="Arial" font-size="24" fill="#6A727A">equipamento • interface • circuito • entrega de suporte</text><line x1="90" y1="190" x2="1510" y2="190" stroke="#DCD2BE" stroke-width="3"/><rect x="180" y="285" width="600" height="670" rx="32" fill="#E8E1D1" stroke="#1D4E7A" stroke-width="8"/><rect x="250" y="350" width="460" height="280" rx="18" fill="#2B2E34"/><path d="M285 505 C350 420 400 590 470 480 S590 540 670 455" fill="none" stroke="#1696A3" stroke-width="12"/><circle cx="310" cy="710" r="34" fill="#1D4E7A"/><circle cx="420" cy="710" r="34" fill="#1696A3"/><circle cx="530" cy="710" r="34" fill="#D39A2E"/><line x1="780" y1="585" x2="1010" y2="585" stroke="#1D4E7A" stroke-width="24"/><path d="M1010 585 C1140 585 1160 430 1280 430" fill="none" stroke="#1696A3" stroke-width="24"/><circle cx="1310" cy="430" r="110" fill="#E8E1D1" stroke="#2B2E34" stroke-width="6"/><path d="M1275 400 Q1310 365 1345 400 M1270 455 Q1310 490 1350 455" fill="none" stroke="#C45A3C" stroke-width="10"/><g font-family="Arial" font-size="24" fill="#2B2E34"><text x="240" y="1010">máquina</text><text x="790" y="550">circuito</text><text x="1220" y="580">paciente</text></g><path d="M870 1030 H1390" stroke="#DCD2BE" stroke-width="4"/><text x="870" y="1080" font-family="Arial" font-size="26" fill="#6A727A">Azul = dispositivo • Teal = fluxo gasoso • Âmbar = alerta</text></svg>