<svg xmlns="http://www.w3.org/2000/svg" viewBox="0 0 1600 1200" role="img" aria-labelledby="t d"><title id="t">Vasos</title><desc id="d">Comparação vetorial entre artéria, veia e capilar.</desc><rect width="1600" height="1200" fill="#F7F4EC"/><text x="80" y="110" font-family="Georgia" font-size="64" fill="#2B2E34">Vasos</text><text x="80" y="160" font-family="Arial" font-size="25" fill="#6A727A">Arquitetura vascular adaptada à pressão, capacitância e troca</text><line x1="80" y1="200" x2="1520" y2="200" stroke="#DCD2BE" stroke-width="3"/><g transform="translate(120 300)" font-family="Arial"><g><circle cx="220" cy="300" r="180" fill="#F6D8D4" stroke="#B2473F" stroke-width="50"/><circle cx="220" cy="300" r="92" fill="#FFFDF8"/><text x="220" y="560" text-anchor="middle" font-size="30" font-weight="700" fill="#B2473F">ARTÉRIA</text><text x="220" y="610" text-anchor="middle" font-size="23" fill="#6A727A">parede espessa · alta pressão</text></g><g transform="translate(480 0)"><circle cx="220" cy="300" r="180" fill="#D8E5F2" stroke="#1D4E7A" stroke-width="30"/><ellipse cx="220" cy="300" rx="120" ry="88" fill="#FFFDF8"/><path d="M220 212 L190 300 L220 388 L250 300Z" fill="#E8E1D1" stroke="#2B2E34" stroke-width="4"/><text x="220" y="560" text-anchor="middle" font-size="30" font-weight="700" fill="#1D4E7A">VEIA</text><text x="220" y="610" text-anchor="middle" font-size="23" fill="#6A727A">capacitância · válvulas</text></g><g transform="translate(960 0)"><circle cx="220" cy="300" r="150" fill="none" stroke="#1696A3" stroke-width="18" stroke-dasharray="45 18"/><circle cx="220" cy="300" r="105" fill="#FFFDF8" stroke="#2B2E34" stroke-width="3"/><g fill="#B2473F"><circle cx="175" cy="265" r="24"/><circle cx="250" cy="310" r="24"/><circle cx="205" cy="350" r="24"/></g><text x="220" y="560" text-anchor="middle" font-size="30" font-weight="700" fill="#1696A3">CAPILAR</text><text x="220" y="610" text-anchor="middle" font-size="23" fill="#6A727A">parede única · troca</text></g></g><path d="M210 1010 H1390" stroke="#1696A3" stroke-width="12"/><polygon points="1390,1010 1340,980 1340,1040" fill="#1696A3"/><text x="80" y="1140" font-family="Arial" font-size="21" fill="#6A727A">HEX-G020-193 · Hexápode · Biblioteca Universal</text></svg>