<svg xmlns="http://www.w3.org/2000/svg" viewBox="0 0 1600 1200" role="img" aria-labelledby="t d"><title id="t">Tipografia aplicada</title><desc id="d">Hierarquia tipográfica responsiva para títulos, corpo, legendas e dados clínicos.</desc><rect width="1600" height="1200" fill="#F7F4EC"/><text x="72" y="90" font-family="Arial" font-size="24" font-weight="700" fill="#1D4E7A">HEXÁPODE · CAMADA AVANÇADA</text><text x="72" y="162" font-family="Georgia" font-size="58" font-weight="700" fill="#2B2E34">Tipografia aplicada</text><text x="74" y="208" font-family="Arial" font-size="24" fill="#6A727A">Hierarquia tipográfica responsiva para títulos, corpo, legendas e dados clínicos.</text><line x1="72" y1="238" x2="1528" y2="238" stroke="#DCD2BE" stroke-width="3"/><rect x="80" y="290" width="520" height="700" rx="22" fill="#FFFDF8" stroke="#DCD2BE" stroke-width="3"/><text x="104" y="334" font-family="Arial" font-size="25" font-weight="700" fill="#1D4E7A">Escala tipográfica</text><text x="120" y="410" font-family="Georgia" font-size="54" fill="#1D4E7A">Título editorial</text><text x="120" y="500" font-family="Georgia" font-size="38" fill="#2B2E34">Título de seção</text><text x="120" y="590" font-family="Arial" font-size="29" fill="#1696A3">Subtítulo informativo</text><text x="120" y="680" font-family="Arial" font-size="23" fill="#2B2E34">Corpo de texto</text><text x="120" y="770" font-family="Arial" font-size="18" fill="#6A727A">Legenda e anotação</text><text x="120" y="860" font-family="Courier New" font-size="30" fill="#1D4E7A">DADO 82 mmHg</text><rect x="650" y="290" width="400" height="700" rx="22" fill="#FFFDF8" stroke="#DCD2BE" stroke-width="3"/><text x="674" y="334" font-family="Arial" font-size="25" font-weight="700" fill="#1D4E7A">Responsividade</text><rect x="690" y="410" width="330" height="130" rx="14" fill="#FFFDF8" stroke="#1D4E7A" stroke-width="3"/><text x="710" y="445" font-family="Arial" font-size="20" fill="#1D4E7A">Desktop</text><line x1="710" y1="475" x2="990" y2="475" stroke="#2B2E34" stroke-width="5"/><rect x="690" y="590" width="250" height="130" rx="14" fill="#FFFDF8" stroke="#1D4E7A" stroke-width="3"/><text x="710" y="625" font-family="Arial" font-size="20" fill="#1D4E7A">Tablet</text><line x1="710" y1="655" x2="910" y2="655" stroke="#2B2E34" stroke-width="5"/><rect x="690" y="770" width="170" height="130" rx="14" fill="#FFFDF8" stroke="#1D4E7A" stroke-width="3"/><text x="710" y="805" font-family="Arial" font-size="20" fill="#1D4E7A">Mobile</text><line x1="710" y1="835" x2="830" y2="835" stroke="#2B2E34" stroke-width="5"/><rect x="1100" y="290" width="400" height="700" rx="22" fill="#FFFDF8" stroke="#DCD2BE" stroke-width="3"/><text x="1124" y="334" font-family="Arial" font-size="25" font-weight="700" fill="#1D4E7A">Combinação canônica</text><text x="1160" y="540" font-family="Georgia" font-size="92" fill="#2B2E34">Aa</text><text x="1300" y="500" font-family="Arial" font-size="28" fill="#1D4E7A">Georgia + Arial</text><text x="1300" y="550" font-family="Arial" font-size="21" fill="#6A727A">clássico e técnico</text><text x="72" y="1150" font-family="Arial" font-size="20" fill="#6A727A">HEX-A021-202 · Hexápode · avançado</text></svg>