<svg xmlns="http://www.w3.org/2000/svg" viewBox="0 0 1600 1200" role="img"><title>Hexápode — Pleura</title><desc>Pleura esquemática com folhetos visceral e parietal, espaço pleural e pulmão adjacente.</desc><rect width="1600" height="1200" fill="#F7F4EC"/><text x="70" y="95" font-family="serif" font-size="58" fill="#2B2E34">Hexápode — Pleura</text><text x="72" y="140" font-family="sans-serif" font-size="24" fill="#6A727A">Folhetos pleurais e espaço virtual</text><path d="M620 250 C380 330 330 880 620 950 C760 980 860 840 850 560 C840 330 760 210 620 250Z" fill="#E9B2A4" stroke="#C45A3C" stroke-width="20"/><path d="M600 220 C320 300 270 940 620 990 C820 1010 920 850 900 550 C880 280 790 180 600 220Z" fill="none" stroke="#1696A3" stroke-width="18"/><path d="M570 190 C250 260 200 1010 640 1040 C880 1050 990 850 950 520 C920 230 800 140 570 190Z" fill="none" stroke="#1D4E7A" stroke-width="22"/><path d="M410 300 C300 520 310 790 460 930" fill="none" stroke="#D39A2E" stroke-width="8" stroke-dasharray="20 14"/><g font-family="sans-serif" font-size="27" fill="#2B2E34"><text x="1040" y="340">Pleura visceral</text><path d="M1015 330 H865" stroke="#C45A3C" stroke-width="5"/><text x="1040" y="520">Espaço pleural</text><path d="M1015 510 H905" stroke="#D39A2E" stroke-width="5"/><text x="1040" y="700">Pleura parietal</text><path d="M1015 690 H950" stroke="#1D4E7A" stroke-width="5"/><text x="180" y="1080">Pulmão</text></g><text x="70" y="1135" font-family="monospace" font-size="23" fill="#6A727A">HEX-G002-016 · CANONICAL</text></svg>