<svg xmlns="http://www.w3.org/2000/svg" viewBox="0 0 1600 1200" role="img"><title>Rocurônio</title><rect width="1600" height="1200" fill="#F7F4EC"/><text x="72" y="92" font-family="Arial" font-size="25" font-weight="700" fill="#1D4E7A">HEXÁPODE · FARMACOLOGIA</text><text x="72" y="165" font-family="Georgia" font-size="62" fill="#2B2E34">Rocurônio</text><text x="74" y="210" font-family="Arial" font-size="25" fill="#6A727A">Bloqueador neuromuscular não despolarizante</text><line x1="72" y1="240" x2="1528" y2="240" stroke="#DCD2BE" stroke-width="3"/><rect x="80" y="290" width="430" height="680" rx="28" fill="#FFFDF8" stroke="#DCD2BE"/><circle cx="285" cy="520" r="150" fill="#2B6F8A" opacity=".15" stroke="#2B6F8A" stroke-width="6"/><path d="M180 520H390" stroke="#2B6F8A" stroke-width="22"/><path d="M235 430V610M335 430V610" stroke="#2B6F8A" stroke-width="12"/><circle cx="235" cy="520" r="30" fill="#FFFDF8" stroke="#2B6F8A" stroke-width="8"/><circle cx="335" cy="520" r="30" fill="#FFFDF8" stroke="#2B6F8A" stroke-width="8"/><text x="285" y="820" text-anchor="middle" font-family="Arial" font-size="30" fill="#2B2E34">bloqueio da junção</text><rect x="560" y="290" width="960" height="280" rx="28" fill="#FFFDF8" stroke="#DCD2BE"/><text x="610" y="355" font-family="Arial" font-size="28" font-weight="700" fill="#2B6F8A">MECANISMO</text><text x="610" y="430" font-family="Arial" font-size="30" fill="#2B2E34">antagonismo nicotínico competitivo</text><path d="M630 500H1430" stroke="#2B6F8A" stroke-width="10"/><polygon points="1430,500 1388,475 1388,525" fill="#2B6F8A"/><rect x="560" y="620" width="455" height="350" rx="28" fill="#FFFDF8" stroke="#DCD2BE"/><text x="610" y="690" font-family="Arial" font-size="28" font-weight="700" fill="#2E7D69">EFEITO-ALVO</text><text x="610" y="780" font-family="Arial" font-size="30" fill="#2B2E34">paralisia muscular</text><rect x="1065" y="620" width="455" height="350" rx="28" fill="#FFFDF8" stroke="#DCD2BE"/><text x="1115" y="690" font-family="Arial" font-size="28" font-weight="700" fill="#D39A2E">CAUTELAS</text><text x="1115" y="780" font-family="Arial" font-size="27" fill="#2B2E34">não seda · não analgésia</text><text x="72" y="1145" font-family="Arial" font-size="20" fill="#6A727A">HEX-G015-149 · Hexápode · Farmacologia</text></svg>