<svg xmlns="http://www.w3.org/2000/svg" width="1600" height="1200" viewBox="0 0 1600 1200" role="img" aria-labelledby="t d"><title id="t">Hexápode — Histerese</title><desc id="d">Diferença entre as trajetórias inspiratória e expiratória na curva pressão-volume.</desc><rect width="1600" height="1200" fill="#F7F4EC"/><rect x="32" y="32" width="1536" height="1136" rx="18" fill="none" stroke="#DCD2BE" stroke-width="3"/><text x="72" y="115" font-family="Georgia" font-size="62" fill="#2B2E34">Hexápode — Histerese</text><text x="74" y="165" font-family="Arial" font-size="24" letter-spacing="4" fill="#6A727A">MECÂNICA RESPIRATÓRIA · ATIVO CANÔNICO</text><line x1="70" y1="205" x2="1530" y2="205" stroke="#DCD2BE" stroke-width="3"/><rect x="70" y="245" width="790" height="690" rx="20" fill="#FCFAF5" stroke="#DCD2BE" stroke-width="3"/><line x1="220" y1="820" x2="740" y2="820" stroke="#6A727A" stroke-width="4"/><line x1="220" y1="820" x2="220" y2="340" stroke="#6A727A" stroke-width="4"/><path d="M250 790C360 700 470 480 650 400C710 375 730 430 695 500C630 650 470 770 250 790" fill="#D9EEE9" opacity=".8" stroke="#2E7D69" stroke-width="9"/><path d="M250 790C390 770 560 660 695 500" fill="none" stroke="#1D4E7A" stroke-width="9"/><text x="480" y="410" font-family="Arial" font-size="24" fill="#2E7D69">Inspiração</text><text x="520" y="700" font-family="Arial" font-size="24" fill="#1D4E7A">Expiração</text><text x="650" y="865" font-family="Arial" font-size="22" fill="#6A727A">Pressão</text><text x="130" y="540" font-family="Arial" font-size="22" fill="#6A727A" transform="rotate(-90 130 540)">Volume</text><rect x="900" y="245" width="630" height="690" rx="20" fill="#FCFAF5" stroke="#DCD2BE" stroke-width="3"/><text x="940" y="300" font-family="Arial" font-size="22" font-weight="bold" fill="#1D4E7A">RELAÇÕES-CHAVE</text><text x="940" y="390" font-family="Arial" font-size="31" fill="#2B2E34">Alça P–V</text><text x="940" y="505" font-family="Arial" font-size="31" fill="#2B2E34">Recrutamento</text><text x="940" y="620" font-family="Arial" font-size="31" fill="#2B2E34">Surfactante</text><rect x="70" y="975" width="1460" height="130" rx="14" fill="#E8E1D1"/><text x="105" y="1025" font-family="Arial" font-size="22" font-weight="bold" fill="#2B2E34">FUNÇÃO DIDÁTICA</text><text x="105" y="1065" font-family="Arial" font-size="24" fill="#2B2E34">Mostra por que o pulmão segue trajetórias distintas ao insuflar e desinsuflar.</text><text x="1290" y="1070" font-family="Arial" font-size="20" fill="#6A727A">HEX-G004-040</text></svg>