<svg xmlns="http://www.w3.org/2000/svg" viewBox="0 0 1600 1200" role="img"><title>TEP</title><rect width="1600" height="1200" fill="#F7F4EC"/><text x="72" y="98" font-family="Arial" font-size="26" font-weight="700" fill="#1D4E7A">HEXÁPODE</text><text x="72" y="166" font-family="Georgia" font-size="58" font-weight="700" fill="#2B2E34">TEP</text><text x="74" y="210" font-family="Arial" font-size="24" fill="#6A727A">Obstrução aguda da circulação pulmonar</text><line x1="72" y1="238" x2="1528" y2="238" stroke="#DCD2BE" stroke-width="3"/><rect x="72" y="275" width="1456" height="760" rx="24" fill="#FFFDF8" stroke="#DCD2BE" stroke-width="2"/><path d="M430 335 L430 455" stroke="#1696A3" stroke-width="14"/><path d="M430 385 C380 420 340 460 315 515" fill="none" stroke="#1696A3" stroke-width="9"/><path d="M430 385 C480 420 520 460 545 515" fill="none" stroke="#1696A3" stroke-width="9"/><path d="M420 430 C260 380 230 500 265 720 C310 835 400 770 420 580Z" fill="#D9EEF0" stroke="#1696A3" stroke-width="5"/><path d="M440 430 C600 380 630 500 595 720 C550 835 460 770 440 580Z" fill="#D9EEF0" stroke="#1696A3" stroke-width="5"/><line x1="690" y1="520" x2="1180" y2="520" stroke="#B2473F" stroke-width="120" stroke-linecap="round" opacity="0.28"/><line x1="690" y1="520" x2="1180" y2="520" stroke="#1696A3" stroke-width="12"/><path d="M900 470 Q950 430 1000 470 Q1040 520 995 570 Q945 610 900 565 Q860 520 900 470Z" fill="#B2473F" stroke="#2B2E34" stroke-width="4"/><text x="945" y="665" font-family="Arial" font-size="25" font-weight="700" fill="#B2473F" text-anchor="middle">êmbolo</text><rect x="1180" y="365" width="260" height="420" rx="24" fill="#F7F4EC" stroke="#DCD2BE" stroke-width="2"/><text x="1215" y="425" font-family="Arial" font-size="24" font-weight="700" fill="#1D4E7A">CONSEQUÊNCIAS</text><text x="1215" y="490" font-family="Arial" font-size="22" fill="#2B2E34">↑ resistência pulmonar</text><text x="1215" y="545" font-family="Arial" font-size="22" fill="#2B2E34">sobrecarga do VD</text><text x="1215" y="600" font-family="Arial" font-size="22" fill="#2B2E34">desbalanço V/Q</text><text x="1215" y="655" font-family="Arial" font-size="22" fill="#2B2E34">hipoxemia variável</text><text x="72" y="1152" font-family="Arial" font-size="20" fill="#6A727A">HEX-G014-137 · Cardio · Respira · Emergências</text></svg>