<svg xmlns="http://www.w3.org/2000/svg" viewBox="0 0 1600 1200" role="img"><title>Máscara facial avançada</title><rect width="1600" height="1200" fill="#F7F4EC"/><text x="80" y="140" font-family="Arial" font-size="56">Máscara facial: vedação e escape</text><path d="M650 170 C430 210 330 390 360 650 C390 860 560 980 760 930 C940 880 1030 700 1000 460 C970 250 830 160 650 170Z" fill="#F1D6C8" stroke="#A96D58" stroke-width="6"/><ellipse cx="580" cy="430" rx="42" ry="25" fill="#2B2E34"/><ellipse cx="780" cy="430" rx="42" ry="25" fill="#2B2E34"/><path d="M680 470 L640 610 L715 610" fill="none" stroke="#A96D58" stroke-width="6"/><path d="M590 735 Q680 790 770 735" fill="none" stroke="#A96D58" stroke-width="7"/><path d="M520 520 Q680 410 840 520 L800 820 Q680 920 560 820Z" fill="#D8F0EE" opacity=".72" stroke="#1696A3" stroke-width="10"/><circle cx="520" cy="620" r="24" fill="#B2473F"/><circle cx="840" cy="620" r="24" fill="#B2473F"/><text x="170" y="630" font-family="Arial" font-size="28">fuga</text><line x1="220" y1="620" x2="480" y2="620" stroke="#B2473F" stroke-width="5" stroke-dasharray="15 10"/><text x="1050" y="540" font-family="Arial" font-size="28">vedação</text><line x1="1020" y1="560" x2="840" y2="620" stroke="#1696A3" stroke-width="5"/><text x="80" y="1120" font-family="Arial" font-size="24">HEX-A026-255</text></svg>