<svg xmlns="http://www.w3.org/2000/svg" viewBox="0 0 1600 1200" role="img"><title>HEX-G010-100 — Pneumonia esquemática</title><desc>Consolidação alveolar focal com inflamação, exsudato e alteração da troca gasosa.</desc><rect width="1600" height="1200" fill="#F7F4EC"/><text x="90" y="120" font-family="serif" font-size="72" fill="#2B2E34">Pneumonia esquemática</text><text x="90" y="175" font-family="sans-serif" font-size="28" fill="#6A727A">inflamação • exsudato • consolidação</text><g transform="translate(220 250)"><path d="M420 80C190 90 40 280 70 630s190 430 430 330V180C470 110 445 80 420 80Z" fill="#E8E1D1" stroke="#2B2E34" stroke-width="10"/><path d="M590 180v780c240 100 400 20 430-330s-110-540-330-550c-45 0-70 30-100 100Z" fill="#E8E1D1" stroke="#2B2E34" stroke-width="10"/><path d="M700 520q150-130 300 20q-10 260-230 300q-150-100-70-320Z" fill="#B2473F" opacity=".78"/><g fill="#D39A2E"><circle cx="760" cy="590" r="24"/><circle cx="840" cy="650" r="30"/><circle cx="910" cy="560" r="20"/></g><path d="M930 460l160-110" stroke="#B2473F" stroke-width="16"/><text x="1100" y="350" font-family="sans-serif" font-size="28" fill="#2B2E34">consolidação alveolar</text></g></svg>