<svg xmlns="http://www.w3.org/2000/svg" viewBox="0 0 1600 1200" role="img" aria-labelledby="t d"><title id="t">Ácino pulmonar avançado</title><desc id="d">Organização tridimensional do ácino do bronquíolo respiratório aos ductos e sacos alveolares.</desc><rect width="1600" height="1200" fill="#F7F4EC"/><text x="72" y="90" font-family="Arial" font-size="24" font-weight="700" fill="#1D4E7A">HEXÁPODE · ANATOMIA RESPIRATÓRIA AVANÇADA</text><text x="72" y="158" font-family="Georgia" font-size="54" font-weight="700" fill="#2B2E34">Ácino pulmonar avançado</text><text x="74" y="204" font-family="Arial" font-size="22" fill="#6A727A">Organização tridimensional do ácino do bronquíolo respiratório aos ductos e sacos alveolares.</text><line x1="72" y1="236" x2="1528" y2="236" stroke="#DCD2BE" stroke-width="3"/><rect x="70" y="275" width="970" height="750" rx="28" fill="#FFFDF8" stroke="#DCD2BE" stroke-width="3"/><path d="M260 380 C420 420 500 530 560 660" fill="none" stroke="#1696A3" stroke-width="52" stroke-linecap="round"/><circle cx="600" cy="660" r="95" fill="#F4DDD9" stroke="#C45A3C" stroke-width="7"/><circle cx="600" cy="660" r="67" fill="#FFFDF8" stroke="#1696A3" stroke-width="4"/><circle cx="730" cy="620" r="88" fill="#F4DDD9" stroke="#C45A3C" stroke-width="7"/><circle cx="730" cy="620" r="60" fill="#FFFDF8" stroke="#1696A3" stroke-width="4"/><circle cx="700" cy="760" r="92" fill="#F4DDD9" stroke="#C45A3C" stroke-width="7"/><circle cx="700" cy="760" r="64" fill="#FFFDF8" stroke="#1696A3" stroke-width="4"/><circle cx="840" cy="720" r="86" fill="#F4DDD9" stroke="#C45A3C" stroke-width="7"/><circle cx="840" cy="720" r="58" fill="#FFFDF8" stroke="#1696A3" stroke-width="4"/><circle cx="560" cy="800" r="78" fill="#F4DDD9" stroke="#C45A3C" stroke-width="7"/><circle cx="560" cy="800" r="50" fill="#FFFDF8" stroke="#1696A3" stroke-width="4"/><path d="M250 930 C430 850 600 900 940 840" fill="none" stroke="#1D4E7A" stroke-width="16"/><path d="M250 970 C430 890 600 940 940 880" fill="none" stroke="#B2473F" stroke-width="16"/><rect x="1080" y="300" width="430" height="700" rx="24" fill="#FFFDF8" stroke="#DCD2BE" stroke-width="3"/><text x="1120" y="360" font-family="Arial" font-size="28" font-weight="700" fill="#1D4E7A">LEITURA ESTRUTURAL</text><circle cx="1135" cy="422" r="13" fill="#1696A3"/><text x="1170" y="430" font-family="Arial" font-size="23" fill="#2B2E34">Bronquíolo respiratório</text><line x1="1170" y1="450" x2="1450" y2="450" stroke="#DCD2BE" stroke-width="2"/><circle cx="1135" cy="527" r="13" fill="#1D4E7A"/><text x="1170" y="535" font-family="Arial" font-size="23" fill="#2B2E34">Ducto alveolar</text><line x1="1170" y1="555" x2="1450" y2="555" stroke="#DCD2BE" stroke-width="2"/><circle cx="1135" cy="632" r="13" fill="#C45A3C"/><text x="1170" y="640" font-family="Arial" font-size="23" fill="#2B2E34">Saco alveolar</text><line x1="1170" y1="660" x2="1450" y2="660" stroke="#DCD2BE" stroke-width="2"/><circle cx="1135" cy="737" r="13" fill="#2E7D69"/><text x="1170" y="745" font-family="Arial" font-size="23" fill="#2B2E34">Unidade de troca</text><line x1="1170" y1="765" x2="1450" y2="765" stroke="#DCD2BE" stroke-width="2"/><text x="72" y="1150" font-family="Arial" font-size="20" fill="#6A727A">HEX-A022-214 · Hexápode · camada avançada</text></svg>