<svg xmlns="http://www.w3.org/2000/svg" width="1600" height="1200" viewBox="0 0 1600 1200" role="img" aria-labelledby="t d"><title id="t">Hexápode — PSV</title><desc id="d">Ventilação com pressão de suporte, disparada e ciclada pelo paciente.</desc><rect width="1600" height="1200" fill="#F7F4EC"/><text x="85" y="120" font-family="Georgia" font-size="62" fill="#2B2E34">Hexápode — PSV</text><text x="88" y="168" font-family="Arial" font-size="24" fill="#1D4E7A">VENTILAÇÃO COM PRESSÃO DE SUPORTE</text><line x1="85" y1="195" x2="1515" y2="195" stroke="#2B2E34"/><text x="90" y="255" font-family="Arial" font-size="25">Paciente dispara e cicla; o ventilador fornece pressão de suporte.</text><rect x="70" y="320" width="700" height="700" rx="18" fill="#FBF9F3" stroke="#DCD2BE"/><text x="105" y="380" font-family="Arial" font-size="24" font-weight="700">CURVAS</text><path d="M150 500 L220 500 C230 520 240 520 250 500 L270 445 L610 445 L635 500" fill="none" stroke="#1D4E7A" stroke-width="7"/><path d="M150 660 L220 660 C235 690 245 690 255 660 C275 575 390 580 600 640 L635 660" fill="none" stroke="#1696A3" stroke-width="7"/><path d="M150 850 L225 850 C270 820 340 725 500 720 C570 745 610 810 635 850" fill="none" stroke="#C45A3C" stroke-width="7"/><text x="105" y="455" font-family="Arial" font-size="20" fill="#1D4E7A">Pressão</text><text x="105" y="615" font-family="Arial" font-size="20" fill="#1696A3">Fluxo</text><text x="105" y="805" font-family="Arial" font-size="20" fill="#C45A3C">Volume</text><rect x="815" y="320" width="715" height="700" rx="18" fill="#FBF9F3" stroke="#DCD2BE"/><text x="850" y="380" font-family="Arial" font-size="24" font-weight="700">CONTRATO DO MODO</text><circle cx="950" cy="510" r="75" fill="#E8E1D1" stroke="#C45A3C" stroke-width="4"/><path d="M920 530 C940 480 965 480 990 530" fill="none" stroke="#1696A3" stroke-width="6"/><path d="M1040 510 H1180" stroke="#1696A3" stroke-width="7"/><rect x="1210" y="445" width="190" height="130" rx="14" fill="#E8E1D1" stroke="#1D4E7A" stroke-width="4"/><text x="870" y="720" font-family="Arial" font-size="22">Trigger: esforço do paciente</text><text x="870" y="775" font-family="Arial" font-size="22">Limite: pressão de suporte</text><text x="870" y="830" font-family="Arial" font-size="22">Ciclagem: queda do fluxo</text><text x="90" y="1110" font-family="Arial" font-size="18" fill="#1D4E7A">HEX-G008-073 · Ventila · Respira · Emergências</text></svg>