<svg xmlns="http://www.w3.org/2000/svg" width="1600" height="1200" viewBox="0 0 1600 1200" role="img" aria-labelledby="t d"><title id="t">HEX-G006-058 — HFNC</title><desc id="d">Sistema de cânula nasal de alto fluxo com blender, aquecimento, umidificação e interface nasal.</desc><rect width="1600" height="1200" fill="#F7F4EC"/><text x="90" y="110" font-family="Georgia,serif" font-size="58" fill="#2B2E34">HFNC</text><text x="92" y="158" font-family="Arial" font-size="24" fill="#6A727A">alto fluxo • aquecimento • umidificação • interface nasal</text><line x1="90" y1="190" x2="1510" y2="190" stroke="#DCD2BE" stroke-width="3"/><rect x="150" y="350" width="300" height="430" rx="28" fill="#E8E1D1" stroke="#1D4E7A" stroke-width="8"/><rect x="205" y="410" width="190" height="125" rx="16" fill="#2B2E34"/><text x="247" y="490" font-family="Arial" font-size="34" fill="#F7F4EC">40 L/min</text><circle cx="300" cy="650" r="55" fill="#1696A3"/><rect x="535" y="430" width="220" height="300" rx="30" fill="#E8E1D1" stroke="#1696A3" stroke-width="8"/><path d="M585 665 Q645 560 705 665" fill="none" stroke="#1696A3" stroke-width="18"/><path d="M450 560 H535 M755 560 C930 560 980 430 1140 430" fill="none" stroke="#1696A3" stroke-width="34" stroke-dasharray="28 18"/><path d="M1140 430 Q1230 390 1320 450 Q1370 530 1320 610 Q1230 670 1140 610Z" fill="#E8E1D1" stroke="#2B2E34" stroke-width="7"/><path d="M1210 540 v80 M1260 540 v80" stroke="#1696A3" stroke-width="24" stroke-linecap="round"/><g font-family="Arial" font-size="27" fill="#2B2E34"><text x="185" y="850">blender/controlador</text><text x="555" y="800">aquecedor + câmara</text><text x="920" y="520">circuito aquecido</text><text x="1160" y="735">cânula nasal</text></g><rect x="230" y="970" width="1140" height="105" rx="18" fill="#E8E1D1"/><text x="290" y="1035" font-family="Arial" font-size="25" fill="#6A727A">A cadeia funcional é inseparável: mistura → aquecimento → umidificação → alto fluxo.</text></svg>