<svg xmlns="http://www.w3.org/2000/svg" viewBox="0 0 1600 1200" role="img"><title>Tamponamento cardíaco</title><rect width="1600" height="1200" fill="#F7F4EC"/><text x="90" y="125" font-family="Georgia" font-size="62" fill="#2B2E34">Tamponamento cardíaco</text><text x="90" y="175" font-family="Arial" font-size="24" fill="#6A727A">Pressão pericárdica limitando o enchimento</text><line x1="90" y1="210" x2="1510" y2="210" stroke="#DCD2BE" stroke-width="3"/><ellipse cx="650" cy="620" rx="430" ry="440" fill="#C9E6EA" stroke="#1696A3" stroke-width="8"/><path d="M540 420 C420 350 340 470 390 620 C440 760 560 830 650 890 C750 810 870 670 890 540 C910 400 770 340 690 430" fill="#F2D2CC" stroke="#2B2E34" stroke-width="7"/><path d="M260 620 H390 M1040 620 H890" stroke="#B2473F" stroke-width="18"/><polygon points="390,620 350,595 350,645" fill="#B2473F"/><polygon points="890,620 930,595 930,645" fill="#B2473F"/><text x="1060" y="420" font-family="Arial" font-size="28" fill="#1696A3">líquido pericárdico</text><text x="1060" y="480" font-family="Arial" font-size="28" fill="#B2473F">compressão das câmaras</text><text x="1060" y="540" font-family="Arial" font-size="24" fill="#2B2E34">↓ retorno venoso · ↓ débito</text><text x="90" y="1115" font-family="Arial" font-size="20" fill="#6A727A">HEX-G018-179 · Cardiologia</text></svg>