<svg xmlns="http://www.w3.org/2000/svg" viewBox="0 0 1600 1200" role="img"><title>Hexápode — Bronquíolos</title><desc>Bronquíolos esquemáticos com redução progressiva do calibre e ausência de cartilagem.</desc><rect width="1600" height="1200" fill="#F7F4EC"/><text x="70" y="95" font-family="serif" font-size="58" fill="#2B2E34">Hexápode — Bronquíolos</text><text x="72" y="140" font-family="sans-serif" font-size="24" fill="#6A727A">Calibre progressivamente menor · musculatura lisa · sem cartilagem</text><g fill="none" stroke-linecap="round"><path d="M250 600 C480 600 470 350 690 350" stroke="#1D4E7A" stroke-width="72"/><path d="M690 350 C900 350 900 220 1090 220 M690 350 C900 350 900 480 1110 480" stroke="#1696A3" stroke-width="50"/><path d="M1110 480 C1260 480 1280 390 1430 390 M1110 480 C1260 480 1280 580 1430 580" stroke="#2E7D69" stroke-width="28"/></g><g stroke="#C45A3C" stroke-width="12" fill="none"><path d="M330 555 q35 45 70 0 M510 455 q30 40 60 0 M780 305 q25 35 50 0 M960 430 q20 30 40 0 M1240 440 q15 20 30 0"/></g><text x="190" y="820" font-family="sans-serif" font-size="26" fill="#2B2E34">Brônquio pequeno</text><text x="650" y="800" font-family="sans-serif" font-size="26" fill="#2B2E34">Bronquíolo</text><text x="1130" y="800" font-family="sans-serif" font-size="26" fill="#2B2E34">Bronquíolo terminal</text><text x="70" y="1135" font-family="monospace" font-size="23" fill="#6A727A">HEX-G002-013 · CANONICAL</text></svg>