<svg xmlns="http://www.w3.org/2000/svg" viewBox="0 0 1600 1200" role="img" aria-labelledby="t d"><title id="t">Neurônio</title><desc id="d">neurônio multipolar com dendritos, soma, axônio mielinizado e terminal sináptico</desc><rect width="1600" height="1200" fill="#F7F4EC"/><text x="72" y="92" font-family="Arial" font-size="24" font-weight="700" fill="#1D4E7A">HEXÁPODE · G017 NEUROLOGIA</text><text x="72" y="164" font-family="Georgia" font-size="60" font-weight="700" fill="#2B2E34">Neurônio</text><text x="74" y="210" font-family="Arial" font-size="24" fill="#6A727A">neurônio multipolar com dendritos, soma, axônio mielinizado e terminal sináptico</text><line x1="72" y1="238" x2="1528" y2="238" stroke="#DCD2BE" stroke-width="3"/><rect x="72" y="275" width="1456" height="800" rx="28" fill="#FFFDF8" stroke="#DCD2BE" stroke-width="3"/><g transform="translate(150 330)"><circle cx="360" cy="330" r="135" fill="#F3DED6" stroke="#C45A3C" stroke-width="8"/><circle cx="360" cy="330" r="46" fill="#D39A2E" opacity=".75"/><g fill="none" stroke="#C45A3C" stroke-width="16" stroke-linecap="round"><path d="M250 245 C120 120 100 50 40 30"/><path d="M275 200 C230 65 285 15 260 -45"/><path d="M315 190 C350 70 430 35 455 -40"/><path d="M435 240 C560 125 650 130 730 70"/><path d="M230 345 C100 355 30 430 -40 470"/><path d="M270 430 C170 545 125 610 55 665"/></g><path d="M495 330 C650 320 790 335 950 330" fill="none" stroke="#1D4E7A" stroke-width="20"/><g fill="#E8E1D1" stroke="#1D4E7A" stroke-width="5"><rect x="570" y="292" width="90" height="76" rx="34"/><rect x="690" y="292" width="90" height="76" rx="34"/><rect x="810" y="292" width="90" height="76" rx="34"/></g><path d="M950 330 C1060 270 1120 215 1200 165 M950 330 C1080 335 1160 330 1240 355 M950 330 C1060 405 1130 455 1210 500" fill="none" stroke="#1696A3" stroke-width="15" stroke-linecap="round"/><g fill="#1696A3"><circle cx="1200" cy="165" r="18"/><circle cx="1240" cy="355" r="18"/><circle cx="1210" cy="500" r="18"/></g><g font-family="Arial" font-size="27" fill="#2B2E34"><text x="250" y="335">soma</text><text x="110" y="30">dendritos</text><text x="720" y="265">axônio mielinizado</text><text x="1030" y="555">terminais</text></g></g><text x="72" y="1150" font-family="Arial" font-size="20" fill="#6A727A">HEX-G017-161 · Hexápode · Neurologia</text></svg>