<svg xmlns="http://www.w3.org/2000/svg" viewBox="0 0 1600 1200" role="img" aria-labelledby="t d"><title id="t">Biblioteca mestre de componentes</title><desc id="d">Prancha vetorial reunindo componentes canônicos reutilizáveis do Hexápode.</desc><rect width="1600" height="1200" fill="#F7F4EC"/><text x="80" y="110" font-family="Georgia" font-size="60" fill="#2B2E34">Biblioteca mestre de componentes</text><text x="80" y="160" font-family="Arial" font-size="25" fill="#6A727A">Blocos visuais reutilizáveis para todos os atlas consumidores</text><line x1="80" y1="200" x2="1520" y2="200" stroke="#DCD2BE" stroke-width="3"/><g transform="translate(80 270)" font-family="Arial"><g><rect width="340" height="310" rx="26" fill="#FFFDF8" stroke="#DCD2BE" stroke-width="3"/><text x="30" y="50" font-size="25" font-weight="700" fill="#1D4E7A">CARDS</text><rect x="30" y="85" width="280" height="165" rx="20" fill="#E8E1D1"/><circle cx="80" cy="138" r="28" fill="#1696A3"/><rect x="125" y="115" width="140" height="18" rx="9" fill="#2B2E34"/><rect x="125" y="155" width="110" height="14" rx="7" fill="#6A727A"/><rect x="125" y="190" width="130" height="14" rx="7" fill="#6A727A"/></g><g transform="translate(380 0)"><rect width="340" height="310" rx="26" fill="#FFFDF8" stroke="#DCD2BE" stroke-width="3"/><text x="30" y="50" font-size="25" font-weight="700" fill="#1D4E7A">SETAS</text><g stroke-width="10"><line x1="45" y1="110" x2="285" y2="110" stroke="#1696A3"/><line x1="45" y1="175" x2="285" y2="175" stroke="#C45A3C" stroke-dasharray="20 14"/><path d="M45 250 C120 190 210 300 285 235" fill="none" stroke="#2E7D69"/></g><g fill="#1696A3"><polygon points="285,110 250,90 250,130"/></g><g fill="#C45A3C"><polygon points="285,175 250,155 250,195"/></g><g fill="#2E7D69"><polygon points="285,235 250,218 255,255"/></g></g><g transform="translate(760 0)"><rect width="340" height="310" rx="26" fill="#FFFDF8" stroke="#DCD2BE" stroke-width="3"/><text x="30" y="50" font-size="25" font-weight="700" fill="#1D4E7A">STATUS</text><g><circle cx="80" cy="145" r="42" fill="#2E7D69"/><path d="M60 145 L75 162 L105 125" fill="none" stroke="#FFFDF8" stroke-width="10"/><circle cx="170" cy="145" r="42" fill="#D39A2E"/><path d="M170 120 V155 M170 175 V178" stroke="#FFFDF8" stroke-width="10"/><circle cx="260" cy="145" r="42" fill="#B2473F"/><path d="M242 127 L278 163 M278 127 L242 163" stroke="#FFFDF8" stroke-width="10"/></g><rect x="45" y="230" width="250" height="22" rx="11" fill="#E8E1D1"/><rect x="45" y="230" width="165" height="22" rx="11" fill="#1696A3"/></g><g transform="translate(1140 0)"><rect width="340" height="310" rx="26" fill="#FFFDF8" stroke="#DCD2BE" stroke-width="3"/><text x="30" y="50" font-size="25" font-weight="700" fill="#1D4E7A">ÍCONES</text><g fill="none" stroke="#2B2E34" stroke-width="8"><circle cx="85" cy="150" r="40"/><path d="M160 190 C140 100 250 100 230 190"/><rect x="265" y="110" width="45" height="80" rx="10"/></g></g><g transform="translate(0 360)"><rect width="720" height="330" rx="26" fill="#FFFDF8" stroke="#DCD2BE" stroke-width="3"/><text x="30" y="50" font-size="25" font-weight="700" fill="#1D4E7A">GRÁFICOS E ESCALAS</text><line x1="70" y1="260" x2="650" y2="260" stroke="#2B2E34" stroke-width="5"/><line x1="70" y1="260" x2="70" y2="90" stroke="#2B2E34" stroke-width="5"/><path d="M80 230 C180 190 210 220 300 155 S460 120 630 75" fill="none" stroke="#1696A3" stroke-width="12"/><g fill="#D39A2E"><circle cx="300" cy="155" r="13"/><circle cx="630" cy="75" r="13"/></g></g><g transform="translate(760 360)"><rect width="720" height="330" rx="26" fill="#FFFDF8" stroke="#DCD2BE" stroke-width="3"/><text x="30" y="50" font-size="25" font-weight="700" fill="#1D4E7A">ANATOMIA ESQUEMÁTICA</text><circle cx="180" cy="145" r="35" fill="#F1C9B8"/><rect x="145" y="180" width="70" height="105" rx="30" fill="#F1C9B8"/><path d="M145 205 L90 270 M215 205 L270 270 M160 280 L125 325 M200 280 L235 325" stroke="#F1C9B8" stroke-width="22" stroke-linecap="round"/><path d="M390 100 C300 180 330 280 390 300 C450 280 480 180 390 100Z" fill="#C45A3C"/><path d="M520 140 C590 90 650 120 660 190 C670 260 590 300 520 250Z" fill="#1696A3" opacity=".75"/></g></g><text x="80" y="1140" font-family="Arial" font-size="21" fill="#6A727A">HEX-G020-200 · Hexápode · Biblioteca Universal</text></svg>