<svg xmlns="http://www.w3.org/2000/svg" viewBox="0 0 1600 1200" role="img"><title>Hexápode — Árvore brônquica</title><desc>Árvore brônquica esquemática da traqueia aos bronquíolos terminais e ácinos.</desc><rect width="1600" height="1200" fill="#F7F4EC"/><text x="70" y="95" font-family="serif" font-size="58" fill="#2B2E34">Hexápode — Árvore brônquica</text><text x="72" y="140" font-family="sans-serif" font-size="24" fill="#6A727A">Hierarquia de condução até a unidade respiratória distal</text><g fill="none" stroke-linecap="round"><path d="M800 200 V410" stroke="#2B2E34" stroke-width="64"/><path d="M800 405 L580 600 M800 405 L1020 600" stroke="#1D4E7A" stroke-width="54"/><path d="M580 600 L420 750 M580 600 L600 810 M1020 600 L1000 810 M1020 600 L1180 750" stroke="#1696A3" stroke-width="40"/><path d="M420 750 L300 900 M420 750 L460 930 M600 810 L560 960 M600 810 L700 950 M1000 810 L900 950 M1000 810 L1040 960 M1180 750 L1140 930 M1180 750 L1300 900" stroke="#2E7D69" stroke-width="24"/></g><g fill="#E9B2A4" stroke="#C45A3C" stroke-width="7"><circle cx="280" cy="930" r="45"/><circle cx="465" cy="960" r="45"/><circle cx="550" cy="995" r="45"/><circle cx="720" cy="985" r="45"/><circle cx="880" cy="985" r="45"/><circle cx="1050" cy="995" r="45"/><circle cx="1135" cy="960" r="45"/><circle cx="1320" cy="930" r="45"/></g><g font-family="sans-serif" font-size="25" fill="#2B2E34"><text x="845" y="250">Traqueia</text><text x="1040" y="520">Brônquios principais</text><text x="190" y="690">Brônquios lobares</text><text x="660" y="850">Bronquíolos</text><text x="1170" y="1080">Ácinos</text></g><text x="70" y="1135" font-family="monospace" font-size="23" fill="#6A727A">HEX-G002-020 · CANONICAL</text></svg>