<svg xmlns="http://www.w3.org/2000/svg" viewBox="0 0 1600 1200" role="img"><title>HEX-G010-096 — Derrame pleural</title><desc>Líquido pleural acumulado com compressão pulmonar basal.</desc><rect width="1600" height="1200" fill="#F7F4EC"/><text x="90" y="120" font-family="serif" font-size="72" fill="#2B2E34">Derrame pleural</text><text x="90" y="175" font-family="sans-serif" font-size="28" fill="#6A727A">líquido pleural • compressão basal • menisco</text><g transform="translate(230 250)"><path d="M420 90C190 100 40 290 70 650s210 420 440 320V190C485 120 460 90 420 90Z" fill="#E8E1D1" stroke="#2B2E34" stroke-width="10"/><path d="M600 190v780c230 100 410 40 440-320s-120-550-350-560c-40 0-65 30-90 100Z" fill="#E8E1D1" stroke="#2B2E34" stroke-width="10"/><path d="M610 700q210-130 420 0v270H610Z" fill="#1696A3" opacity=".62"/><path d="M930 650l150-100" stroke="#1D4E7A" stroke-width="16"/><text x="1090" y="550" font-family="sans-serif" font-size="28" fill="#2B2E34">líquido pleural</text><text x="760" y="920" font-family="sans-serif" font-size="27" fill="#1D4E7A">compressão pulmonar</text></g></svg>