<svg xmlns="http://www.w3.org/2000/svg" viewBox="0 0 1600 1200" role="img" aria-labelledby="t d"><title id="t">Caixa torácica avançada</title><desc id="d">Mecânica tridimensional das costelas e esterno nos movimentos de alça de balde e bomba d’água.</desc><rect width="1600" height="1200" fill="#F7F4EC"/><text x="72" y="90" font-family="Arial" font-size="24" font-weight="700" fill="#1D4E7A">HEXÁPODE · ANATOMIA RESPIRATÓRIA AVANÇADA</text><text x="72" y="158" font-family="Georgia" font-size="54" font-weight="700" fill="#2B2E34">Caixa torácica avançada</text><text x="74" y="204" font-family="Arial" font-size="22" fill="#6A727A">Mecânica tridimensional das costelas e esterno nos movimentos de alça de balde e bomba d’água.</text><line x1="72" y1="236" x2="1528" y2="236" stroke="#DCD2BE" stroke-width="3"/><rect x="70" y="275" width="970" height="750" rx="28" fill="#FFFDF8" stroke="#DCD2BE" stroke-width="3"/><path d="M540 330 V930" stroke="#2B2E34" stroke-width="28"/><path d="M220 390 Q540 470 870 390" fill="none" stroke="#E8E1D1" stroke-width="30"/><path d="M220 390 Q540 470 870 390" fill="none" stroke="#1D4E7A" stroke-width="5"/><path d="M228 460 Q540 540 865 460" fill="none" stroke="#E8E1D1" stroke-width="30"/><path d="M228 460 Q540 540 865 460" fill="none" stroke="#1D4E7A" stroke-width="5"/><path d="M236 530 Q540 610 860 530" fill="none" stroke="#E8E1D1" stroke-width="30"/><path d="M236 530 Q540 610 860 530" fill="none" stroke="#1D4E7A" stroke-width="5"/><path d="M244 600 Q540 680 855 600" fill="none" stroke="#E8E1D1" stroke-width="30"/><path d="M244 600 Q540 680 855 600" fill="none" stroke="#1D4E7A" stroke-width="5"/><path d="M252 670 Q540 750 850 670" fill="none" stroke="#E8E1D1" stroke-width="30"/><path d="M252 670 Q540 750 850 670" fill="none" stroke="#1D4E7A" stroke-width="5"/><path d="M260 740 Q540 820 845 740" fill="none" stroke="#E8E1D1" stroke-width="30"/><path d="M260 740 Q540 820 845 740" fill="none" stroke="#1D4E7A" stroke-width="5"/><path d="M268 810 Q540 890 840 810" fill="none" stroke="#E8E1D1" stroke-width="30"/><path d="M268 810 Q540 890 840 810" fill="none" stroke="#1D4E7A" stroke-width="5"/><path d="M276 880 Q540 960 835 880" fill="none" stroke="#E8E1D1" stroke-width="30"/><path d="M276 880 Q540 960 835 880" fill="none" stroke="#1D4E7A" stroke-width="5"/><path d="M230 720 H120 M850 720 H980" stroke="#1696A3" stroke-width="10"/><polygon points="120,720 155,700 155,740" fill="#1696A3"/><polygon points="980,720 945,700 945,740" fill="#1696A3"/><rect x="1080" y="300" width="430" height="700" rx="24" fill="#FFFDF8" stroke="#DCD2BE" stroke-width="3"/><text x="1120" y="360" font-family="Arial" font-size="28" font-weight="700" fill="#1D4E7A">LEITURA ESTRUTURAL</text><circle cx="1135" cy="422" r="13" fill="#1696A3"/><text x="1170" y="430" font-family="Arial" font-size="23" fill="#2B2E34">Esterno</text><line x1="1170" y1="450" x2="1450" y2="450" stroke="#DCD2BE" stroke-width="2"/><circle cx="1135" cy="527" r="13" fill="#1D4E7A"/><text x="1170" y="535" font-family="Arial" font-size="23" fill="#2B2E34">Costelas</text><line x1="1170" y1="555" x2="1450" y2="555" stroke="#DCD2BE" stroke-width="2"/><circle cx="1135" cy="632" r="13" fill="#C45A3C"/><text x="1170" y="640" font-family="Arial" font-size="23" fill="#2B2E34">Alça de balde</text><line x1="1170" y1="660" x2="1450" y2="660" stroke="#DCD2BE" stroke-width="2"/><circle cx="1135" cy="737" r="13" fill="#2E7D69"/><text x="1170" y="745" font-family="Arial" font-size="23" fill="#2B2E34">Bomba d’água</text><line x1="1170" y1="765" x2="1450" y2="765" stroke="#DCD2BE" stroke-width="2"/><circle cx="1135" cy="842" r="13" fill="#D39A2E"/><text x="1170" y="850" font-family="Arial" font-size="23" fill="#2B2E34">Eixo vertebral</text><line x1="1170" y1="870" x2="1450" y2="870" stroke="#DCD2BE" stroke-width="2"/><text x="72" y="1150" font-family="Arial" font-size="20" fill="#6A727A">HEX-A022-218 · Hexápode · camada avançada</text></svg>