<svg xmlns="http://www.w3.org/2000/svg" viewBox="0 0 1600 1200" role="img" aria-labelledby="t d"><title id="t">Bronquíolos avançados</title><desc id="d">Transição de brônquio pequeno para bronquíolo terminal e respiratório, sem cartilagem e com músculo liso.</desc><rect width="1600" height="1200" fill="#F7F4EC"/><text x="72" y="90" font-family="Arial" font-size="24" font-weight="700" fill="#1D4E7A">HEXÁPODE · ANATOMIA RESPIRATÓRIA AVANÇADA</text><text x="72" y="158" font-family="Georgia" font-size="54" font-weight="700" fill="#2B2E34">Bronquíolos avançados</text><text x="74" y="204" font-family="Arial" font-size="22" fill="#6A727A">Transição de brônquio pequeno para bronquíolo terminal e respiratório, sem cartilagem e com músculo liso.</text><line x1="72" y1="236" x2="1528" y2="236" stroke="#DCD2BE" stroke-width="3"/><rect x="70" y="275" width="970" height="750" rx="28" fill="#FFFDF8" stroke="#DCD2BE" stroke-width="3"/><path d="M170 600 C310 470 430 470 560 600 S820 730 960 590" fill="none" stroke="#C45A3C" stroke-width="120" stroke-linecap="round"/><path d="M170 600 C310 470 430 470 560 600 S820 730 960 590" fill="none" stroke="#FFFDF8" stroke-width="72" stroke-linecap="round"/><path d="M220 390 H900" stroke="#1D4E7A" stroke-width="8"/><polygon points="900,390 860,365 860,415" fill="#1D4E7A"/><text x="250" y="350" font-family="Arial" font-size="24" fill="#1D4E7A">calibre ↓ · cartilagem desaparece · músculo liso persiste</text><rect x="1080" y="300" width="430" height="700" rx="24" fill="#FFFDF8" stroke="#DCD2BE" stroke-width="3"/><text x="1120" y="360" font-family="Arial" font-size="28" font-weight="700" fill="#1D4E7A">LEITURA ESTRUTURAL</text><circle cx="1135" cy="422" r="13" fill="#1696A3"/><text x="1170" y="430" font-family="Arial" font-size="23" fill="#2B2E34">Perda de cartilagem</text><line x1="1170" y1="450" x2="1450" y2="450" stroke="#DCD2BE" stroke-width="2"/><circle cx="1135" cy="527" r="13" fill="#1D4E7A"/><text x="1170" y="535" font-family="Arial" font-size="23" fill="#2B2E34">Músculo liso</text><line x1="1170" y1="555" x2="1450" y2="555" stroke="#DCD2BE" stroke-width="2"/><circle cx="1135" cy="632" r="13" fill="#C45A3C"/><text x="1170" y="640" font-family="Arial" font-size="23" fill="#2B2E34">Bronquíolo terminal</text><line x1="1170" y1="660" x2="1450" y2="660" stroke="#DCD2BE" stroke-width="2"/><circle cx="1135" cy="737" r="13" fill="#2E7D69"/><text x="1170" y="745" font-family="Arial" font-size="23" fill="#2B2E34">Bronquíolo respiratório</text><line x1="1170" y1="765" x2="1450" y2="765" stroke="#DCD2BE" stroke-width="2"/><text x="72" y="1150" font-family="Arial" font-size="20" fill="#6A727A">HEX-A022-213 · Hexápode · camada avançada</text></svg>