<svg xmlns="http://www.w3.org/2000/svg" viewBox="0 0 1600 1200" role="img"><title>Sístole</title><rect width="1600" height="1200" fill="#F7F4EC"/><text x="90" y="125" font-family="Georgia" font-size="62" fill="#2B2E34">Sístole</text><text x="90" y="175" font-family="Arial" font-size="24" fill="#6A727A">Contração ventricular e ejeção</text><line x1="90" y1="210" x2="1510" y2="210" stroke="#DCD2BE" stroke-width="3"/><ellipse cx="620" cy="620" rx="300" ry="360" fill="#F2D2CC" stroke="#2B2E34" stroke-width="7"/><path d="M460 500 C530 420 700 420 780 500 C730 680 660 790 620 850 C560 760 500 660 460 500Z" fill="#C45A3C"/><path d="M360 620 H250 M880 620 H990" stroke="#B2473F" stroke-width="18"/><polygon points="250,620 290,595 290,645" fill="#B2473F"/><polygon points="990,620 950,595 950,645" fill="#B2473F"/><text x="1040" y="430" font-family="Arial" font-size="28" fill="#1D4E7A">valvas AV fechadas</text><text x="1040" y="490" font-family="Arial" font-size="28" fill="#2E7D69">semilunares abertas</text><text x="1040" y="550" font-family="Arial" font-size="24" fill="#2B2E34">pressão → ejeção</text><text x="90" y="1115" font-family="Arial" font-size="20" fill="#6A727A">HEX-G018-174 · Cardiologia</text></svg>