<svg xmlns="http://www.w3.org/2000/svg" viewBox="0 0 1600 1200" role="img" aria-labelledby="t d"><title id="t">Inspiração — contração diafragmática</title><desc id="d">Descenso do diafragma durante a inspiração.</desc><rect width="1600" height="1200" fill="#F7F4EC"/><text x="90" y="120" font-family="Georgia" font-size="62" fill="#2B2E34">Inspiração — contração diafragmática</text><text x="90" y="170" font-family="Arial" font-size="24" fill="#6A727A">O descenso diafragmático amplia o eixo vertical do tórax</text><line x1="90" y1="205" x2="1510" y2="205" stroke="#DCD2BE" stroke-width="3"/><g transform="translate(250 290)"><path d="M250 60 C110 160 100 520 230 690 C300 760 390 730 410 650 L410 180 C380 100 320 60 250 60Z" fill="#E7B2A8" stroke="#B2473F" stroke-width="6"/><path d="M850 60 C990 160 1000 520 870 690 C800 760 710 730 690 650 L690 180 C720 100 780 60 850 60Z" fill="#E7B2A8" stroke="#B2473F" stroke-width="6"/><path d="M220 690 Q550 790 880 690" fill="none" stroke="#C45A3C" stroke-width="24"/><path d="M550 700 V900" stroke="#1696A3" stroke-width="22"/><polygon points="550,920 510,850 590,850" fill="#1696A3"/><text x="360" y="990" font-family="Arial" font-size="30" fill="#1D4E7A">contração → descenso → inspiração</text></g><text x="90" y="1120" font-family="Arial" font-size="20" fill="#6A727A">HEX-A024-232 · Hexápode · Mecânica Respiratória Avançada</text></svg>