<svg xmlns="http://www.w3.org/2000/svg" viewBox="0 0 1600 1200" role="img"><title>Cerebelo</title><rect width="1600" height="1200" fill="#F7F4EC"/><text x="72" y="92" font-family="Arial" font-size="24" font-weight="700" fill="#1D4E7A">HEXÁPODE · G017 NEUROLOGIA</text><text x="72" y="164" font-family="Georgia" font-size="60" fill="#2B2E34">Cerebelo</text><text x="74" y="210" font-family="Arial" font-size="24" fill="#6A727A">Coordenação, equilíbrio e aprendizagem motora</text><line x1="72" y1="238" x2="1528" y2="238" stroke="#DCD2BE" stroke-width="3"/><rect x="72" y="275" width="1456" height="800" rx="28" fill="#FFFDF8" stroke="#DCD2BE" stroke-width="3"/><g transform="translate(170 330)"><path d="M190 420 C170 230 330 100 520 170 C680 65 900 140 930 350 C960 550 770 690 550 625 C340 705 180 615 190 420Z" fill="#E8D9E8" stroke="#1D4E7A" stroke-width="8"/><path d="M550 165 C500 250 500 535 550 625" fill="none" stroke="#C45A3C" stroke-width="18"/><g fill="none" stroke="#6A727A" stroke-width="5" opacity=".65"><path d="M260 270 C350 230 430 245 510 280"/><path d="M225 350 C340 315 440 330 515 360"/><path d="M225 440 C350 405 435 420 520 450"/><path d="M595 280 C690 230 795 240 870 285"/><path d="M590 360 C700 310 810 335 900 380"/><path d="M590 455 C700 410 815 430 890 480"/></g><path d="M930 350 C1060 340 1130 300 1200 230 M930 430 C1080 450 1140 500 1210 555" fill="none" stroke="#1696A3" stroke-width="18"/><text x="460" y="760" font-family="Arial" font-size="30" fill="#2B2E34">vermis</text><text x="170" y="810" font-family="Arial" font-size="27" fill="#2B2E34">hemisfério esquerdo</text><text x="700" y="810" font-family="Arial" font-size="27" fill="#2B2E34">hemisfério direito</text><text x="980" y="640" font-family="Arial" font-size="27" fill="#1696A3">pedúnculos</text></g><text x="72" y="1150" font-family="Arial" font-size="20" fill="#6A727A">HEX-G017-165 · Hexápode · Neurologia</text></svg>