<svg xmlns="http://www.w3.org/2000/svg" viewBox="0 0 1600 1200" role="img" aria-labelledby="t d"><title id="t">Inspiração — expansão torácica</title><desc id="d">Expansão da caixa torácica e aumento do volume pulmonar durante a inspiração.</desc><rect width="1600" height="1200" fill="#F7F4EC"/><text x="90" y="120" font-family="Georgia" font-size="62" fill="#2B2E34">Inspiração — expansão torácica</text><text x="90" y="170" font-family="Arial" font-size="24" fill="#6A727A">Aumento dos diâmetros transversal e anteroposterior</text><line x1="90" y1="205" x2="1510" y2="205" stroke="#DCD2BE" stroke-width="3"/><g transform="translate(330 270)"><path d="M470 40 C270 70 180 250 215 520 C255 760 380 850 470 850 C560 850 685 760 725 520 C760 250 670 70 470 40Z" fill="#FFFDF8" stroke="#2B2E34" stroke-width="7"/><path d="M455 140 C320 180 300 390 330 650 C360 730 415 760 455 735Z" fill="#E7B2A8" stroke="#B2473F" stroke-width="5"/><path d="M485 140 C620 180 640 390 610 650 C580 730 525 760 485 735Z" fill="#E7B2A8" stroke="#B2473F" stroke-width="5"/><path d="M250 430 H40" stroke="#1696A3" stroke-width="20"/><polygon points="40,430 100,390 100,470" fill="#1696A3"/><path d="M690 430 H900" stroke="#1696A3" stroke-width="20"/><polygon points="900,430 840,390 840,470" fill="#1696A3"/><path d="M285 700 Q470 800 655 700" fill="none" stroke="#C45A3C" stroke-width="18"/><text x="300" y="930" font-family="Arial" font-size="30" fill="#1D4E7A">volume torácico ↑ · pressão alveolar ↓</text></g><text x="90" y="1120" font-family="Arial" font-size="20" fill="#6A727A">HEX-A024-231 · Hexápode · Mecânica Respiratória Avançada</text></svg>