<svg xmlns="http://www.w3.org/2000/svg" viewBox="0 0 1600 1200" role="img"><title>Via aérea difícil</title><rect width="1600" height="1200" fill="#F7F4EC"/><text x="72" y="98" font-family="Arial" font-size="26" font-weight="700" fill="#1D4E7A">HEXÁPODE</text><text x="72" y="166" font-family="Georgia" font-size="58" font-weight="700" fill="#2B2E34">Via aérea difícil</text><text x="74" y="210" font-family="Arial" font-size="24" fill="#6A727A">Anatomia, alinhamento e acesso à glote</text><line x1="72" y1="238" x2="1528" y2="238" stroke="#DCD2BE" stroke-width="3"/><rect x="72" y="275" width="1456" height="760" rx="24" fill="#FFFDF8" stroke="#DCD2BE" stroke-width="2"/><path d="M220 390 C270 300 430 300 500 380 C545 430 525 520 470 565 L470 780 L250 780 L250 575 C190 540 180 455 220 390Z" fill="#E8E1D1" stroke="#2B2E34" stroke-width="5"/><path d="M350 390 C300 420 305 485 365 500 L420 520 L390 590" fill="none" stroke="#1696A3" stroke-width="12"/><path d="M560 380 L720 570 L670 612 L510 420Z" fill="#DCEAF3" stroke="#1D4E7A" stroke-width="5"/><rect x="710" y="555" width="62" height="235" rx="20" fill="#1D4E7A" stroke="#2B2E34" stroke-width="3"/><line x1="800" y1="620" x2="1030" y2="620" stroke="#D39A2E" stroke-width="9"/><polygon points="1030,620 998,601 998,639" fill="#D39A2E"/><rect x="1080" y="345" width="350" height="470" rx="24" fill="#F7F4EC" stroke="#DCD2BE" stroke-width="2"/><text x="1120" y="405" font-family="Arial" font-size="24" font-weight="700" fill="#B2473F">FATORES VISUAIS</text><text x="1120" y="475" font-family="Arial" font-size="22" fill="#2B2E34">abertura oral</text><text x="1120" y="525" font-family="Arial" font-size="22" fill="#2B2E34">mobilidade cervical</text><text x="1120" y="575" font-family="Arial" font-size="22" fill="#2B2E34">posição da cabeça</text><text x="1120" y="625" font-family="Arial" font-size="22" fill="#2B2E34">linha de visão</text><text x="1120" y="675" font-family="Arial" font-size="22" fill="#2B2E34">obstrução anatômica</text><rect x="250" y="850" width="760" height="85" rx="20" fill="#E8E1D1"/><text x="630" y="905" font-family="Arial" font-size="27" font-weight="700" fill="#2B2E34" text-anchor="middle">previsão anatômica → alinhamento → visualização da glote</text><text x="72" y="1152" font-family="Arial" font-size="20" fill="#6A727A">HEX-G014-140 · Ventila · Anestesia · Trauma · Emergências</text></svg>