<svg xmlns="http://www.w3.org/2000/svg" viewBox="0 0 1600 1200" role="img"><title>Ultrassom cardíaco</title><rect width="1600" height="1200" fill="#F7F4EC"/><text x="72" y="92" font-family="Arial" font-size="25" font-weight="700" fill="#1D4E7A">HEXÁPODE · ULTRASSOM</text><text x="72" y="164" font-family="Georgia" font-size="58" fill="#2B2E34">Ultrassom cardíaco</text><text x="74" y="208" font-family="Arial" font-size="24" fill="#6A727A">Janelas paraesternal, apical e subcostal</text><line x1="72" y1="238" x2="1528" y2="238" stroke="#DCD2BE" stroke-width="3"/><rect x="72" y="275" width="1456" height="760" rx="24" fill="#FFFDF8" stroke="#DCD2BE"/><g transform="translate(120 330)"><rect width="600" height="590" rx="24" fill="#F5F6F7" stroke="#DCD2BE"/><path d="M300 110 C190 180 175 330 270 430 C360 350 430 230 390 135 C360 110 330 100 300 110Z" fill="#F3E2D8" stroke="#C45A3C" stroke-width="7"/><path d="M300 115 C330 220 325 330 270 430" fill="none" stroke="#2B2E34" stroke-width="6"/><text x="125" y="540" font-family="Arial" font-size="25" fill="#2B2E34">função global · câmaras · derrame</text><rect x="690" width="600" height="590" rx="24" fill="#FFFDF8" stroke="#DCD2BE"/><text x="740" y="90" font-family="Arial" font-size="30" font-weight="700" fill="#1D4E7A">JANELAS</text><text x="760" y="180" font-family="Arial" font-size="27" fill="#2B2E34">paraesternal</text><text x="760" y="260" font-family="Arial" font-size="27" fill="#2B2E34">apical</text><text x="760" y="340" font-family="Arial" font-size="27" fill="#2B2E34">subcostal</text><text x="760" y="420" font-family="Arial" font-size="27" fill="#2B2E34">supraesternal</text></g><text x="72" y="1152" font-family="Arial" font-size="20" fill="#6A727A">HEX-G019-188 · Hexápode · Ultrassom</text></svg>