<svg xmlns="http://www.w3.org/2000/svg" viewBox="0 0 1600 1200" role="img"><title>Potencial de ação</title><rect width="1600" height="1200" fill="#F7F4EC"/><text x="72" y="92" font-family="Arial" font-size="24" font-weight="700" fill="#1D4E7A">HEXÁPODE · G017 NEUROLOGIA</text><text x="72" y="164" font-family="Georgia" font-size="60" fill="#2B2E34">Potencial de ação</text><text x="74" y="210" font-family="Arial" font-size="24" fill="#6A727A">Despolarização, repolarização e refratariedade</text><line x1="72" y1="238" x2="1528" y2="238" stroke="#DCD2BE" stroke-width="3"/><rect x="72" y="275" width="1456" height="800" rx="28" fill="#FFFDF8" stroke="#DCD2BE" stroke-width="3"/><g transform="translate(170 330)"><line x1="100" y1="620" x2="1250" y2="620" stroke="#2B2E34" stroke-width="5"/><line x1="100" y1="620" x2="100" y2="60" stroke="#2B2E34" stroke-width="5"/><line x1="100" y1="480" x2="1250" y2="480" stroke="#DCD2BE" stroke-width="3" stroke-dasharray="15 12"/><path d="M120 485 C260 485 300 480 360 450 C420 400 460 170 540 90 C600 165 650 380 720 500 C790 610 860 700 960 610 C1050 530 1100 490 1230 485" fill="none" stroke="#1D4E7A" stroke-width="14"/><path d="M360 450 C420 400 460 170 540 90" fill="none" stroke="#1696A3" stroke-width="16"/><path d="M540 90 C600 165 650 380 720 500" fill="none" stroke="#B2473F" stroke-width="16"/><path d="M720 500 C790 610 860 700 960 610" fill="none" stroke="#D39A2E" stroke-width="16"/><g font-family="Arial" font-size="26" fill="#2B2E34"><text x="305" y="405">despolarização</text><text x="560" y="250">repolarização</text><text x="760" y="760">hiperpolarização</text><text x="20" y="488">−70 mV</text><text x="560" y="700">tempo</text></g></g><text x="72" y="1150" font-family="Arial" font-size="20" fill="#6A727A">HEX-G017-163 · Hexápode · Neurologia</text></svg>