<svg xmlns="http://www.w3.org/2000/svg" viewBox="0 0 1600 1200" role="img"><title>Corpo humano masculino esquemático</title><rect width="1600" height="1200" fill="#F7F4EC"/><text x="70" y="100" font-size="58" fill="#2B2E34">Hexápode — Corpo humano masculino</text><g fill="#E8E1D1" stroke="#2B2E34" stroke-width="7"><circle cx="400" cy="300" r="55"/><rect x="320" y="365" width="160" height="340" rx="45"/><path d="M320 430 L220 690 M480 430 L580 690 M360 705 L330 1020 M440 705 L470 1020"/><circle cx="800" cy="300" r="55"/><rect x="720" y="365" width="160" height="340" rx="45"/><path d="M720 430 L620 690 M880 430 L980 690 M760 705 L730 1020 M840 705 L870 1020"/><circle cx="1200" cy="300" r="55"/><rect x="1150" y="365" width="100" height="340" rx="40"/><path d="M1150 430 L1080 690 M1250 430 L1320 690 M1180 705 L1160 1020 M1220 705 L1240 1020"/></g><text x="70" y="1130" font-size="24" fill="#6A727A">HEX-G001-004</text></svg>