<svg xmlns="http://www.w3.org/2000/svg" viewBox="0 0 1600 1200" role="img"><title>Coronárias</title><rect width="1600" height="1200" fill="#F7F4EC"/><text x="90" y="125" font-family="Georgia" font-size="62" fill="#2B2E34">Coronárias</text><text x="90" y="175" font-family="Arial" font-size="24" fill="#6A727A">Perfusão epicárdica e territórios miocárdicos</text><line x1="90" y1="210" x2="1510" y2="210" stroke="#DCD2BE" stroke-width="3"/><path d="M520 330 C390 250 260 340 300 520 C340 690 520 820 650 900 C800 790 930 620 940 470 C950 310 790 250 680 350" fill="#F2D2CC" stroke="#2B2E34" stroke-width="7"/><path d="M650 250 C640 410 610 500 520 610 C470 680 430 750 410 840 M650 390 C730 470 790 570 830 730 M520 490 C430 520 380 590 350 690" fill="none" stroke="#B2473F" stroke-width="18"/><circle cx="650" cy="250" r="20" fill="#D39A2E"/><text x="1040" y="410" font-family="Arial" font-size="28" fill="#1D4E7A">Fluxo diastólico predominante</text><text x="1040" y="470" font-family="Arial" font-size="24" fill="#2B2E34">territórios RCA, LAD e CX</text><text x="90" y="1115" font-family="Arial" font-size="20" fill="#6A727A">HEX-G018-173 · Cardiologia</text></svg>