<svg xmlns="http://www.w3.org/2000/svg" viewBox="0 0 1600 1200" role="img" aria-labelledby="t d"><title id="t">Tecidos</title><desc id="d">Diagrama vetorial dos tecidos epitelial, conjuntivo, muscular e nervoso.</desc><rect width="1600" height="1200" fill="#F7F4EC"/><text x="80" y="110" font-family="Georgia" font-size="64" fill="#2B2E34">Tecidos</text><text x="80" y="160" font-family="Arial" font-size="25" fill="#6A727A">Quatro padrões fundamentais de organização celular</text><line x1="80" y1="200" x2="1520" y2="200" stroke="#DCD2BE" stroke-width="3"/><g transform="translate(90 270)" font-family="Arial"><rect width="680" height="340" rx="28" fill="#FFFDF8" stroke="#DCD2BE" stroke-width="3"/><text x="340" y="55" text-anchor="middle" font-size="28" font-weight="700" fill="#1D4E7A">EPITELIAL</text><g fill="#F1C9B8" stroke="#2B2E34" stroke-width="4"><rect x="90" y="110" width="95" height="150" rx="28"/><rect x="190" y="110" width="95" height="150" rx="28"/><rect x="290" y="110" width="95" height="150" rx="28"/><rect x="390" y="110" width="95" height="150" rx="28"/><rect x="490" y="110" width="95" height="150" rx="28"/></g><line x1="85" y1="270" x2="590" y2="270" stroke="#C45A3C" stroke-width="14"/></g><g transform="translate(830 270)" font-family="Arial"><rect width="680" height="340" rx="28" fill="#FFFDF8" stroke="#DCD2BE" stroke-width="3"/><text x="340" y="55" text-anchor="middle" font-size="28" font-weight="700" fill="#1D4E7A">CONJUNTIVO</text><path d="M90 120 C250 280 430 70 590 235 M80 250 C250 75 430 290 600 110" fill="none" stroke="#1696A3" stroke-width="10"/><g fill="#B2473F"><circle cx="160" cy="190" r="34"/><circle cx="340" cy="155" r="28"/><circle cx="520" cy="220" r="34"/></g></g><g transform="translate(90 670)" font-family="Arial"><rect width="680" height="340" rx="28" fill="#FFFDF8" stroke="#DCD2BE" stroke-width="3"/><text x="340" y="55" text-anchor="middle" font-size="28" font-weight="700" fill="#1D4E7A">MUSCULAR</text><g fill="#C45A3C" stroke="#2B2E34" stroke-width="4"><rect x="90" y="105" width="500" height="55" rx="27"/><rect x="90" y="175" width="500" height="55" rx="27"/><rect x="90" y="245" width="500" height="55" rx="27"/></g></g><g transform="translate(830 670)" font-family="Arial"><rect width="680" height="340" rx="28" fill="#FFFDF8" stroke="#DCD2BE" stroke-width="3"/><text x="340" y="55" text-anchor="middle" font-size="28" font-weight="700" fill="#1D4E7A">NERVOSO</text><circle cx="240" cy="190" r="70" fill="#F1C9B8" stroke="#2B2E34" stroke-width="4"/><path d="M300 190 H560" stroke="#C45A3C" stroke-width="16"/><path d="M190 145 L110 90 M175 185 L85 185 M195 235 L110 285" stroke="#1696A3" stroke-width="13" stroke-linecap="round"/></g><text x="80" y="1135" font-family="Arial" font-size="21" fill="#6A727A">HEX-G020-192 · Hexápode · Biblioteca Universal</text></svg>