<svg xmlns="http://www.w3.org/2000/svg" viewBox="0 0 1600 1200" role="img"><title>Adrenalina</title><rect width="1600" height="1200" fill="#F7F4EC"/><text x="72" y="92" font-family="Arial" font-size="25" font-weight="700" fill="#1D4E7A">HEXÁPODE · FARMACOLOGIA</text><text x="72" y="165" font-family="Georgia" font-size="62" fill="#2B2E34">Adrenalina</text><text x="74" y="210" font-family="Arial" font-size="25" fill="#6A727A">Agonista alfa e beta dependente da dose</text><line x1="72" y1="240" x2="1528" y2="240" stroke="#DCD2BE" stroke-width="3"/><rect x="80" y="290" width="430" height="680" rx="28" fill="#FFFDF8" stroke="#DCD2BE"/><path d="M190 520C190 390 380 390 380 520C380 650 285 735 285 735S190 650 190 520Z" fill="#B2473F" opacity=".22" stroke="#B2473F" stroke-width="7"/><path d="M286 410V650M205 520H367" stroke="#B2473F" stroke-width="14"/><text x="285" y="820" text-anchor="middle" font-family="Arial" font-size="30" fill="#2B2E34">coração + vasos</text><rect x="560" y="290" width="960" height="280" rx="28" fill="#FFFDF8" stroke="#DCD2BE"/><text x="610" y="355" font-family="Arial" font-size="28" font-weight="700" fill="#B2473F">MECANISMO</text><text x="610" y="430" font-family="Arial" font-size="30" fill="#2B2E34">α1: vasoconstrição · β1: inotropismo · β2: broncodilatação</text><path d="M630 500H1430" stroke="#B2473F" stroke-width="10"/><polygon points="1430,500 1388,475 1388,525" fill="#B2473F"/><rect x="560" y="620" width="455" height="350" rx="28" fill="#FFFDF8" stroke="#DCD2BE"/><text x="610" y="690" font-family="Arial" font-size="28" font-weight="700" fill="#2E7D69">EFEITOS</text><text x="610" y="770" font-family="Arial" font-size="28" fill="#2B2E34">↑ frequência e contratilidade</text><text x="610" y="825" font-family="Arial" font-size="28" fill="#2B2E34">↑ tônus vascular</text><rect x="1065" y="620" width="455" height="350" rx="28" fill="#FFFDF8" stroke="#DCD2BE"/><text x="1115" y="690" font-family="Arial" font-size="28" font-weight="700" fill="#D39A2E">VIGILÂNCIA</text><path d="M1290 750L1395 920H1185Z" fill="#F6E8C4" stroke="#D39A2E" stroke-width="6"/><text x="1290" y="860" text-anchor="middle" font-family="Arial" font-size="72" fill="#D39A2E">!</text><text x="72" y="1145" font-family="Arial" font-size="20" fill="#6A727A">HEX-G015-142 · Hexápode · Farmacologia</text></svg>