<svg xmlns="http://www.w3.org/2000/svg" width="1600" height="1200"><rect width="1600" height="1200" fill="#F7F4EC"/><text x="70" y="110" font-family="Georgia" font-size="64" fill="#2B2E34">Hexápode — Circulação pulmonar</text><text x="72" y="160" font-family="Arial" font-size="24" fill="#6A727A">ANATOMIA RESPIRATÓRIA II · ATIVO CANÔNICO</text><path d="M300 280C220 350 220 560 280 700C330 760 400 710 440 640V330Z" fill="#E8E1D1" stroke="#2B2E34" stroke-width="7"/><path d="M560 330V640C610 710 680 760 730 700C790 560 790 350 700 280Z" fill="#E8E1D1" stroke="#2B2E34" stroke-width="7"/><path d="M170 470C280 390 360 380 440 420M560 420C650 380 730 390 840 470" stroke="#1D4E7A" stroke-width="28" fill="none"/><path d="M170 590C290 650 370 620 440 570M560 570C640 620 720 650 840 590" stroke="#B2473F" stroke-width="28" fill="none"/><path d="M470 400C430 350 430 290 480 260C540 290 550 360 510 420C560 470 550 560 480 610C410 560 400 470 470 400Z" fill="#C45A3C" stroke="#2B2E34" stroke-width="7"/><text x="920" y="330" font-family="Arial" font-size="31" fill="#1D4E7A">Artéria pulmonar</text><text x="920" y="420" font-family="Arial" font-size="31" fill="#1696A3">Capilares</text><text x="920" y="510" font-family="Arial" font-size="31" fill="#B2473F">Veias pulmonares</text><text x="920" y="600" font-family="Arial" font-size="31">Coração direito → pulmões → coração esquerdo</text><rect x="70" y="940" width="1460" height="150" rx="16" fill="#E8E1D1"/><text x="105" y="1010" font-family="Arial" font-size="26">Circulação pulmonar do ventrículo direito aos pulmões e retorno ao átrio esquerdo.</text><text x="1300" y="1060" font-family="Arial" font-size="20" fill="#6A727A">HEX-G003-030</text></svg>