<svg xmlns="http://www.w3.org/2000/svg" viewBox="0 0 1600 1200" role="img" aria-labelledby="t d"><title id="t">Diafragma avançado</title><desc id="d">Arquitetura muscular, tendão central, zonas de aposição e excursão respiratória.</desc><rect width="1600" height="1200" fill="#F7F4EC"/><text x="72" y="90" font-family="Arial" font-size="24" font-weight="700" fill="#1D4E7A">HEXÁPODE · ANATOMIA RESPIRATÓRIA AVANÇADA</text><text x="72" y="158" font-family="Georgia" font-size="54" font-weight="700" fill="#2B2E34">Diafragma avançado</text><text x="74" y="204" font-family="Arial" font-size="22" fill="#6A727A">Arquitetura muscular, tendão central, zonas de aposição e excursão respiratória.</text><line x1="72" y1="236" x2="1528" y2="236" stroke="#DCD2BE" stroke-width="3"/><rect x="70" y="275" width="970" height="750" rx="28" fill="#FFFDF8" stroke="#DCD2BE" stroke-width="3"/><path d="M190 760 Q520 420 940 760" fill="none" stroke="#C45A3C" stroke-width="90"/><path d="M190 760 Q520 500 940 760" fill="none" stroke="#D39A2E" stroke-width="18" stroke-dasharray="18 14"/><ellipse cx="560" cy="675" rx="155" ry="70" fill="#E8E1D1" stroke="#1D4E7A" stroke-width="6"/><path d="M260 350 V560 M840 350 V560" stroke="#1696A3" stroke-width="12"/><polygon points="260,560 240,520 280,520" fill="#1696A3"/><polygon points="840,560 820,520 860,520" fill="#1696A3"/><text x="300" y="980" font-family="Arial" font-size="25" fill="#2B2E34">Contração → descida das cúpulas → aumento do volume torácico</text><rect x="1080" y="300" width="430" height="700" rx="24" fill="#FFFDF8" stroke="#DCD2BE" stroke-width="3"/><text x="1120" y="360" font-family="Arial" font-size="28" font-weight="700" fill="#1D4E7A">LEITURA ESTRUTURAL</text><circle cx="1135" cy="422" r="13" fill="#1696A3"/><text x="1170" y="430" font-family="Arial" font-size="23" fill="#2B2E34">Cúpulas</text><line x1="1170" y1="450" x2="1450" y2="450" stroke="#DCD2BE" stroke-width="2"/><circle cx="1135" cy="527" r="13" fill="#1D4E7A"/><text x="1170" y="535" font-family="Arial" font-size="23" fill="#2B2E34">Tendão central</text><line x1="1170" y1="555" x2="1450" y2="555" stroke="#DCD2BE" stroke-width="2"/><circle cx="1135" cy="632" r="13" fill="#C45A3C"/><text x="1170" y="640" font-family="Arial" font-size="23" fill="#2B2E34">Zona de aposição</text><line x1="1170" y1="660" x2="1450" y2="660" stroke="#DCD2BE" stroke-width="2"/><circle cx="1135" cy="737" r="13" fill="#2E7D69"/><text x="1170" y="745" font-family="Arial" font-size="23" fill="#2B2E34">Inspiração</text><line x1="1170" y1="765" x2="1450" y2="765" stroke="#DCD2BE" stroke-width="2"/><circle cx="1135" cy="842" r="13" fill="#D39A2E"/><text x="1170" y="850" font-family="Arial" font-size="23" fill="#2B2E34">Expiração</text><line x1="1170" y1="870" x2="1450" y2="870" stroke="#DCD2BE" stroke-width="2"/><text x="72" y="1150" font-family="Arial" font-size="20" fill="#6A727A">HEX-A022-217 · Hexápode · camada avançada</text></svg>