<svg xmlns="http://www.w3.org/2000/svg" viewBox="0 0 1600 1200" role="img"><title>Hipoglicemia</title><rect width="1600" height="1200" fill="#F7F4EC"/><text x="72" y="98" font-family="Arial" font-size="26" font-weight="700" fill="#1D4E7A">HEXÁPODE</text><text x="72" y="166" font-family="Georgia" font-size="58" font-weight="700" fill="#2B2E34">Hipoglicemia</text><text x="74" y="210" font-family="Arial" font-size="24" fill="#6A727A">Baixa disponibilidade de glicose e disfunção neurológica</text><line x1="72" y1="238" x2="1528" y2="238" stroke="#DCD2BE" stroke-width="3"/><rect x="72" y="275" width="1456" height="760" rx="24" fill="#FFFDF8" stroke="#DCD2BE" stroke-width="2"/><path d="M240 470 C170 405 205 330 285 350 C315 285 410 300 430 365 C520 335 575 420 530 480 C590 560 505 630 430 590 C380 650 285 620 275 555 C190 560 170 490 240 470Z" fill="#F6E8C4" stroke="#D39A2E" stroke-width="6"/><text x="370" y="495" font-family="Arial" font-size="34" font-weight="800" fill="#D39A2E" text-anchor="middle">GLICOSE</text><line x1="555" y1="485" x2="760" y2="485" stroke="#B2473F" stroke-width="9"/><polygon points="760,485 728,466 728,504" fill="#B2473F"/><circle cx="865" cy="485" r="100" fill="#F4DDD9" stroke="#B2473F" stroke-width="5"/><text x="865" y="475" font-family="Arial" font-size="25" font-weight="800" fill="#B2473F" text-anchor="middle">NEURO</text><text x="865" y="512" font-family="Arial" font-size="22" font-weight="700" fill="#B2473F" text-anchor="middle">glicopenia</text><rect x="1030" y="345" width="390" height="470" rx="24" fill="#F7F4EC" stroke="#DCD2BE" stroke-width="2"/><text x="1070" y="405" font-family="Arial" font-size="24" font-weight="700" fill="#2E7D69">MANIFESTAÇÕES</text><text x="1070" y="475" font-family="Arial" font-size="23" fill="#C45A3C">autonômicas</text><text x="1070" y="520" font-family="Arial" font-size="22" fill="#2B2E34">sudorese · tremor</text><text x="1070" y="585" font-family="Arial" font-size="23" fill="#B2473F">centrais</text><text x="1070" y="630" font-family="Arial" font-size="22" fill="#2B2E34">confusão · déficit focal</text><text x="1070" y="675" font-family="Arial" font-size="22" fill="#2B2E34">convulsão · coma</text><rect x="260" y="800" width="720" height="105" rx="22" fill="#E8E1D1"/><text x="620" y="862" font-family="Arial" font-size="27" font-weight="700" fill="#2B2E34" text-anchor="middle">glicose baixa → sintomas autonômicos → neuroglicopenia</text><text x="72" y="1152" font-family="Arial" font-size="20" fill="#6A727A">HEX-G014-139 · Endocrinologia · Neurologia · Emergências</text></svg>