<svg xmlns="http://www.w3.org/2000/svg" width="1600" height="1200" viewBox="0 0 1600 1200" role="img" aria-labelledby="t d"><title id="t">HEX-G006-060 — Umidificador</title><desc id="d">Umidificador aquecido com câmara de água, placa de aquecimento, circuito e sensores.</desc><rect width="1600" height="1200" fill="#F7F4EC"/><text x="90" y="110" font-family="Georgia,serif" font-size="58" fill="#2B2E34">Umidificador aquecido</text><text x="92" y="158" font-family="Arial" font-size="24" fill="#6A727A">câmara • água • aquecimento • sensores • circuito</text><line x1="90" y1="190" x2="1510" y2="190" stroke="#DCD2BE" stroke-width="3"/><rect x="250" y="340" width="460" height="540" rx="38" fill="#E8E1D1" stroke="#1D4E7A" stroke-width="8"/><path d="M330 700 Q480 610 630 700 V805 H330Z" fill="#1696A3" opacity=".45"/><path d="M350 660 C390 620 420 700 460 660 S530 700 570 660 S620 700 650 660" fill="none" stroke="#1696A3" stroke-width="12"/><rect x="300" y="865" width="360" height="65" rx="18" fill="#D39A2E"/><path d="M420 500 C390 440 450 400 420 340 M500 500 C470 440 530 400 500 340 M580 500 C550 440 610 400 580 340" fill="none" stroke="#C45A3C" stroke-width="12"/><path d="M710 500 C940 500 980 350 1220 350" fill="none" stroke="#1696A3" stroke-width="34" stroke-dasharray="28 18"/><path d="M710 760 C930 760 1050 850 1290 850" fill="none" stroke="#1D4E7A" stroke-width="34" stroke-dasharray="28 18"/><circle cx="970" cy="500" r="30" fill="#D39A2E"/><circle cx="1080" cy="800" r="30" fill="#D39A2E"/><g font-family="Arial" font-size="28" fill="#2B2E34"><text x="345" y="300">câmara de umidificação</text><text x="345" y="1010">placa aquecedora</text><text x="870" y="430">circuito inspiratório aquecido</text><text x="930" y="930">retorno / condensação</text><text x="930" y="550">sensor</text><text x="1040" y="760">sensor</text></g><rect x="230" y="1030" width="1140" height="75" rx="18" fill="#E8E1D1"/><text x="300" y="1080" font-family="Arial" font-size="24" fill="#6A727A">Objetivo visual: distinguir geração de vapor, transporte aquecido e risco de condensação.</text></svg>