<svg xmlns="http://www.w3.org/2000/svg" viewBox="0 0 1600 1200" role="img" aria-labelledby="t d"><title id="t">Microrganismos</title><desc id="d">Prancha vetorial comparando bactérias, vírus, fungos e protozoários.</desc><rect width="1600" height="1200" fill="#F7F4EC"/><text x="80" y="110" font-family="Georgia" font-size="64" fill="#2B2E34">Microrganismos</text><text x="80" y="160" font-family="Arial" font-size="25" fill="#6A727A">Quatro arquiteturas biológicas com escalas e mecanismos distintos</text><line x1="80" y1="200" x2="1520" y2="200" stroke="#DCD2BE" stroke-width="3"/><g transform="translate(90 280)" font-family="Arial"><g><rect width="330" height="650" rx="28" fill="#FFFDF8" stroke="#DCD2BE" stroke-width="3"/><text x="165" y="55" text-anchor="middle" font-size="28" font-weight="700" fill="#B2473F">BACTÉRIA</text><rect x="70" y="190" width="190" height="105" rx="52" fill="#F1C9B8" stroke="#B2473F" stroke-width="7"/><path d="M260 240 C305 185 310 320 275 355" fill="none" stroke="#B2473F" stroke-width="8"/><g fill="#1D4E7A"><circle cx="120" cy="235" r="10"/><circle cx="170" cy="260" r="10"/><circle cx="215" cy="225" r="10"/></g><text x="165" y="560" text-anchor="middle" font-size="23" fill="#6A727A">célula procariótica</text></g><g transform="translate(365 0)"><rect width="330" height="650" rx="28" fill="#FFFDF8" stroke="#DCD2BE" stroke-width="3"/><text x="165" y="55" text-anchor="middle" font-size="28" font-weight="700" fill="#1D4E7A">VÍRUS</text><circle cx="165" cy="250" r="80" fill="#D8E5F2" stroke="#1D4E7A" stroke-width="7"/><g stroke="#1D4E7A" stroke-width="8"><line x1="165" y1="130" x2="165" y2="85"/><line x1="165" y1="415" x2="165" y2="370"/><line x1="45" y1="250" x2="90" y2="250"/><line x1="240" y1="250" x2="285" y2="250"/><line x1="80" y1="165" x2="48" y2="133"/><line x1="250" y1="335" x2="282" y2="367"/></g><path d="M120 250 Q165 190 210 250 Q165 310 120 250" fill="none" stroke="#B2473F" stroke-width="9"/><text x="165" y="560" text-anchor="middle" font-size="23" fill="#6A727A">genoma + cápside</text></g><g transform="translate(730 0)"><rect width="330" height="650" rx="28" fill="#FFFDF8" stroke="#DCD2BE" stroke-width="3"/><text x="165" y="55" text-anchor="middle" font-size="28" font-weight="700" fill="#2E7D69">FUNGO</text><g fill="#F6E8C4" stroke="#2E7D69" stroke-width="7"><circle cx="140" cy="215" r="70"/><circle cx="220" cy="290" r="55"/><circle cx="110" cy="350" r="48"/></g><path d="M145 285 C160 340 185 380 250 430" fill="none" stroke="#2E7D69" stroke-width="13"/><text x="165" y="560" text-anchor="middle" font-size="23" fill="#6A727A">levedura ou hifa</text></g><g transform="translate(1095 0)"><rect width="330" height="650" rx="28" fill="#FFFDF8" stroke="#DCD2BE" stroke-width="3"/><text x="165" y="55" text-anchor="middle" font-size="28" font-weight="700" fill="#D39A2E">PROTOZOÁRIO</text><path d="M80 260 C85 145 255 145 260 260 C260 390 80 390 80 260Z" fill="#F6E8C4" stroke="#D39A2E" stroke-width="7"/><circle cx="150" cy="250" r="35" fill="#1D4E7A"/><path d="M260 250 C305 210 305 335 265 365" fill="none" stroke="#D39A2E" stroke-width="8"/><text x="165" y="560" text-anchor="middle" font-size="23" fill="#6A727A">eucarioto unicelular</text></g></g><text x="80" y="1140" font-family="Arial" font-size="21" fill="#6A727A">HEX-G020-198 · Hexápode · Biblioteca Universal</text></svg>