<svg xmlns="http://www.w3.org/2000/svg" viewBox="0 0 1600 1200" role="img" aria-labelledby="t d"><title id="t">Sistema de cores aplicado</title><desc id="d">Mapeamento semântico de cor para estrutura, fluxo, lesão, alerta e interface.</desc><rect width="1600" height="1200" fill="#F7F4EC"/><text x="72" y="90" font-family="Arial" font-size="24" font-weight="700" fill="#1D4E7A">HEXÁPODE · CAMADA AVANÇADA</text><text x="72" y="162" font-family="Georgia" font-size="58" font-weight="700" fill="#2B2E34">Sistema de cores aplicado</text><text x="74" y="208" font-family="Arial" font-size="24" fill="#6A727A">Mapeamento semântico de cor para estrutura, fluxo, lesão, alerta e interface.</text><line x1="72" y1="238" x2="1528" y2="238" stroke="#DCD2BE" stroke-width="3"/><rect x="90" y="300" width="80" height="48" rx="10" fill="#1D4E7A"/><text x="195" y="332" font-family="Arial" font-size="24" fill="#2B2E34">Estrutura</text><rect x="90" y="382" width="80" height="48" rx="10" fill="#1696A3"/><text x="195" y="414" font-family="Arial" font-size="24" fill="#2B2E34">Fluxo</text><rect x="90" y="464" width="80" height="48" rx="10" fill="#38A8A0"/><text x="195" y="496" font-family="Arial" font-size="24" fill="#2B2E34">Oxigenação</text><rect x="90" y="546" width="80" height="48" rx="10" fill="#2E7D69"/><text x="195" y="578" font-family="Arial" font-size="24" fill="#2B2E34">Resposta segura</text><rect x="90" y="628" width="80" height="48" rx="10" fill="#B2473F"/><text x="195" y="660" font-family="Arial" font-size="24" fill="#2B2E34">Lesão</text><rect x="90" y="710" width="80" height="48" rx="10" fill="#D39A2E"/><text x="195" y="742" font-family="Arial" font-size="24" fill="#2B2E34">Alerta</text><rect x="90" y="792" width="80" height="48" rx="10" fill="#9BA0A5"/><text x="195" y="824" font-family="Arial" font-size="24" fill="#2B2E34">Neutralidade</text><rect x="90" y="874" width="80" height="48" rx="10" fill="#526E9B"/><text x="195" y="906" font-family="Arial" font-size="24" fill="#2B2E34">Interface</text><rect x="470" y="290" width="540" height="690" rx="22" fill="#FFFDF8" stroke="#DCD2BE" stroke-width="3"/><text x="494" y="334" font-family="Arial" font-size="25" font-weight="700" fill="#1D4E7A">Matriz de aplicação</text><circle cx="520" cy="430" r="15" fill="#1D4E7A" opacity="1"/><circle cx="595" cy="430" r="15" fill="#1D4E7A" opacity="0.25"/><circle cx="670" cy="430" r="15" fill="#1D4E7A" opacity="0.25"/><circle cx="745" cy="430" r="15" fill="#1D4E7A" opacity="1"/><circle cx="820" cy="430" r="15" fill="#1D4E7A" opacity="0.25"/><circle cx="895" cy="430" r="15" fill="#1D4E7A" opacity="0.25"/><circle cx="520" cy="500" r="15" fill="#1696A3" opacity="0.25"/><circle cx="595" cy="500" r="15" fill="#1696A3" opacity="0.25"/><circle cx="670" cy="500" r="15" fill="#1696A3" opacity="1"/><circle cx="745" cy="500" r="15" fill="#1696A3" opacity="0.25"/><circle cx="820" cy="500" r="15" fill="#1696A3" opacity="0.25"/><circle cx="895" cy="500" r="15" fill="#1696A3" opacity="1"/><circle cx="520" cy="570" r="15" fill="#38A8A0" opacity="0.25"/><circle cx="595" cy="570" r="15" fill="#38A8A0" opacity="1"/><circle cx="670" cy="570" r="15" fill="#38A8A0" opacity="0.25"/><circle cx="745" cy="570" r="15" fill="#38A8A0" opacity="0.25"/><circle cx="820" cy="570" r="15" fill="#38A8A0" opacity="1"/><circle cx="895" cy="570" r="15" fill="#38A8A0" opacity="0.25"/><circle cx="520" cy="640" r="15" fill="#2E7D69" opacity="1"/><circle cx="595" cy="640" r="15" fill="#2E7D69" opacity="0.25"/><circle cx="670" cy="640" r="15" fill="#2E7D69" opacity="0.25"/><circle cx="745" cy="640" r="15" fill="#2E7D69" opacity="1"/><circle cx="820" cy="640" r="15" fill="#2E7D69" opacity="0.25"/><circle cx="895" cy="640" r="15" fill="#2E7D69" opacity="0.25"/><circle cx="520" cy="710" r="15" fill="#B2473F" opacity="0.25"/><circle cx="595" cy="710" r="15" fill="#B2473F" opacity="0.25"/><circle cx="670" cy="710" r="15" fill="#B2473F" opacity="1"/><circle cx="745" cy="710" r="15" fill="#B2473F" opacity="0.25"/><circle cx="820" cy="710" r="15" fill="#B2473F" opacity="0.25"/><circle cx="895" cy="710" r="15" fill="#B2473F" opacity="1"/><circle cx="520" cy="780" r="15" fill="#D39A2E" opacity="0.25"/><circle cx="595" cy="780" r="15" fill="#D39A2E" opacity="1"/><circle cx="670" cy="780" r="15" fill="#D39A2E" opacity="0.25"/><circle cx="745" cy="780" r="15" fill="#D39A2E" opacity="0.25"/><circle cx="820" cy="780" r="15" fill="#D39A2E" opacity="1"/><circle cx="895" cy="780" r="15" fill="#D39A2E" opacity="0.25"/><circle cx="520" cy="850" r="15" fill="#9BA0A5" opacity="1"/><circle cx="595" cy="850" r="15" fill="#9BA0A5" opacity="0.25"/><circle cx="670" cy="850" r="15" fill="#9BA0A5" opacity="0.25"/><circle cx="745" cy="850" r="15" fill="#9BA0A5" opacity="1"/><circle cx="820" cy="850" r="15" fill="#9BA0A5" opacity="0.25"/><circle cx="895" cy="850" r="15" fill="#9BA0A5" opacity="0.25"/><rect x="1050" y="290" width="440" height="690" rx="22" fill="#FFFDF8" stroke="#DCD2BE" stroke-width="3"/><text x="1074" y="334" font-family="Arial" font-size="25" font-weight="700" fill="#1D4E7A">Estados de interface</text><text x="1090" y="430" font-family="Arial" font-size="23" fill="#2B2E34">Estável</text><rect x="1270" y="402" width="170" height="32" rx="16" fill="#2E7D69"/><text x="1090" y="535" font-family="Arial" font-size="23" fill="#2B2E34">Monitorização</text><rect x="1270" y="507" width="170" height="32" rx="16" fill="#1D4E7A"/><text x="1090" y="640" font-family="Arial" font-size="23" fill="#2B2E34">Atenção</text><rect x="1270" y="612" width="170" height="32" rx="16" fill="#D39A2E"/><text x="1090" y="745" font-family="Arial" font-size="23" fill="#2B2E34">Crítico</text><rect x="1270" y="717" width="170" height="32" rx="16" fill="#B2473F"/><text x="1090" y="850" font-family="Arial" font-size="23" fill="#2B2E34">Insuficiente</text><rect x="1270" y="822" width="170" height="32" rx="16" fill="#9BA0A5"/><text x="72" y="1150" font-family="Arial" font-size="20" fill="#6A727A">HEX-A021-209 · Hexápode · avançado</text></svg>