<svg xmlns="http://www.w3.org/2000/svg" viewBox="0 0 1600 1200" role="img"><title>Ultrafiltração</title><desc>Remoção de água</desc><rect width="1600" height="1200" fill="#F7F4EC"/><text x="72" y="92" font-family="Arial" font-size="24" font-weight="700" fill="#1D4E7A">HEXÁPODE · NEFROLOGIA</text><text x="72" y="165" font-family="Georgia" font-size="58" font-weight="700" fill="#2B2E34">Ultrafiltração</text><text x="74" y="210" font-family="Arial" font-size="25" fill="#6A727A">Remoção de água</text><line x1="72" y1="240" x2="1528" y2="240" stroke="#DCD2BE" stroke-width="3"/><rect x="72" y="278" width="1456" height="760" rx="28" fill="#FFFDF8" stroke="#DCD2BE" stroke-width="2"/><rect x="160" y="440" width="500" height="360" rx="28" fill="#E6F1F4" stroke="#1D4E7A" stroke-width="5"/><rect x="940" y="440" width="500" height="360" rx="28" fill="#F8E6DF" stroke="#C45A3C" stroke-width="5"/><line x1="800" y1="400" x2="800" y2="850" stroke="#2B2E34" stroke-width="12" stroke-dasharray="18 14"/><g fill="#1696A3"><circle cx="260" cy="540" r="18"/><circle cx="350" cy="610" r="18"/><circle cx="450" cy="690" r="18"/><circle cx="560" cy="560" r="18"/></g><line x1="670" y1="520" x2="920" y2="520" stroke="#1696A3" stroke-width="10"/><polygon points="920,520 890,503 890,537" fill="#1696A3"/><line x1="670" y1="650" x2="920" y2="650" stroke="#1696A3" stroke-width="10"/><polygon points="920,650 890,633 890,667" fill="#1696A3"/><text x="250" y="400" font-family="Arial" font-size="28" fill="#1D4E7A">pressão maior</text><text x="1060" y="400" font-family="Arial" font-size="28" fill="#C45A3C">pressão menor</text><text x="72" y="1145" font-family="Arial" font-size="20" fill="#6A727A">HEX-G016-159 · Hexápode · G016</text></svg>