<svg xmlns="http://www.w3.org/2000/svg" width="1600" height="1200" viewBox="0 0 1600 1200" role="img" aria-labelledby="t d"><title id="t">Hexápode — PCV</title><desc id="d">Prancha sobre ventilação controlada a pressão.</desc><rect width="1600" height="1200" fill="#F7F4EC"/><text x="85" y="120" font-family="Georgia" font-size="62" fill="#2B2E34">Hexápode — PCV</text><text x="88" y="168" font-family="Arial" font-size="24" fill="#1D4E7A">VENTILAÇÃO CONTROLADA A PRESSÃO</text><line x1="85" y1="195" x2="1515" y2="195" stroke="#2B2E34"/><text x="90" y="255" font-family="Arial" font-size="25">Pressão inspiratória e tempo definidos; volume varia com complacência e resistência.</text><rect x="70" y="320" width="700" height="700" rx="18" fill="#FBF9F3" stroke="#DCD2BE"/><text x="105" y="380" font-family="Arial" font-size="24" font-weight="700">CURVAS</text><text x="105" y="445" font-family="Arial" font-size="20" fill="#1D4E7A">Pressão</text><path d="M150 510 L230 510 L250 430 L610 430 L635 510" fill="none" stroke="#1D4E7A" stroke-width="7"/><text x="105" y="605" font-family="Arial" font-size="20" fill="#1696A3">Fluxo</text><path d="M150 670 L230 670 C245 585 330 585 470 640 C535 665 590 700 635 670" fill="none" stroke="#1696A3" stroke-width="7"/><text x="105" y="790" font-family="Arial" font-size="20" fill="#C45A3C">Volume</text><path d="M150 860 L230 860 C260 835 320 735 480 720 C560 730 610 805 635 860" fill="none" stroke="#C45A3C" stroke-width="7"/><rect x="815" y="320" width="715" height="700" rx="18" fill="#FBF9F3" stroke="#DCD2BE"/><text x="850" y="380" font-family="Arial" font-size="24" font-weight="700">CONTRATO DO MODO</text><rect x="880" y="440" width="180" height="120" rx="14" fill="#E8E1D1" stroke="#1D4E7A" stroke-width="4"/><path d="M900 520 L920 465 H1020 L1040 520" fill="none" stroke="#1696A3" stroke-width="6"/><path d="M1090 500 H1190" stroke="#1696A3" stroke-width="7"/><path d="M1220 430 C1290 390 1380 440 1390 520 C1400 600 1320 650 1250 610 C1195 580 1185 470 1220 430Z" fill="#E8E1D1" stroke="#C45A3C" stroke-width="4"/><text x="870" y="720" font-family="Arial" font-size="22">Controlada: pressão inspiratória</text><text x="870" y="775" font-family="Arial" font-size="22">Ciclada: tempo</text><text x="870" y="830" font-family="Arial" font-size="22">Resultante: volume corrente</text><text x="90" y="1110" font-family="Arial" font-size="18" fill="#1D4E7A">HEX-G008-072 · Ventila · Respira · Emergências</text></svg>