<svg xmlns="http://www.w3.org/2000/svg" width="1600" height="1200" viewBox="0 0 1600 1200" role="img" aria-labelledby="t d"><title id="t">Hexápode — Trabalho respiratório</title><desc id="d">Energia necessária para vencer cargas elásticas e resistivas durante a ventilação.</desc><rect width="1600" height="1200" fill="#F7F4EC"/><rect x="32" y="32" width="1536" height="1136" rx="18" fill="none" stroke="#DCD2BE" stroke-width="3"/><text x="72" y="115" font-family="Georgia" font-size="62" fill="#2B2E34">Hexápode — Trabalho respiratório</text><text x="74" y="165" font-family="Arial" font-size="24" letter-spacing="4" fill="#6A727A">MECÂNICA RESPIRATÓRIA · ATIVO CANÔNICO</text><line x1="70" y1="205" x2="1530" y2="205" stroke="#DCD2BE" stroke-width="3"/><rect x="70" y="245" width="790" height="690" rx="20" fill="#FCFAF5" stroke="#DCD2BE" stroke-width="3"/><line x1="220" y1="820" x2="740" y2="820" stroke="#6A727A" stroke-width="4"/><line x1="220" y1="820" x2="220" y2="340" stroke="#6A727A" stroke-width="4"/><path d="M250 790C340 700 430 520 620 430C690 400 720 460 690 540C640 670 470 770 250 790z" fill="#E7B4A7" opacity=".75" stroke="#C45A3C" stroke-width="8"/><line x1="365" y1="725" x2="365" y2="540" stroke="#1D4E7A" stroke-width="8"/><line x1="365" y1="725" x2="520" y2="650" stroke="#1696A3" stroke-width="8"/><text x="390" y="580" font-family="Arial" font-size="27" fill="#2B2E34">Trabalho total</text><text x="650" y="865" font-family="Arial" font-size="22" fill="#6A727A">Volume</text><text x="130" y="540" font-family="Arial" font-size="22" fill="#6A727A" transform="rotate(-90 130 540)">Pressão</text><rect x="900" y="245" width="630" height="690" rx="20" fill="#FCFAF5" stroke="#DCD2BE" stroke-width="3"/><text x="940" y="300" font-family="Arial" font-size="22" font-weight="bold" fill="#1D4E7A">RELAÇÕES-CHAVE</text><text x="940" y="390" font-family="Arial" font-size="31" fill="#2B2E34">Carga elástica</text><text x="940" y="505" font-family="Arial" font-size="31" fill="#2B2E34">Carga resistiva</text><text x="940" y="620" font-family="Arial" font-size="31" fill="#2B2E34">Área pressão-volume</text><rect x="70" y="975" width="1460" height="130" rx="14" fill="#E8E1D1"/><text x="105" y="1025" font-family="Arial" font-size="22" font-weight="bold" fill="#2B2E34">FUNÇÃO DIDÁTICA</text><text x="105" y="1065" font-family="Arial" font-size="24" fill="#2B2E34">Decompõe o custo energético da ventilação em componentes elástico e resistivo.</text><text x="1290" y="1070" font-family="Arial" font-size="20" fill="#6A727A">HEX-G004-039</text></svg>