<svg xmlns="http://www.w3.org/2000/svg" viewBox="0 0 1600 1200" role="img"><title>Artefatos</title><rect width="1600" height="1200" fill="#F7F4EC"/><text x="72" y="92" font-family="Arial" font-size="25" font-weight="700" fill="#1D4E7A">HEXÁPODE · ULTRASSOM</text><text x="72" y="164" font-family="Georgia" font-size="58" fill="#2B2E34">Artefatos</text><text x="74" y="208" font-family="Arial" font-size="24" fill="#6A727A">Sombra, reforço posterior, reverberação e espelho</text><line x1="72" y1="238" x2="1528" y2="238" stroke="#DCD2BE" stroke-width="3"/><rect x="72" y="275" width="1456" height="760" rx="24" fill="#FFFDF8" stroke="#DCD2BE"/><g transform="translate(130 360)"><rect width="300" height="500" rx="22" fill="#F5F6F7" stroke="#DCD2BE"/><circle cx="150" cy="180" r="60" fill="#2B2E34"/><path d="M70 250 L230 250 L280 460 L20 460 Z" fill="#E6E7E8"/><text x="95" y="490" font-family="Arial" font-size="24" fill="#2B2E34">sombra</text><rect x="340" width="300" height="500" rx="22" fill="#F5F6F7" stroke="#DCD2BE"/><circle cx="490" cy="180" r="60" fill="#DDF3F5"/><rect x="410" y="250" width="160" height="210" fill="#EAF9FA"/><text x="385" y="490" font-family="Arial" font-size="24" fill="#2B2E34">reforço posterior</text><rect x="680" width="300" height="500" rx="22" fill="#F5F6F7" stroke="#DCD2BE"/><g stroke="#1696A3" stroke-width="5"><line x1="740" y1="160" x2="920" y2="160"/><line x1="760" y1="220" x2="900" y2="220"/><line x1="780" y1="280" x2="880" y2="280"/><line x1="800" y1="340" x2="860" y2="340"/></g><text x="730" y="490" font-family="Arial" font-size="24" fill="#2B2E34">reverberação</text><rect x="1020" width="300" height="500" rx="22" fill="#F5F6F7" stroke="#DCD2BE"/><path d="M1080 180 Q1170 90 1260 180" fill="none" stroke="#C45A3C" stroke-width="12"/><path d="M1080 330 Q1170 420 1260 330" fill="none" stroke="#C45A3C" stroke-width="12" stroke-dasharray="12 10"/><text x="1065" y="490" font-family="Arial" font-size="24" fill="#2B2E34">imagem em espelho</text></g><text x="72" y="1152" font-family="Arial" font-size="20" fill="#6A727A">HEX-G019-185 · Hexápode · Ultrassom</text></svg>