<svg xmlns="http://www.w3.org/2000/svg" viewBox="0 0 1600 1200" role="img"><title>Hexápode — Intercostais</title><desc>Músculos intercostais esquemáticos em camadas, com direção das fibras e espaços intercostais.</desc><rect width="1600" height="1200" fill="#F7F4EC"/><text x="70" y="95" font-family="serif" font-size="58" fill="#2B2E34">Hexápode — Intercostais</text><text x="72" y="140" font-family="sans-serif" font-size="24" fill="#6A727A">Camadas externa, interna e íntima</text><g stroke="#2B2E34" stroke-width="20" fill="none"><path d="M260 330 Q800 180 1340 330"/><path d="M240 520 Q800 360 1360 520"/><path d="M260 710 Q800 550 1340 710"/><path d="M300 900 Q800 760 1300 900"/></g><g stroke-width="10"><g stroke="#1696A3"><path d="M360 350 L520 500 M500 315 L660 465 M640 280 L800 430 M780 255 L940 405 M920 280 L1080 430 M1060 315 L1220 465"/></g><g stroke="#C45A3C"><path d="M380 680 L540 540 M520 645 L680 505 M660 610 L820 470 M800 585 L960 445 M940 610 L1100 470 M1080 645 L1240 505"/></g><g stroke="#1D4E7A" stroke-dasharray="18 12"><path d="M420 860 L560 740 M600 815 L740 695 M780 780 L920 660 M960 815 L1100 695 M1140 850 L1260 750"/></g></g><g font-family="sans-serif" font-size="27" fill="#2B2E34"><text x="120" y="280">Intercostal externo</text><text x="1120" y="600">Intercostal interno</text><text x="120" y="1010">Intercostal íntimo</text><text x="660" y="1060">Feixe neurovascular no sulco costal</text></g><text x="70" y="1135" font-family="monospace" font-size="23" fill="#6A727A">HEX-G002-019 · CANONICAL</text></svg>