<svg xmlns="http://www.w3.org/2000/svg" width="1600" height="1200"><rect width="1600" height="1200" fill="#F7F4EC"/><text x="70" y="110" font-family="Georgia" font-size="64" fill="#2B2E34">Hexápode — Linfáticos pulmonares</text><text x="72" y="160" font-family="Arial" font-size="24" fill="#6A727A">ANATOMIA RESPIRATÓRIA II · ATIVO CANÔNICO</text><path d="M340 260C240 320 230 510 300 680C350 730 410 690 440 620V320Z" fill="#E8E1D1" stroke="#2B2E34" stroke-width="7"/><path d="M560 320V620C600 690 660 730 710 680C780 510 770 320 670 260Z" fill="#E8E1D1" stroke="#2B2E34" stroke-width="7"/><g fill="#2E7D69"><circle cx="320" cy="370" r="16"/><circle cx="360" cy="470" r="16"/><circle cx="390" cy="590" r="16"/><circle cx="650" cy="370" r="16"/><circle cx="690" cy="480" r="16"/><circle cx="630" cy="600" r="16"/><circle cx="500" cy="430" r="20"/><circle cx="500" cy="550" r="20"/></g><g stroke="#2E7D69" stroke-width="9" fill="none"><path d="M320 370Q420 400 500 430Q580 400 650 370"/><path d="M390 590Q450 550 500 550Q570 560 630 600"/></g><text x="900" y="360" font-family="Arial" font-size="32">Plexo superficial</text><text x="900" y="450" font-family="Arial" font-size="32">Plexo profundo</text><text x="900" y="540" font-family="Arial" font-size="32">Linfonodos hilares</text><rect x="70" y="940" width="1460" height="150" rx="16" fill="#E8E1D1"/><text x="105" y="1010" font-family="Arial" font-size="26">Drenagem linfática pulmonar dos plexos periféricos aos linfonodos hilares e mediastinais.</text><text x="1300" y="1060" font-family="Arial" font-size="20" fill="#6A727A">HEX-G003-029</text></svg>