<svg xmlns="http://www.w3.org/2000/svg" viewBox="0 0 1600 1200" role="img"><title>Epilepsia</title><rect width="1600" height="1200" fill="#F7F4EC"/><text x="72" y="92" font-family="Arial" font-size="24" font-weight="700" fill="#1D4E7A">HEXÁPODE · G017 NEUROLOGIA</text><text x="72" y="164" font-family="Georgia" font-size="60" fill="#2B2E34">Epilepsia</text><text x="74" y="210" font-family="Arial" font-size="24" fill="#6A727A">Descarga hiperssincrônica e propagação em rede</text><line x1="72" y1="238" x2="1528" y2="238" stroke="#DCD2BE" stroke-width="3"/><rect x="72" y="275" width="1456" height="800" rx="28" fill="#FFFDF8" stroke="#DCD2BE" stroke-width="3"/><g transform="translate(150 330)"><path d="M120 430 C90 220 250 90 470 120 C640 55 820 115 890 290 C950 450 850 650 640 680 C430 760 210 670 140 520Z" fill="#E8E1D1" stroke="#2B2E34" stroke-width="6"/><g fill="#1D4E7A"><circle cx="300" cy="310" r="18"/><circle cx="410" cy="250" r="18"/><circle cx="540" cy="300" r="18"/><circle cx="680" cy="260" r="18"/><circle cx="760" cy="390" r="18"/><circle cx="610" cy="500" r="18"/><circle cx="430" cy="500" r="18"/><circle cx="290" cy="455" r="18"/></g><g stroke="#1696A3" stroke-width="7" opacity=".7"><line x1="300" y1="310" x2="410" y2="250"/><line x1="410" y1="250" x2="540" y2="300"/><line x1="540" y1="300" x2="680" y2="260"/><line x1="680" y1="260" x2="760" y2="390"/><line x1="760" y1="390" x2="610" y2="500"/><line x1="610" y1="500" x2="430" y2="500"/><line x1="430" y1="500" x2="290" y2="455"/></g><circle cx="540" cy="300" r="72" fill="none" stroke="#B2473F" stroke-width="12"/><path d="M1030 470 L1080 470 L1100 440 L1120 500 L1140 420 L1160 505 L1180 450 L1200 470 L1320 470" fill="none" stroke="#B2473F" stroke-width="10"/><text x="1000" y="390" font-family="Arial" font-size="28" fill="#2B2E34">descarga focal</text><text x="1000" y="550" font-family="Arial" font-size="28" fill="#1696A3">propagação pela rede</text></g><text x="72" y="1150" font-family="Arial" font-size="20" fill="#6A727A">HEX-G017-168 · Hexápode · Neurologia</text></svg>