<svg xmlns="http://www.w3.org/2000/svg" viewBox="0 0 1600 1200" role="img" aria-labelledby="t d"><title id="t">Células</title><desc id="d">Prancha vetorial comparando célula epitelial, neurônio, eritrócito e célula muscular.</desc><rect width="1600" height="1200" fill="#F7F4EC"/><text x="80" y="105" font-family="Georgia" font-size="64" fill="#2B2E34">Células</text><text x="82" y="155" font-family="Arial" font-size="25" fill="#6A727A">Unidades estruturais com formas adaptadas à função</text><line x1="80" y1="195" x2="1520" y2="195" stroke="#DCD2BE" stroke-width="3"/><g transform="translate(90 270)"><rect width="330" height="690" rx="28" fill="#FFFDF8" stroke="#DCD2BE" stroke-width="3"/><text x="165" y="60" text-anchor="middle" font-family="Arial" font-size="28" font-weight="700" fill="#1D4E7A">EPITELIAL</text><g transform="translate(35 145)"><rect x="0" y="0" width="80" height="300" rx="28" fill="#F1C9B8" stroke="#2B2E34" stroke-width="4"/><rect x="85" y="0" width="80" height="300" rx="28" fill="#F1C9B8" stroke="#2B2E34" stroke-width="4"/><rect x="170" y="0" width="80" height="300" rx="28" fill="#F1C9B8" stroke="#2B2E34" stroke-width="4"/><circle cx="40" cy="155" r="22" fill="#1D4E7A"/><circle cx="125" cy="155" r="22" fill="#1D4E7A"/><circle cx="210" cy="155" r="22" fill="#1D4E7A"/><path d="M0 315H250" stroke="#C45A3C" stroke-width="16"/></g><text x="165" y="600" text-anchor="middle" font-family="Arial" font-size="23" fill="#6A727A">barreira e transporte</text></g><g transform="translate(455 270)"><rect width="330" height="690" rx="28" fill="#FFFDF8" stroke="#DCD2BE" stroke-width="3"/><text x="165" y="60" text-anchor="middle" font-family="Arial" font-size="28" font-weight="700" fill="#1D4E7A">NEURÔNIO</text><circle cx="135" cy="300" r="85" fill="#F1C9B8" stroke="#2B2E34" stroke-width="5"/><circle cx="135" cy="300" r="28" fill="#1D4E7A"/><path d="M205 300 C260 300 270 350 300 420" fill="none" stroke="#C45A3C" stroke-width="15"/><path d="M75 250 L25 190 M68 280 L18 285 M80 335 L20 395 M100 220 L85 150" stroke="#1696A3" stroke-width="12" stroke-linecap="round"/><circle cx="304" cy="430" r="14" fill="#D39A2E"/><text x="165" y="600" text-anchor="middle" font-family="Arial" font-size="23" fill="#6A727A">sinalização rápida</text></g><g transform="translate(820 270)"><rect width="330" height="690" rx="28" fill="#FFFDF8" stroke="#DCD2BE" stroke-width="3"/><text x="165" y="60" text-anchor="middle" font-family="Arial" font-size="28" font-weight="700" fill="#1D4E7A">ERITRÓCITO</text><ellipse cx="165" cy="320" rx="110" ry="82" fill="#B2473F"/><ellipse cx="165" cy="320" rx="53" ry="32" fill="#F7F4EC" opacity=".65"/><path d="M70 210 C130 170 210 170 265 210" fill="none" stroke="#1696A3" stroke-width="10"/><text x="165" y="600" text-anchor="middle" font-family="Arial" font-size="23" fill="#6A727A">transporte gasoso</text></g><g transform="translate(1185 270)"><rect width="330" height="690" rx="28" fill="#FFFDF8" stroke="#DCD2BE" stroke-width="3"/><text x="165" y="60" text-anchor="middle" font-family="Arial" font-size="28" font-weight="700" fill="#1D4E7A">MUSCULAR</text><rect x="65" y="155" width="200" height="340" rx="95" fill="#C45A3C" stroke="#2B2E34" stroke-width="5"/><g stroke="#F7F4EC" stroke-width="8"><line x1="95" y1="190" x2="235" y2="190"/><line x1="85" y1="240" x2="245" y2="240"/><line x1="80" y1="290" x2="250" y2="290"/><line x1="80" y1="340" x2="250" y2="340"/><line x1="85" y1="390" x2="245" y2="390"/><line x1="95" y1="440" x2="235" y2="440"/></g><text x="165" y="600" text-anchor="middle" font-family="Arial" font-size="23" fill="#6A727A">força e movimento</text></g><text x="80" y="1130" font-family="Arial" font-size="21" fill="#6A727A">HEX-G020-191 · Hexápode · Biblioteca Universal</text></svg>