<svg xmlns="http://www.w3.org/2000/svg" viewBox="0 0 1600 1200" role="img" aria-labelledby="t d"><title id="t">Templates aplicados</title><desc id="d">Família de templates para capítulos, comparações, algoritmos, casos e monitorização.</desc><rect width="1600" height="1200" fill="#F7F4EC"/><text x="72" y="90" font-family="Arial" font-size="24" font-weight="700" fill="#1D4E7A">HEXÁPODE · CAMADA AVANÇADA</text><text x="72" y="162" font-family="Georgia" font-size="58" font-weight="700" fill="#2B2E34">Templates aplicados</text><text x="74" y="208" font-family="Arial" font-size="24" fill="#6A727A">Família de templates para capítulos, comparações, algoritmos, casos e monitorização.</text><line x1="72" y1="238" x2="1528" y2="238" stroke="#DCD2BE" stroke-width="3"/><rect x="80" y="290" width="450" height="210" rx="22" fill="#FFFDF8" stroke="#DCD2BE" stroke-width="3"/><text x="104" y="334" font-family="Arial" font-size="25" font-weight="700" fill="#1D4E7A">Abertura</text><rect x="110" y="390" width="150" height="75" rx="12" fill="#E8E1D1"/><rect x="285" y="395" width="205" height="18" rx="9" fill="#1D4E7A" opacity=".25"/><rect x="285" y="430" width="165" height="14" rx="7" fill="#6A727A" opacity=".25"/><rect x="580" y="290" width="450" height="210" rx="22" fill="#FFFDF8" stroke="#DCD2BE" stroke-width="3"/><text x="604" y="334" font-family="Arial" font-size="25" font-weight="700" fill="#1D4E7A">Infográfico</text><rect x="610" y="390" width="150" height="75" rx="12" fill="#E8E1D1"/><rect x="785" y="395" width="205" height="18" rx="9" fill="#1D4E7A" opacity=".25"/><rect x="785" y="430" width="165" height="14" rx="7" fill="#6A727A" opacity=".25"/><rect x="1080" y="290" width="450" height="210" rx="22" fill="#FFFDF8" stroke="#DCD2BE" stroke-width="3"/><text x="1104" y="334" font-family="Arial" font-size="25" font-weight="700" fill="#1D4E7A">Revisão rápida</text><rect x="1110" y="390" width="150" height="75" rx="12" fill="#E8E1D1"/><rect x="1285" y="395" width="205" height="18" rx="9" fill="#1D4E7A" opacity=".25"/><rect x="1285" y="430" width="165" height="14" rx="7" fill="#6A727A" opacity=".25"/><rect x="80" y="535" width="450" height="210" rx="22" fill="#FFFDF8" stroke="#DCD2BE" stroke-width="3"/><text x="104" y="579" font-family="Arial" font-size="25" font-weight="700" fill="#1D4E7A">Comparação</text><rect x="110" y="635" width="150" height="75" rx="12" fill="#E8E1D1"/><rect x="285" y="640" width="205" height="18" rx="9" fill="#1D4E7A" opacity=".25"/><rect x="285" y="675" width="165" height="14" rx="7" fill="#6A727A" opacity=".25"/><rect x="580" y="535" width="450" height="210" rx="22" fill="#FFFDF8" stroke="#DCD2BE" stroke-width="3"/><text x="604" y="579" font-family="Arial" font-size="25" font-weight="700" fill="#1D4E7A">Algoritmo</text><rect x="610" y="635" width="150" height="75" rx="12" fill="#E8E1D1"/><rect x="785" y="640" width="205" height="18" rx="9" fill="#1D4E7A" opacity=".25"/><rect x="785" y="675" width="165" height="14" rx="7" fill="#6A727A" opacity=".25"/><rect x="1080" y="535" width="450" height="210" rx="22" fill="#FFFDF8" stroke="#DCD2BE" stroke-width="3"/><text x="1104" y="579" font-family="Arial" font-size="25" font-weight="700" fill="#1D4E7A">Parâmetros</text><rect x="1110" y="635" width="150" height="75" rx="12" fill="#E8E1D1"/><rect x="1285" y="640" width="205" height="18" rx="9" fill="#1D4E7A" opacity=".25"/><rect x="1285" y="675" width="165" height="14" rx="7" fill="#6A727A" opacity=".25"/><rect x="80" y="780" width="450" height="210" rx="22" fill="#FFFDF8" stroke="#DCD2BE" stroke-width="3"/><text x="104" y="824" font-family="Arial" font-size="25" font-weight="700" fill="#1D4E7A">Caso clínico</text><rect x="110" y="880" width="150" height="75" rx="12" fill="#E8E1D1"/><rect x="285" y="885" width="205" height="18" rx="9" fill="#1D4E7A" opacity=".25"/><rect x="285" y="920" width="165" height="14" rx="7" fill="#6A727A" opacity=".25"/><rect x="580" y="780" width="450" height="210" rx="22" fill="#FFFDF8" stroke="#DCD2BE" stroke-width="3"/><text x="604" y="824" font-family="Arial" font-size="25" font-weight="700" fill="#1D4E7A">Tabela</text><rect x="610" y="880" width="150" height="75" rx="12" fill="#E8E1D1"/><rect x="785" y="885" width="205" height="18" rx="9" fill="#1D4E7A" opacity=".25"/><rect x="785" y="920" width="165" height="14" rx="7" fill="#6A727A" opacity=".25"/><rect x="1080" y="780" width="450" height="210" rx="22" fill="#FFFDF8" stroke="#DCD2BE" stroke-width="3"/><text x="1104" y="824" font-family="Arial" font-size="25" font-weight="700" fill="#1D4E7A">Monitorização</text><rect x="1110" y="880" width="150" height="75" rx="12" fill="#E8E1D1"/><rect x="1285" y="885" width="205" height="18" rx="9" fill="#1D4E7A" opacity=".25"/><rect x="1285" y="920" width="165" height="14" rx="7" fill="#6A727A" opacity=".25"/><text x="72" y="1150" font-family="Arial" font-size="20" fill="#6A727A">HEX-A021-210 · Hexápode · avançado</text></svg>