<svg xmlns="http://www.w3.org/2000/svg" viewBox="0 0 1600 1200" role="img"><title>HEX-G010-094 — Atelectasia</title><desc>Pulmão esquemático com segmento colapsado e redução de volume.</desc><rect width="1600" height="1200" fill="#F7F4EC"/><text x="90" y="120" font-family="serif" font-size="72" fill="#2B2E34">Atelectasia</text><text x="90" y="175" font-family="sans-serif" font-size="28" fill="#6A727A">colapso alveolar • perda de volume • shunt</text><g transform="translate(250 260)"><path d="M400 80C170 80 40 270 80 610s190 440 430 350V170C480 110 450 80 400 80Z" fill="#E8E1D1" stroke="#2B2E34" stroke-width="10"/><path d="M590 170v790c240 90 390-10 430-350s-90-530-320-530c-50 0-80 30-110 90Z" fill="#E8E1D1" stroke="#2B2E34" stroke-width="10"/><path d="M740 500q170-80 260 40q-30 230-230 260q-110-90-30-300Z" fill="#B2473F" opacity=".75"/><path d="M980 460l150-110" stroke="#D39A2E" stroke-width="16"/><text x="1130" y="350" font-family="sans-serif" font-size="28" fill="#2B2E34">segmento colapsado</text></g></svg>