<svg xmlns="http://www.w3.org/2000/svg" viewBox="0 0 1600 1200" role="img"><title>Biblioteca de ícones Hexápode</title><rect width="1600" height="1200" fill="#F7F4EC"/><text x="70" y="100" font-size="58" fill="#2B2E34">Hexápode — Biblioteca de ícones</text><g fill="none" stroke="#1D4E7A" stroke-width="7"><circle cx="220" cy="330" r="70"/><path d="M500 390 C430 300 470 220 540 280 C610 220 650 300 580 390 Z"/><path d="M820 250 q120 80 0 190 q-120-110 0-190"/><path d="M1100 250 q100 70 20 190 q-120-80-20-190"/><circle cx="1350" cy="330" r="75"/><path d="M150 650 h140 m-70-70 v140 M450 610 l120 80 M570 610 l-120 80 M780 600 h160 v120 h-160z M1110 600 h160 l-80 130z M1370 600 q100 70 0 140 q-100-70 0-140"/></g><text x="70" y="1130" font-size="24" fill="#6A727A">HEX-G001-003</text></svg>