<svg xmlns="http://www.w3.org/2000/svg" viewBox="0 0 1600 1200" role="img"><title>Insuficiência cardíaca</title><rect width="1600" height="1200" fill="#F7F4EC"/><text x="90" y="125" font-family="Georgia" font-size="62" fill="#2B2E34">Insuficiência cardíaca</text><text x="90" y="175" font-family="Arial" font-size="24" fill="#6A727A">Falha de bomba, congestão e baixo débito</text><line x1="90" y1="210" x2="1510" y2="210" stroke="#DCD2BE" stroke-width="3"/><path d="M500 330 C360 250 250 390 310 580 C370 760 520 850 650 920 C800 810 930 630 930 460 C930 300 760 250 670 350" fill="#F2D2CC" stroke="#2B2E34" stroke-width="7"/><path d="M650 450 V760" stroke="#B2473F" stroke-width="24"/><path d="M190 780 C280 700 360 700 450 780 C360 860 280 860 190 780Z" fill="#C9E6EA" stroke="#1696A3" stroke-width="5"/><path d="M950 780 C1040 700 1120 700 1210 780 C1120 860 1040 860 950 780Z" fill="#C9E6EA" stroke="#1696A3" stroke-width="5"/><text x="1030" y="420" font-family="Arial" font-size="28" fill="#B2473F">baixo débito</text><text x="1030" y="480" font-family="Arial" font-size="28" fill="#1696A3">congestão</text><text x="1030" y="540" font-family="Arial" font-size="24" fill="#2B2E34">sintomas sistêmicos e pulmonares</text><text x="90" y="1115" font-family="Arial" font-size="20" fill="#6A727A">HEX-G018-178 · Cardiologia</text></svg>