<svg xmlns="http://www.w3.org/2000/svg" viewBox="0 0 1600 1200" role="img" aria-labelledby="t d"><title id="t">Física do ultrassom</title><desc id="d">Ondas, frequência, comprimento de onda, impedância e reflexão.</desc><rect width="1600" height="1200" fill="#F7F4EC"/><text x="72" y="92" font-family="Arial" font-size="25" font-weight="700" fill="#1D4E7A">HEXÁPODE · ULTRASSOM</text><text x="72" y="164" font-family="Georgia" font-size="58" font-weight="700" fill="#2B2E34">Física do ultrassom</text><text x="74" y="208" font-family="Arial" font-size="24" fill="#6A727A">Ondas, frequência, comprimento de onda, impedância e reflexão</text><line x1="72" y1="238" x2="1528" y2="238" stroke="#DCD2BE" stroke-width="3"/><rect x="72" y="275" width="1456" height="760" rx="24" fill="#FFFDF8" stroke="#DCD2BE" stroke-width="2"/><path d="M170 550 C300 420 430 680 560 550 S820 420 950 550 S1210 680 1430 550" fill="none" stroke="#1696A3" stroke-width="12"/><line x1="170" y1="550" x2="1430" y2="550" stroke="#DCD2BE" stroke-width="2" stroke-dasharray="12 12"/><line x1="390" y1="500" x2="390" y2="600" stroke="#D39A2E" stroke-width="5"/><line x1="690" y1="500" x2="690" y2="600" stroke="#D39A2E" stroke-width="5"/><text x="475" y="470" font-family="Arial" font-size="25" fill="#D39A2E">comprimento de onda</text><rect x="170" y="760" width="360" height="130" rx="20" fill="#EAF6F7"/><text x="200" y="815" font-family="Arial" font-size="27" fill="#1696A3">frequência ↑</text><text x="200" y="855" font-family="Arial" font-size="22" fill="#6A727A">resolução ↑ · penetração ↓</text><rect x="620" y="760" width="360" height="130" rx="20" fill="#E8EEF4"/><text x="650" y="815" font-family="Arial" font-size="27" fill="#1D4E7A">impedância acústica</text><text x="650" y="855" font-family="Arial" font-size="22" fill="#6A727A">interface gera reflexão</text><rect x="1070" y="760" width="360" height="130" rx="20" fill="#F6E8C4"/><text x="1100" y="815" font-family="Arial" font-size="27" fill="#D39A2E">atenuação</text><text x="1100" y="855" font-family="Arial" font-size="22" fill="#6A727A">absorção + dispersão</text><text x="72" y="1152" font-family="Arial" font-size="20" fill="#6A727A">HEX-G019-181 · Hexápode · Ultrassom</text></svg>