<svg xmlns="http://www.w3.org/2000/svg" viewBox="0 0 1600 1200" role="img"><title>Veia cava inferior</title><rect width="1600" height="1200" fill="#F7F4EC"/><text x="72" y="92" font-family="Arial" font-size="25" font-weight="700" fill="#1D4E7A">HEXÁPODE · ULTRASSOM</text><text x="72" y="164" font-family="Georgia" font-size="58" fill="#2B2E34">Veia cava inferior</text><text x="74" y="208" font-family="Arial" font-size="24" fill="#6A727A">Diâmetro, variação respiratória e contexto hemodinâmico</text><line x1="72" y1="238" x2="1528" y2="238" stroke="#DCD2BE" stroke-width="3"/><rect x="72" y="275" width="1456" height="760" rx="24" fill="#FFFDF8" stroke="#DCD2BE"/><g transform="translate(150 340)"><rect width="700" height="520" rx="24" fill="#F5F6F7" stroke="#DCD2BE"/><path d="M350 60 C290 180 295 340 350 460 C405 340 410 180 350 60Z" fill="#DCE9F2" stroke="#1D4E7A" stroke-width="8"/><line x1="245" y1="180" x2="455" y2="180" stroke="#D39A2E" stroke-width="6"/><line x1="285" y1="350" x2="415" y2="350" stroke="#2E7D69" stroke-width="6"/><text x="470" y="190" font-family="Arial" font-size="25" fill="#D39A2E">diâmetro máximo</text><text x="430" y="360" font-family="Arial" font-size="25" fill="#2E7D69">diâmetro mínimo</text><rect x="790" width="480" height="520" rx="24" fill="#FFFDF8" stroke="#DCD2BE"/><text x="840" y="100" font-family="Arial" font-size="29" font-weight="700" fill="#1D4E7A">INTERPRETAÇÃO</text><text x="840" y="190" font-family="Arial" font-size="24" fill="#2B2E34">variação respiratória</text><text x="840" y="260" font-family="Arial" font-size="24" fill="#2B2E34">ventilação espontânea ou mecânica</text><text x="840" y="330" font-family="Arial" font-size="24" fill="#2B2E34">pressão intratorácica</text><text x="840" y="400" font-family="Arial" font-size="24" fill="#6A727A">nunca interpretar isoladamente</text></g><text x="72" y="1152" font-family="Arial" font-size="20" fill="#6A727A">HEX-G019-189 · Hexápode · Ultrassom</text></svg>