<svg xmlns="http://www.w3.org/2000/svg" width="1600" height="1200" viewBox="0 0 1600 1200" role="img" aria-labelledby="t d"><title id="t">HEX-G006-056 — Máscara total-face</title><desc id="d">Interface total-face esquemática envolvendo olhos, nariz e boca, com vedação e conexão.</desc><rect width="1600" height="1200" fill="#F7F4EC"/><text x="90" y="110" font-family="Georgia,serif" font-size="58" fill="#2B2E34">Máscara total-face</text><text x="92" y="158" font-family="Arial" font-size="24" fill="#6A727A">interface ampliada • menor pressão focal • maior área de vedação</text><line x1="90" y1="190" x2="1510" y2="190" stroke="#DCD2BE" stroke-width="3"/><ellipse cx="790" cy="590" rx="310" ry="390" fill="#E8E1D1" stroke="#2B2E34" stroke-width="8"/><ellipse cx="790" cy="590" rx="255" ry="335" fill="#1696A3" opacity=".2" stroke="#1696A3" stroke-width="12"/><circle cx="690" cy="500" r="35" fill="#F7F4EC" stroke="#2B2E34" stroke-width="5"/><circle cx="890" cy="500" r="35" fill="#F7F4EC" stroke="#2B2E34" stroke-width="5"/><path d="M760 590 Q790 650 820 590 M690 735 Q790 790 890 735" fill="none" stroke="#C45A3C" stroke-width="9"/><circle cx="790" cy="850" r="65" fill="#1D4E7A"/><path d="M790 850 H1260" stroke="#1D4E7A" stroke-width="42"/><path d="M530 430 H340 M510 760 H320 M1050 430 H1250 M1070 760 H1270" stroke="#6A727A" stroke-width="18"/><g font-family="Arial" font-size="27" fill="#2B2E34"><text x="600" y="1030">almofada perimetral</text><text x="1170" y="810">conexão</text><text x="235" y="610">fixação</text></g></svg>