<svg xmlns="http://www.w3.org/2000/svg" viewBox="0 0 1600 1200" role="img" aria-labelledby="t d"><title id="t">Volumes e fluxos pulmonares</title><desc id="d">Curvas temporais de volume e fluxo durante um ciclo respiratório.</desc><rect width="1600" height="1200" fill="#F7F4EC"/><text x="90" y="120" font-family="Georgia" font-size="62" fill="#2B2E34">Volumes e fluxos pulmonares</text><text x="90" y="170" font-family="Arial" font-size="24" fill="#6A727A">Duas leituras complementares do mesmo ciclo</text><line x1="90" y1="205" x2="1510" y2="205" stroke="#DCD2BE" stroke-width="3"/><g transform="translate(140 300)"><rect width="620" height="570" rx="24" fill="#FFFDF8" stroke="#DCD2BE" stroke-width="4"/><text x="40" y="60" font-family="Arial" font-size="30" fill="#1D4E7A">Volume × tempo</text><line x1="80" y1="480" x2="560" y2="480" stroke="#2B2E34" stroke-width="4"/><line x1="80" y1="480" x2="80" y2="120" stroke="#2B2E34" stroke-width="4"/><path d="M90 450 C170 430 210 160 320 150 C430 150 470 430 550 450" fill="none" stroke="#1D4E7A" stroke-width="14"/><rect x="700" width="620" height="570" rx="24" fill="#FFFDF8" stroke="#DCD2BE" stroke-width="4"/><text x="740" y="60" font-family="Arial" font-size="30" fill="#1D4E7A">Fluxo × tempo</text><line x1="780" y1="300" x2="1260" y2="300" stroke="#2B2E34" stroke-width="4"/><line x1="780" y1="480" x2="780" y2="120" stroke="#2B2E34" stroke-width="4"/><path d="M790 300 C840 290 880 120 950 140 C1010 160 1000 290 1030 300 C1080 320 1100 490 1170 450 C1220 420 1230 310 1250 300" fill="none" stroke="#1696A3" stroke-width="14"/></g><text x="90" y="1120" font-family="Arial" font-size="20" fill="#6A727A">HEX-A024-235 · Hexápode · Mecânica Respiratória Avançada</text></svg>